<svg width="106" height="106" viewBox="0 0 106 106" fill="none" xmlns="http://www.w3.org/2000/svg">
<path d="M49.0701 0.393089C48.6541 0.452522 47.1385 0.660538 45.6527 0.838844C40.0955 1.52234 33.5578 3.63226 28.3275 6.48512C7.73351 17.5696 -3.08355 40.7193 1.64149 63.661C3.78113 74.1512 8.83305 83.2744 16.7973 91.1494C19.2935 93.616 19.1746 93.6754 19.1152 90.2579L19.0855 88.6235L19.4124 90.4956C19.6501 92.0409 19.6204 92.4867 19.2341 93.081C18.818 93.7051 18.4911 93.824 16.7675 93.9131C14.9548 94.0023 15.0439 94.0023 17.4808 94.0617L20.2445 94.1211L21.9383 95.4287C27.7332 99.8268 35.0436 103.036 42.9781 104.7C46.4253 105.443 47.4951 105.533 52.7848 105.533C58.9957 105.562 60.8084 105.354 66.0684 104.047C72.5764 102.442 78.3416 99.708 84.1662 95.5179C86.1275 94.1211 86.1572 94.1211 88.6237 94.0914C89.9907 94.0617 90.7634 93.9726 90.2879 93.9131C89.4855 93.7943 89.4855 93.7645 89.6638 92.249C89.8421 90.882 90.0799 90.4659 91.6846 88.772C99.7974 80.1243 104.671 68.8912 105.533 56.7666C107.524 28.7136 87.4053 4.16717 59.5306 0.660538C56.2023 0.274216 51.0018 0.125633 49.0701 0.393089ZM55.9645 10.7644C57.9259 12.0719 59.7683 17.0942 59.7683 21.0465C59.7683 23.4239 59.2631 22.7107 59.0848 20.0064C58.7877 15.6974 57.1532 11.9531 55.1622 11.0021C54.3004 10.5861 54.0329 10.5861 53.2008 10.913C51.2989 11.7153 49.5456 15.6974 49.189 20.1253C48.981 22.473 48.7135 23.097 48.3866 21.8786C48.2381 21.314 48.0598 21.2843 45.5041 21.3734L42.7701 21.4626L42.9187 20.2442C43.0376 18.9663 44.6423 15.4003 44.9395 15.6677C45.0286 15.7569 45.3555 15.6083 45.6527 15.3706C46.1579 14.9545 46.1876 14.9842 45.9796 15.5191C45.8607 15.846 45.8904 15.9946 46.0093 15.846C46.1281 15.7272 46.247 15.1923 46.247 14.6871C46.247 13.855 46.3362 13.7361 46.9899 13.7955C47.406 13.8253 47.5546 13.7658 47.3763 13.7064C46.5739 13.3795 48.3866 12.1611 51.2989 11.0913C52.131 10.7941 52.9037 10.4078 53.082 10.2889C53.5872 9.81344 54.865 10.0215 55.9645 10.7644ZM45.5635 15.1328C45.3555 15.3408 45.2069 15.3706 45.2069 15.1923C45.2069 14.7762 45.5635 14.4196 45.7715 14.6276C45.831 14.7168 45.7418 14.9545 45.5635 15.1328ZM68.3269 24.4937L68.416 26.0687H54.1518H39.8578V24.6423C39.8578 23.84 39.947 23.1267 40.0361 23.0376C40.1253 22.9187 46.5145 22.8593 54.2112 22.889L68.2377 22.9484L68.3269 24.4937ZM62.4429 30.4075C62.4429 32.8146 62.5618 34.0627 62.7401 33.9438C62.9184 33.8547 63.0372 33.0226 63.0372 32.1013C63.0372 31.1801 63.0967 30.4966 63.1858 30.5858C63.4235 30.8235 63.4533 35.5485 63.2155 35.7863C63.1264 35.8754 63.0372 35.6674 63.0372 35.3108C63.0372 34.9542 62.9184 34.7462 62.7401 34.8353C62.5618 34.9542 62.4429 36.7669 62.4429 39.2929V43.6019L55.8457 43.6911C50.4669 43.7505 51.0909 43.7802 59.1146 43.8396L69.0104 43.8991L68.8915 45.4444L68.8024 47.0194L54.1815 47.1085L39.5606 47.168V45.5632V43.9585L42.4729 43.8396C44.0479 43.7802 45.5338 43.6316 45.7418 43.5127C46.0093 43.3344 46.0984 41.5514 46.0984 36.3509C46.0984 30.6452 46.1876 29.2782 46.5739 28.5056C46.8116 27.9706 47.1682 27.5546 47.3168 27.5546C47.4654 27.5546 47.5843 27.3466 47.5843 27.1088C47.5843 26.7225 48.5947 26.6631 55.0136 26.6631H62.4429V30.4075ZM42.2352 36.9155C42.2055 40.6302 42.0866 43.3047 41.9083 43.3047C41.7597 43.3047 41.6408 40.6599 41.6408 36.9155C41.6408 32.7254 41.7597 30.5263 41.938 30.5263C42.146 30.5263 42.2352 32.6957 42.2352 36.9155ZM63.2452 40.6896C63.1858 41.5514 63.1561 40.8679 63.1561 39.1443C63.1561 37.4207 63.1858 36.7372 63.2452 37.5693C63.3047 38.4311 63.3047 39.8575 63.2452 40.6896ZM63.4533 42.859C63.5424 43.0967 63.483 43.3047 63.3344 43.3047C63.1561 43.3047 63.0372 43.0967 63.0372 42.859C63.0372 42.6212 63.0967 42.4132 63.1561 42.4132C63.2155 42.4132 63.3344 42.6212 63.4533 42.859ZM63.3938 57.7176L63.483 67.97H54.3598H45.2069V59.352C45.2069 53.7949 45.3258 50.734 45.5041 50.734C45.6824 50.734 45.8013 50.318 45.8013 49.8425C45.8013 49.2482 45.9498 48.951 46.247 48.951C46.5145 48.951 46.6928 48.6835 46.6928 48.2081V47.4651H55.0136H63.3047L63.3938 57.7176ZM64.5231 59.9464C64.4934 64.1959 64.3745 67.6728 64.2259 67.6728C64.0773 67.6728 63.9585 64.1959 63.9287 59.9464C63.9287 54.7161 64.0179 52.2199 64.2259 52.2199C64.4339 52.2199 64.5231 54.7161 64.5231 59.9464ZM40.9573 62.8289C40.9276 64.7605 40.8682 63.1855 40.8682 59.352C40.8682 55.5185 40.9276 53.9435 40.9573 55.8454C41.0168 57.777 41.0168 60.927 40.9573 62.8289ZM41.3437 67.2271C41.3437 67.4648 41.2248 67.6728 41.0465 67.6728C40.8979 67.6728 40.8385 67.4648 40.9276 67.2271C41.0465 66.9893 41.1654 66.7813 41.2248 66.7813C41.2842 66.7813 41.3437 66.9893 41.3437 67.2271ZM69.4264 70.0502V71.6847H54.1221H38.8177L38.7286 70.3771C38.5503 68.0889 37.2427 68.2672 54.1815 68.3266L69.4264 68.4158V70.0502ZM90.5554 71.0309C90.4959 71.7144 90.4068 72.3682 90.4068 72.487C90.3771 72.6356 85.9195 72.7248 80.5109 72.7248C75.0727 72.7248 70.4368 72.8436 70.2288 72.9922C69.6642 73.3488 68.3863 73.0219 68.3863 72.5465C68.3863 72.3087 68.6835 72.1304 69.1293 72.1304C69.8128 72.1304 69.8722 72.0115 69.8722 70.8526V69.6045L80.2732 69.6936L90.7039 69.7828L90.5554 71.0309ZM38.4314 70.8526C38.4908 71.7738 38.6394 72.0115 39.204 72.071C39.8875 72.1601 39.9172 72.279 39.8281 74.2998C39.7092 78.1333 39.8578 93.3188 40.0064 93.1702C40.0955 93.081 40.1847 89.307 40.1847 84.7899C40.1847 79.7083 40.2738 76.588 40.4522 76.588C40.6305 76.588 40.7493 79.7677 40.7493 84.998V93.4079L39.947 93.6754C39.1149 93.9726 23.6619 93.824 23.4539 93.5268C23.3945 93.4376 23.4242 89.3961 23.5133 84.5225C23.6619 76.2611 23.6917 75.6073 24.2266 75.2507C24.5237 75.013 24.7912 74.5375 24.8209 74.1512L24.8506 73.4677L31.4776 73.3785C35.5191 73.3488 38.0748 73.2002 38.0748 73.0219C38.0748 72.8436 34.3898 72.7248 27.9709 72.7248H17.8671V71.2389V69.753H28.0898H38.3422L38.4314 70.8526ZM63.7504 82.5314C63.7802 88.1777 63.899 92.8136 64.0179 92.8433C64.1665 92.9027 64.2556 89.2475 64.2259 84.7602C64.2259 77.6281 64.2556 76.588 64.6717 76.588C65.058 76.588 65.1174 77.5984 65.1174 84.3739C65.1174 92.0409 64.9986 93.6754 64.5231 93.3782C64.3745 93.2891 64.1962 93.3485 64.0773 93.5268C63.8693 93.8537 47.6437 93.9428 45.7418 93.6457L44.6126 93.4376V84.7899C44.6126 79.8866 44.7314 75.9937 44.88 75.8153C45.0286 75.6668 45.2069 75.1319 45.2663 74.6564C45.3258 74.1512 45.5041 73.7946 45.7418 73.8243C45.9498 73.8837 46.0984 73.6163 46.0984 73.2299C46.0984 72.8436 46.1876 72.4276 46.3064 72.3384C46.4253 72.2196 50.3777 72.1601 55.1325 72.1898L63.7504 72.279V82.5314ZM85.0874 83.1258C85.1171 88.5046 85.1468 93.1405 85.1468 93.4079C85.1765 93.8537 84.4633 93.8834 77.8958 93.824C73.884 93.7943 70.2288 93.7348 69.7236 93.7051L68.8321 93.6754L68.7429 85.5329C68.7132 80.3026 68.7726 77.2715 68.9807 77.0635C69.1293 76.9149 69.2778 76.38 69.2778 75.9342C69.2778 75.4587 69.4859 75.013 69.7236 74.9238C69.9613 74.805 70.1694 74.4186 70.1694 74.0323V73.3191H77.5987H85.028L85.0874 83.1258ZM85.9195 85.6815C85.9195 89.9013 85.8303 93.4079 85.7709 93.4971C85.6817 93.5565 85.6223 90.0499 85.6223 85.6517C85.6223 81.2536 85.7114 77.747 85.8006 77.8361C85.8898 77.9253 85.9492 81.4616 85.9195 85.6815ZM19.6204 82.888C19.6204 86.0083 19.5312 87.5536 19.3529 87.2862C18.9666 86.6918 18.9666 78.0739 19.3232 78.0739C19.5015 78.0739 19.6204 80.0649 19.6204 82.888Z" fill="#FBFDFD"/>
<path d="M50.5269 12.0124C50.1406 12.4879 50.1703 12.5176 50.6458 12.1313C50.9132 11.9233 51.1509 11.6856 51.1509 11.6261C51.1509 11.3884 50.9132 11.537 50.5269 12.0124Z" fill="#FBFDFD"/>
<path d="M52.8746 28.5357C52.2803 28.6843 51.2996 29.2489 50.735 29.8135C48.1199 32.3395 48.8034 36.2622 52.1317 37.9263C54.1822 38.9367 55.9058 38.6395 57.5699 36.9456C61.2549 33.2904 57.9265 27.3173 52.8746 28.5357ZM54.0039 30.5564C54.1525 30.7942 54.2713 30.7942 54.4199 30.5267C54.5982 30.2593 54.8062 30.2593 55.3411 30.5267C56.5893 31.1805 57.0647 31.7749 57.2728 32.8447C57.7185 35.222 55.3114 37.2725 53.1124 36.3513C51.8048 35.8164 51.151 34.806 51.151 33.4093C51.151 31.9829 51.5373 31.2697 52.5774 30.705C53.5581 30.1701 53.7364 30.1404 54.0039 30.5564Z" fill="#FBFDFD"/>
<path d="M54.123 33.4682C54.123 33.6168 54.6282 34.0923 55.2523 34.538L56.3518 35.3701L55.3415 34.3003C54.2419 33.1413 54.123 33.0522 54.123 33.4682Z" fill="#FBFDFD"/>
<path d="M47.2281 43.8099C47.4064 43.8694 47.763 43.8694 47.971 43.8099C48.1494 43.7208 48.0008 43.6613 47.5847 43.6613C47.1687 43.6613 47.0201 43.7208 47.2281 43.8099Z" fill="#FBFDFD"/>
<path d="M49.13 53.5866C47.347 54.9833 46.8715 56.38 46.7527 60.4512L46.6338 64.1064L51.3291 64.047L56.0541 63.9876L51.6857 63.8984L47.2876 63.7796V60.3621C47.2876 57.8064 47.4064 56.6474 47.763 55.9045C48.2682 54.8644 50.0513 53.1111 50.6159 53.1111C50.7942 53.1111 51.5074 53.6757 52.2206 54.3889C53.1716 55.3399 53.5579 55.9936 53.7065 56.9149C53.8254 57.5984 54.0037 58.163 54.0928 58.163C54.2117 58.163 54.4494 57.5687 54.6574 56.8554C55.014 55.5182 56.1433 53.9134 57.124 53.3785C58.0155 52.9031 59.5905 54.0323 60.4226 55.7262C60.9872 56.9149 61.1061 57.5984 61.1061 60.3918V63.6607L60.066 63.839L59.0259 64.0173L60.3037 64.0767L61.5518 64.1064V61.0456C61.5518 57.0635 61.0466 55.3102 59.4716 53.8837C58.8178 53.2894 58.1046 52.8139 57.8669 52.8139C57.124 52.8139 55.4598 54.1809 54.8655 55.2804C54.2414 56.4097 53.8254 56.7069 53.8254 55.9342C53.8254 55.2804 51.3291 52.8139 50.6753 52.8139C50.3782 52.8139 49.6649 53.1705 49.13 53.5866Z" fill="#FBFDFD"/>
<path d="M49.0996 54.657C47.8812 55.9051 47.584 57.0938 47.584 60.6004V63.5127H50.5557H53.5274V60.3924C53.5274 56.9749 53.1708 55.7268 51.9227 54.4489C50.942 53.4683 50.2288 53.498 49.0996 54.657Z" fill="#FBFDFD"/>
<path d="M56.4107 54.5084C55.1031 55.9051 54.7168 57.2424 54.7168 60.541V63.5127H57.6885H60.6602V60.3032C60.6602 56.7966 60.155 55.1027 58.8475 54.1815C57.8668 53.498 57.3319 53.5872 56.4107 54.5084Z" fill="#FBFDFD"/>
<path d="M48.4167 64.9095C49.2785 64.969 50.6157 64.969 51.3884 64.9095C52.161 64.8501 51.4478 64.8204 49.8134 64.8204C48.1789 64.8204 47.5549 64.8501 48.4167 64.9095Z" fill="#FBFDFD"/>
<path d="M59.1738 64.8205C59.1738 65.0879 60.2734 65.1771 60.8083 64.9691C61.254 64.7907 61.1352 64.7313 60.3031 64.7313C59.679 64.7016 59.1738 64.761 59.1738 64.8205Z" fill="#FBFDFD"/>
<path d="M30.1994 79.233C28.8919 80.0354 28.0895 81.0161 27.3466 82.6505C26.782 83.9284 26.7225 84.5821 26.7523 88.4157C26.782 90.793 26.8711 92.8138 26.9306 92.903C27.0197 92.9624 27.0791 91.0308 27.0791 88.5642C27.0791 84.1958 27.1089 84.077 27.9707 82.3236C28.565 81.1349 29.2782 80.2434 30.0806 79.7085L31.2693 78.8764L32.0716 79.4708C32.5174 79.768 33.082 80.1543 33.3198 80.3029C33.7061 80.5406 33.7061 80.5109 33.3495 80.0354C32.9929 79.6194 31.507 78.6684 31.1801 78.6684C31.1207 78.6684 30.7046 78.9062 30.1994 79.233Z" fill="#FBFDFD"/>
<path d="M29.7236 80.3622C29.2184 80.808 28.4755 81.8481 28.0892 82.6802C27.4354 84.0175 27.376 84.5821 27.376 88.5345V92.9326H31.2392H35.1024V88.5345C35.1024 84.5821 35.043 84.0175 34.3892 82.6802C33.6463 81.0457 32.1307 79.5599 31.2392 79.5599C30.942 79.5599 30.2585 79.9165 29.7236 80.3622Z" fill="#FBFDFD"/>
<path d="M34.2419 81.4916C34.2419 81.6402 34.4202 82.0563 34.658 82.3534C34.8957 82.6803 35.1037 82.7992 35.1037 82.6506C35.1037 82.4723 34.8957 82.086 34.658 81.7591C34.4202 81.4619 34.2419 81.3133 34.2419 81.4916Z" fill="#FBFDFD"/>
<path d="M35.5188 89.2177C35.5188 91.3277 35.5485 92.1597 35.608 91.0602C35.6674 89.9607 35.6674 88.2073 35.608 87.197C35.5485 86.1866 35.5188 87.0781 35.5188 89.2177Z" fill="#FBFDFD"/>
<path d="M53.082 77.3309C51.7448 78.0144 50.3481 79.738 49.6646 81.5508C49.1594 82.9475 49.0702 83.7796 49.1296 88.1183L49.1891 93.0811L49.3674 87.8805C49.4863 83.8093 49.6348 82.4126 50.0509 81.5211C50.7938 79.8272 51.8636 78.5196 53.1118 77.7767L54.1816 77.0932L55.5188 78.0441C57.0641 79.1437 57.6288 79.0843 56.1429 77.9847C54.7759 76.9743 54.1221 76.8257 53.082 77.3309Z" fill="#FBFDFD"/>
<path d="M52.4276 78.8169C51.7441 79.3816 50.9418 80.5108 50.5257 81.4023C49.9017 82.7991 49.8125 83.5123 49.7234 87.9401L49.6045 92.9326H54.0918H58.5791V88.3562C58.5791 82.7396 58.1928 81.2835 56.2017 79.2033C55.4291 78.4009 54.5673 77.7768 54.2404 77.7768C53.9135 77.7768 53.0814 78.2523 52.4276 78.8169Z" fill="#FBFDFD"/>
<path d="M57.8659 80.5998C58.1334 81.0159 58.4009 81.3428 58.4603 81.3428C58.5197 81.3428 58.4009 81.0159 58.2225 80.5998C58.0442 80.1838 57.7768 79.8569 57.6282 79.8569C57.4796 79.8569 57.5985 80.1838 57.8659 80.5998Z" fill="#FBFDFD"/>
<path d="M58.877 88.8019C58.877 91.5062 58.9958 92.9029 59.1741 92.784C59.3524 92.6651 59.4713 90.9415 59.4713 88.5939C59.4713 86.1274 59.3524 84.6118 59.1741 84.6118C58.9958 84.6118 58.877 86.2165 58.877 88.8019Z" fill="#FBFDFD"/>
<path d="M75.8164 79.3222C75.2815 79.7086 74.7466 80.2137 74.6872 80.4515C74.598 80.7487 74.7763 80.6892 75.2518 80.2732C76.6485 79.0251 77.1537 78.9062 78.2235 79.6491C79.5311 80.5406 80.7792 82.6208 81.1358 84.4633C81.2844 85.2657 81.433 87.4945 81.4627 89.3666C81.4627 91.2388 81.5519 92.8436 81.641 92.9327C81.7302 93.0219 81.7599 91.0011 81.7005 88.4751C81.6113 84.5822 81.4924 83.6609 80.9872 82.5317C80.3929 81.2538 78.4018 78.9656 77.8966 78.9656C77.7481 78.9656 77.4509 78.9062 77.2429 78.817C77.0051 78.7279 76.3811 78.9656 75.8164 79.3222Z" fill="#FBFDFD"/>
<path d="M75.3991 80.4811C73.6458 81.9967 73.1406 83.8986 73.1406 88.7722V92.9326H77.0039H80.8671V88.3859C80.8671 83.2448 80.5699 82.175 78.668 80.5108C77.301 79.3221 76.7067 79.3221 75.3991 80.4811Z" fill="#FBFDFD"/>
<path d="M73.4383 81.9376C73.26 82.2942 73.1708 82.6508 73.2303 82.7399C73.3194 82.7994 73.5571 82.5913 73.7354 82.2347C73.9137 81.8781 74.0029 81.5215 73.9435 81.4324C73.8543 81.3729 73.6166 81.581 73.4383 81.9376Z" fill="#FBFDFD"/>
<path d="M72.6658 89.2177C72.6658 91.3277 72.6955 92.1597 72.7549 91.0602C72.8144 89.9607 72.8144 88.2073 72.7549 87.197C72.6955 86.1866 72.6658 87.0781 72.6658 89.2177Z" fill="#FBFDFD"/>
</svg>
