<svg width="56" height="70" viewBox="0 0 56 70" fill="none" xmlns="http://www.w3.org/2000/svg">
<path fill-rule="evenodd" clip-rule="evenodd" d="M14 0C6.2678 0 0 6.2678 0 14C0 21.7322 6.2678 28 14 28C21.7322 28 28 21.7322 28 14C28 6.2678 21.7322 0 14 0ZM8.4 8.4C8.4 8.0287 8.5475 7.6726 8.81005 7.41005C9.0726 7.1475 9.4287 7 9.8 7H18.2C18.5713 7 18.9274 7.1475 19.1899 7.41005C19.4525 7.6726 19.6 8.0287 19.6 8.4C19.6 8.7713 19.4525 9.1274 19.1899 9.38995C18.9274 9.6525 18.5713 9.8 18.2 9.8H16.051C16.3016 10.234 16.4962 10.703 16.6236 11.2H18.2C18.5713 11.2 18.9274 11.3475 19.1899 11.6101C19.4525 11.8726 19.6 12.2287 19.6 12.6C19.6 12.9713 19.4525 13.3274 19.1899 13.5899C18.9274 13.8525 18.5713 14 18.2 14H16.6236C16.4086 14.83 16.0063 15.5997 15.4477 16.25C14.889 16.9004 14.1888 17.4142 13.4008 17.752L16.24 19.88C16.537 20.1028 16.7334 20.4344 16.7859 20.802C16.8384 21.1696 16.7428 21.543 16.52 21.84C16.2972 22.137 15.9656 22.3334 15.598 22.3859C15.2304 22.4384 14.857 22.3428 14.56 22.12L8.9712 17.9284C8.79296 17.7994 8.64813 17.6297 8.54877 17.4335C8.44941 17.2372 8.3984 17.02 8.4 16.8C8.4 16.4402 8.5442 16.0944 8.778 15.8438C8.90811 15.7028 9.0662 15.5905 9.24218 15.5141C9.41816 15.4377 9.60815 15.3988 9.8 15.4H11.2C11.6915 15.4 12.1743 15.2706 12.6 15.0249C13.0256 14.7791 13.3791 14.4256 13.6248 14H9.8C9.4287 14 9.0726 13.8525 8.81005 13.5899C8.5475 13.3274 8.4 12.9713 8.4 12.6C8.4 12.2287 8.5475 11.8726 8.81005 11.6101C9.0726 11.3475 9.4287 11.2 9.8 11.2H13.6248C13.3791 10.7744 13.0256 10.4209 12.6 10.1751C12.1743 9.9294 11.6915 9.80001 11.2 9.8H9.8C9.4287 9.8 9.0726 9.6525 8.81005 9.38995C8.5475 9.1274 8.4 8.7713 8.4 8.4Z" fill="#E6E6E6"/>
<path d="M47.2153 7.59785C44.1789 8.46185 41.4141 9.37522 41.0685 9.64676C40.6982 9.89362 39.8836 11.0538 39.2171 12.2388L38.0075 14.337L35.9833 14.3617C30.0093 14.4111 24.6772 17.4474 21.2706 22.7548C20.2091 24.4088 19.0983 27.6179 18.8761 29.6422C18.7527 30.9752 18.6046 31.3208 17.864 32.0613L17 32.9253L17.0987 35.8629C17.1728 38.603 17.2222 38.8499 17.7653 39.4424C18.1109 39.8126 18.7774 40.1582 19.2711 40.2323L20.1598 40.3804L22.0606 52.4517C23.9614 64.5971 24.1835 65.5598 25.1956 65.8807C25.4672 65.9548 25.6894 66.3497 25.7881 66.9422C25.8622 67.4853 26.2078 68.1271 26.578 68.4974L27.2199 69.0898H36.2301H45.2404L45.9563 68.2752C46.3513 67.8309 46.6722 67.2137 46.6722 66.8681C46.6722 66.4978 46.919 66.1029 47.2893 65.856C47.6349 65.6339 48.0546 65.2142 48.2027 64.918C48.3755 64.6217 49.3382 59.0181 50.375 52.427L52.2511 40.4792L53.1645 40.257C53.6829 40.1336 54.3494 39.7139 54.695 39.2942C55.2628 38.603 55.3122 38.3809 55.3122 35.8876C55.3122 32.9994 55.09 32.1601 54.1519 31.5676C53.7323 31.2714 53.5842 30.9505 53.5842 30.2593C53.5595 27.692 51.8315 23.372 49.7579 20.78C48.4989 19.1754 46.3266 17.3487 44.7714 16.5587C43.5865 15.991 43.5618 15.9169 44.0555 14.9295C44.3764 14.3124 44.7961 14.1396 48.2027 13.2015C50.2763 12.609 52.572 11.9919 53.3126 11.7697C55.5343 11.1279 56.3983 9.84425 55.8306 7.96814C55.5096 6.88197 54.3741 6.01797 53.3373 6.04265C52.9917 6.04265 50.2516 6.75854 47.2153 7.59785ZM34.6503 21.1009C36.1314 23.2239 39.7849 24.0385 42.3522 22.8042L43.5618 22.2365L44.8701 23.6435C46.3513 25.2481 47.2399 26.8527 47.783 28.9016C48.4495 31.4689 49.7826 31.1973 36.2055 31.1973H24.2329L24.381 30.2593C24.85 26.902 26.9236 23.5448 29.6637 21.7921C30.8487 21.0515 33.0951 20.1135 33.7122 20.1135C33.8603 20.1135 34.28 20.5578 34.6503 21.1009ZM38.1062 45.7619C40.7723 48.107 40.7723 54.0316 38.1062 56.3767C36.5017 57.8085 34.3047 57.1173 33.1197 54.8215C32.6507 53.9082 32.4779 53.1182 32.4039 51.563C32.2804 49.0204 32.7495 47.3665 34.0578 45.9841C34.8724 45.1447 35.1193 45.0213 36.1314 45.0213C37.0448 45.0213 37.4397 45.1694 38.1062 45.7619Z" fill="#FE7F0C"/>
</svg>
