<svg width="916" height="620" viewBox="0 0 916 620" fill="none" xmlns="http://www.w3.org/2000/svg">
<g clip-path="url(#clip0_219_2888)">
<path d="M238.881 179.084L239.666 183.997C239.666 183.997 241.057 188.954 236.1 190.345C231.143 191.735 229.443 185.677 229.443 185.677C229.443 185.677 226.729 178.121 224.855 175.676C222.98 173.232 220.797 169.685 220.797 169.685L215.658 159.839C215.658 159.839 209.658 149.046 209.9 147.79C210.142 146.534 216.992 143.423 216.992 143.423C216.992 143.423 218.645 142.96 219.968 145.559C221.292 148.158 231.261 166.749 231.261 166.749L238.671 178.335" fill="#EBEBEB"/>
<g filter="url(#filter0_d_219_2888)">
<path d="M240.081 179.127C240.081 179.127 244.225 183.311 249.578 181.215C254.931 179.118 279.628 173.971 279.628 173.971C279.628 173.971 284.034 172.734 288.884 177.315C288.884 177.315 290.981 182.668 293.184 182.049C295.387 181.431 295.212 185.045 293.715 186.059C292.217 187.074 293.695 190.224 295.502 190.311C297.309 190.398 299.405 195.751 296.96 197.625C294.515 199.499 299.211 203.529 299.211 203.529C299.211 203.529 303.665 208.815 315.231 205.569C323.492 203.251 326.06 225.107 326.06 225.107L354.845 319.219L366.219 359.755L381.292 409.234L392.217 441.816C392.217 441.816 393.762 443.087 393.753 447.29C393.744 451.493 398.11 460.933 398.11 460.933L403.239 479.212C403.239 479.212 394.88 476.716 397.131 482.619C394.841 485.044 390.986 486.126 389.111 483.682C387.237 481.237 384.02 480.357 384.792 483.111C385.565 485.865 381.111 480.579 382.039 483.884C382.966 487.188 380.84 491.997 380.138 488.606C379.435 485.214 382.443 498.029 377.506 495.256C372.569 492.482 373.623 485.651 368.135 483.032C362.647 480.413 359.517 477.727 359.806 482.993C360.095 488.259 362.235 492.708 360.1 495.684C357.964 498.66 349.925 503.886 350.388 505.539C350.852 507.191 344.041 501.973 342.301 504.243C340.562 506.514 330.561 511.102 326.088 509.981C321.614 508.86 316.348 509.149 315.797 509.304C315.247 509.458 311.237 509.989 310.686 510.144C310.135 510.299 304.406 508.936 302.357 510.105C300.309 511.274 297.246 510.945 296.319 507.64L293.361 497.099C293.073 496.074 267.843 414.63 266.761 410.774C265.679 406.919 242.458 332.634 240.671 328.383C238.884 324.131 221.401 266.06 219.768 262.36C218.136 258.659 212.64 249.661 215.229 246.184C215.229 246.184 211.165 246.118 212.422 242.32C213.679 238.521 208.978 234.493 216.534 231.779C224.09 229.064 227.414 223.972 227.434 219.808C227.434 219.808 227.367 217.451 226.111 217.209C224.855 216.967 223.048 216.88 224.236 214.764C225.425 212.648 225.599 209.035 223.88 207.141C222.16 205.247 218.701 205.623 221.542 203.044C224.383 200.464 221.783 201.788 221.32 200.135C220.856 198.483 216.45 199.719 221.339 195.971C226.229 192.223 230.532 188.205 229.655 186.288C228.78 184.377 240.081 179.127 240.081 179.127Z" fill="white"/>
</g>
<path d="M229.824 196.561C229.824 196.561 224.625 199.208 224.055 203.527C223.484 207.846 225.606 204.82 228.17 204.428C230.733 204.035 252.211 198.002 253.4 195.887C254.588 193.771 260.096 192.225 256.462 196.215C252.829 200.205 241.109 202.9 238.664 204.774C236.219 206.649 232.606 206.474 230.557 207.643C228.509 208.812 226.906 208.668 226.906 208.668C226.906 208.668 224.856 216.967 229.503 214.474C234.46 213.083 271.979 204.932 271.979 204.932C271.979 204.932 283.913 200.395 286.365 200.895C288.816 201.396 291.652 198.818 292.599 197.958C293.546 197.098 296.058 197.581 294.473 200.402C292.888 203.224 290.485 199.739 269.579 207.388C247.769 213.508 239.088 214.755 237.194 216.475C237.194 216.475 230.827 217.074 228.382 218.948C227.677 218.552 227.831 219.102 227.831 219.102L225.89 214.3L225.291 207.933L223.437 201.324L229.824 196.561Z" fill="#542323"/>
<path d="M230.677 196.321C230.677 196.321 251.196 188.627 255.38 188.421C259.564 188.216 263.389 187.683 264.823 186.122C266.257 184.561 288.7 178.751 288.846 178.763C288.992 178.776 288.527 177.118 287.425 177.427C286.324 177.736 267.923 182.305 266.739 183.232C265.555 184.158 263.965 186.981 252.332 187.869C241.867 190.805 231.007 194.447 231.007 194.447L228.098 194.669L230.666 196.325L230.677 196.321Z" fill="#542323"/>
<path d="M290.146 183.139C290.146 183.139 295.258 184.141 290.214 187.339C285.17 190.536 280.455 190.671 273.826 196.69C267.197 202.709 263.98 201.83 263.98 201.83C263.98 201.83 266.028 200.661 269.507 196.12C272.986 191.579 276.532 189.395 280.233 187.763C283.933 186.13 290.055 183.111 290.146 183.139Z" fill="#542323"/>
<path d="M222.4 237.857C222.4 237.857 293.428 222.085 311.951 209.758C311.951 209.758 285.214 230.926 222.4 237.857Z" fill="#542323"/>
<path d="M286.867 230.462C286.867 230.462 295.898 264.763 299.317 272.716C302.737 280.668 311.816 321.491 314.859 325.984C314.859 325.984 316.273 292.911 311.462 280.002C311.462 280.002 304.103 241.072 300.992 234.222C297.882 227.371 291.883 216.578 286.867 230.462Z" fill="#BCB2B2"/>
<path d="M225.008 251.384C225.008 251.384 238.965 307.474 252.334 338.182C252.334 338.182 260.284 372.864 266.021 386.957C271.758 401.05 278.956 424.583 282.993 434.739C287.031 444.894 291.803 466.132 295.706 471.572C299.609 477.012 301.753 488.887 307.415 487.892C313.077 486.898 335.155 487.238 346.605 475.113C358.056 462.988 361.987 479.114 362.181 471.336C362.375 463.558 350.877 469.161 349.775 469.47C348.674 469.78 336.121 482.214 331.252 481.798C326.382 481.382 318.343 486.608 314.265 484.782C310.188 482.955 304.506 488.114 304.855 480.887C304.855 480.887 299.232 473.553 298.237 467.891C295.832 461.436 292.769 461.108 293.494 457.339C294.219 453.571 282.617 431.28 282.791 427.666C282.965 424.052 277.053 411.452 276.851 404.38C276.649 397.307 266.727 385.238 266.988 379.817C267.25 374.397 256.931 363.033 257.078 348.733C257.224 334.433 247.147 321.814 246.085 313.794C245.023 305.774 237.478 289.474 237.411 287.116C237.344 284.759 235.025 276.497 233.103 267.531C231.182 258.564 229.54 248.924 227.426 250.706C225.312 252.487 225.008 251.384 225.008 251.384Z" fill="#542323"/>
<path d="M358.831 481.632C358.831 481.632 360.074 488.264 358.272 490.671C356.47 493.078 353.847 496.987 350.076 496.779C346.305 496.572 344.823 495.717 341.297 498.607C337.771 501.498 338.383 503.827 332.948 500.932C327.508 498.038 325.206 494.24 320.531 497.459C315.855 500.678 307.163 505.019 302.478 499.352C297.793 493.686 295.244 491.229 293.264 484.174C291.284 477.118 287.983 465.354 285.594 459.044C283.206 452.733 284.348 447.974 281.875 443.588C279.403 439.202 278.472 429.702 272.885 423.024C272.885 423.024 277.524 443.538 278.928 446.317C280.331 449.096 283.054 461.022 284.617 464.392C286.181 467.761 288.67 483.704 290.812 486.911C292.954 490.119 293.85 506.651 297.544 508.787C301.239 510.923 302.653 509.017 310.038 508.846C317.422 508.675 319.931 500.551 328.811 510.114C328.811 510.114 341.082 507.264 344.252 501.622C343.69 501.78 356.021 496.983 357.551 494.688C358.967 492.556 361.088 489.632 360.625 487.985L358.844 481.635L358.831 481.632Z" fill="#542323"/>
<path d="M268.671 356.174C268.671 356.174 272.42 361.064 273.521 360.755C274.623 360.446 274.865 359.19 273.696 357.141C272.527 355.093 268.96 352.968 267.647 352.523C266.334 352.077 264.768 350.734 262.324 352.608C259.879 354.483 260.565 359.043 260.874 360.145C261.183 361.246 265.153 369.044 267.82 370.078C270.487 371.112 276.787 368.156 277.492 368.552C278.197 368.949 281.26 369.277 279.984 373.2C279.984 373.2 277.774 380.95 271.894 375.47C266.393 369.884 275.297 384.021 279.018 378.224C279.018 378.224 284.699 373.065 281.811 369.123C278.922 365.18 275.618 366.108 274.516 366.417C273.415 366.726 268.612 368.668 266.738 366.223C264.864 363.778 260.961 358.338 263.096 355.362C263.096 355.362 262.72 351.903 266.952 354.28C266.952 354.28 267.657 354.677 268.671 356.174Z" fill="#542323"/>
<path d="M273.668 346.454C273.668 346.454 278.942 361.015 282.536 365.354C286.13 369.692 286.439 370.794 288.951 371.277C291.463 371.761 293.599 368.785 292.981 366.582C292.363 364.379 291.709 363.172 292.584 363.622C293.459 364.071 296.131 365.104 297.696 366.447C299.261 367.79 301.948 364.66 302.035 362.853C302.122 361.046 303.774 360.583 306.75 362.718C309.726 364.854 310.054 361.791 310.692 359.83C311.33 357.868 310.799 353.858 312.519 355.752C314.238 357.646 313.755 360.158 315.166 360.951C316.576 361.743 318.074 360.729 317.147 357.424C316.22 354.12 314.847 351.344 315.113 350.176C315.379 349.008 315.728 341.781 319.476 346.671C319.476 346.671 319.508 348.901 320.385 349.909C321.262 350.917 323.312 349.753 322.23 345.898C321.148 342.043 318.482 341.008 317.535 341.868C316.588 342.728 314.385 343.346 313.901 345.858C313.592 344.757 310.066 342.776 310.355 348.042L311.437 351.897C311.437 351.897 310.104 358.01 308.947 359.03C307.789 360.05 306.837 360.911 305.668 358.863C304.499 356.814 302.49 349.655 301.63 348.708C300.77 347.761 298.413 347.828 298.084 350.891C297.755 353.954 301.417 360.65 301.417 360.65C301.417 360.65 300.121 368.737 297.474 363.539C294.827 358.34 293.282 352.833 292.422 351.886C291.562 350.939 289.204 351.006 288.721 353.518C288.238 356.03 291.039 361.78 291.039 361.78C291.039 361.78 292.101 369.799 290.691 369.007C289.28 368.214 288.951 371.277 284.981 363.48C281.01 355.682 276.885 347.333 276.576 346.232C276.267 345.13 274.306 344.493 273.668 346.454Z" fill="#542323"/>
<path d="M292.235 374.515C292.786 374.36 294.835 373.191 294.835 373.191L293.888 374.051C293.888 374.051 293.646 375.307 294.351 375.703C295.057 376.1 295.211 376.65 295.211 376.65L296.487 372.728C296.487 372.728 297.743 372.969 298.448 373.366L299.859 374.158L300.893 371.491C300.893 371.491 299.724 369.443 300.738 370.941C301.753 372.438 302.613 373.385 302.613 373.385L292.235 374.515Z" fill="#542323"/>
<path d="M306.642 368.689L307.329 371.14L309.532 370.522C309.532 370.522 311.135 365.646 311.289 366.197C311.444 366.748 312.407 368.783 312.389 369.418C312.371 370.052 313.919 365.406 313.919 365.406C313.919 365.406 315.608 366.768 315.763 367.318C315.917 367.869 316.777 368.816 316.777 368.816C316.777 368.816 317.502 365.048 318.053 364.893C318.604 364.739 318.671 367.096 319.222 366.942L321.425 366.324C321.425 366.324 320.961 364.671 321.512 364.517C322.063 364.362 322.701 362.401 323.01 363.502C323.319 364.604 324.73 365.396 324.179 365.551C323.628 365.705 321.821 365.618 321.821 365.618L321.667 365.068L306.642 368.689Z" fill="#542323"/>
<path d="M332.386 360.224L333.871 359.861L333.224 360.393L333.836 362.574L333.147 363.634L336.142 361.606L336.075 359.248C336.075 359.248 338.227 360.967 338.205 360.7C338.184 360.433 337.949 361.693 337.949 361.693L339.447 360.678L340.239 359.268L339.38 358.321C339.38 358.321 340.017 356.359 340.877 357.306C341.737 358.253 342.201 359.906 342.201 359.906L342.839 357.944L343.853 359.442C343.853 359.442 346.936 355.606 345.747 357.722C344.558 359.838 332.22 360.33 332.22 360.33L332.388 360.229L332.386 360.224Z" fill="#542323"/>
<path d="M323.9 341.27L326.98 371.3C326.98 371.3 330.728 376.19 330.681 369.668C330.633 363.146 328.469 355.435 328.711 354.179C328.952 352.923 334.749 356.643 335.803 349.812C336.857 342.981 335.149 339.011 332.521 338.114C329.893 337.218 329.562 340.275 328.306 340.034C327.05 339.792 326.29 338.799 326.29 338.799C326.29 338.799 324.229 338.207 323.9 341.27Z" fill="#542323"/>
<path d="M333.205 351.135C333.205 351.135 327.205 356.449 327.85 344.35C327.85 344.35 328.848 340.244 330.939 340.073C333.03 339.902 334.017 345.56 334.085 347.918C334.152 350.276 333.205 351.135 333.205 351.135Z" fill="white"/>
<path d="M340.291 336.689C340.291 336.689 337.448 334.498 340.135 331.368C342.821 328.237 341.835 337.426 344.656 339.011C347.477 340.596 350.037 347.601 348.694 349.166C347.351 350.731 340.5 353.842 338.955 348.334C337.409 342.827 341.337 340.435 340.967 336.725C340.598 333.02 340.291 336.689 340.291 336.689Z" fill="#542323"/>
<path d="M341.593 338.683C341.593 338.683 346.134 342.161 346.047 343.968C345.96 345.775 344.066 347.495 342.346 345.601C340.626 343.707 341.351 339.939 341.593 338.683Z" fill="white"/>
<path d="M397.536 455.472C397.536 455.472 397.101 464.506 408.532 456.545C420.89 451.889 430.562 450.364 432.214 449.9C433.866 449.436 438.157 448.232 442.913 442.739C445.607 442.577 445.848 441.321 450.429 436.471L461.27 429.585C461.27 429.585 465.036 429.33 471.284 433.554C477.531 437.778 482.159 439.45 481.917 440.706C481.675 441.962 489.057 442.861 492.053 440.833C495.048 438.804 503.512 443.558 503.405 449.53C501.25 456.67 496.622 454.998 501.25 456.67C505.878 458.342 515.569 452.652 521.192 459.986C528.158 465.755 529.018 466.702 523.954 474.064C523.954 474.064 511.953 486.343 515.856 491.783C519.759 497.223 520.512 504.142 513.459 500.18C506.406 496.217 508.387 492.691 497.178 503.56C484.974 508.767 480.722 510.554 478.848 508.109C476.974 505.664 488.144 503.124 489.796 502.661C491.448 502.197 490.057 497.24 490.057 497.24C490.057 497.24 485.41 499.733 482.965 501.607C480.52 503.481 463.185 513.692 455.32 515.305C455.32 515.305 453.097 520.088 454.817 521.982C456.537 523.876 447.966 525.092 445.918 526.261C443.869 527.43 408.157 535.669 405.988 537.466C403.819 539.263 391.486 542.973 390.456 541.949C389.426 540.925 385.132 536.189 377.422 538.352C369.711 540.516 365.083 538.844 362.504 536.003C362.504 536.003 359.373 533.317 348.754 535.702C338.135 538.088 329.169 540.01 326.879 542.435C324.589 544.86 327.014 547.15 327.014 547.15C327.014 547.15 327.969 561.141 316.704 550.637C316.704 550.637 316.688 544.231 305.198 553.04C292.74 555.222 297.205 553.138 292.268 550.364C287.331 547.591 286.123 553.871 280.151 553.764C274.18 553.657 252.836 564.4 244.768 558.94C236.701 553.48 232.168 564.852 227.077 561.528C221.985 558.204 219.695 560.629 217.666 557.633C215.637 554.638 218.082 552.763 212.024 554.463C205.965 556.163 193.801 553.041 185.722 566.597C177.643 580.152 168.696 577.91 168.696 577.91C168.696 577.91 173.74 574.712 167.064 574.209C160.387 573.706 161.489 573.397 155.498 577.454C149.507 581.512 131.399 588.969 127.322 587.143C123.245 585.316 86.2093 590.956 121.43 570.379C121.43 570.379 127.952 570.331 127.266 565.77C126.581 561.21 135.567 555.123 156.187 548.149C174.69 539.986 187.821 538.084 188.063 536.828C188.305 535.572 188.392 533.765 185.416 531.629C182.44 529.494 179.928 529.01 181.996 523.677C184.065 518.344 186.24 507.039 187.67 503.667C189.1 500.295 190.193 485.135 193.121 480.749C196.049 476.363 197.567 471.184 191.75 471.628C186.417 469.56 178.591 462.844 197.202 448.71C197.202 448.71 202.777 449.522 202.816 441.193C202.855 432.864 203.358 426.188 208.799 422.285C214.239 418.382 219.283 415.184 223.253 422.982C227.224 430.78 231.562 427.186 230.818 435.118C230.073 443.051 227.771 464.491 225.152 469.979C222.533 475.467 217.807 494.617 217.807 494.617L212.974 519.738C212.974 519.738 202.981 539.177 218.664 529.429C234.346 519.682 218.287 525.97 234.695 512.454C249.565 508.282 284.659 497.84 284.659 497.84C284.659 497.84 287.084 500.13 288.582 499.116C290.08 498.101 291.336 498.343 291.577 497.087C291.819 495.831 293.586 504.247 293.586 504.247L300.929 513.475L308.794 511.862L321.132 511.37L342.747 510.058L359.289 501.258L363.136 485.325L369.175 487.789L372.285 494.64L387.707 490.313L394.645 485.395L402.529 479.618C405.375 477.435 402.84 475.176 401.269 471.951L401.733 473.603L400.251 463.028L396.499 457.153L397.536 455.472Z" fill="#E0C8C8"/>
<path d="M183.957 524.318C183.957 524.318 180.868 528.131 185.113 528.437C189.358 528.743 187.693 533.209 189.693 533.028C191.692 532.847 194.43 536.232 194.43 536.232L208.286 530.562L216.241 493.276L223.674 466.831C223.674 466.831 229.704 441.743 229.193 439.92C228.681 438.097 227.928 431.178 227.928 431.178C227.928 431.178 221.929 420.385 218.711 419.506C215.494 418.626 208.865 424.645 208.073 426.056C207.28 427.466 204.729 435.312 204.323 438.099C203.917 440.887 200.074 450.716 197.645 451.481C195.216 452.246 198.392 466.445 196.968 467.32C195.544 468.195 198.588 479.972 196.21 480.562C193.833 481.152 183.958 524.323 183.958 524.323L183.957 524.318Z" fill="#542323"/>
<path d="M199.384 452.257C199.384 452.257 198.668 470.876 198.426 472.132C198.184 473.388 201.691 479.534 205.74 470.674C209.79 461.814 208.371 446.171 211.347 448.307C214.322 450.442 212.853 462.143 212.678 465.757C212.504 469.37 219.636 456.675 222.12 446.472C224.604 436.269 223.475 425.892 223.475 425.892C223.475 425.892 223.098 422.432 218.625 421.311C214.151 420.19 210.122 424.885 208.121 432.576C206.12 440.267 199.384 452.257 199.384 452.257Z" fill="white"/>
<path d="M201.807 488.413C201.807 488.413 194.734 488.616 199.033 493.35C203.332 498.085 203.581 494.736 203.581 494.736L201.807 488.413Z" fill="white"/>
<path d="M212.592 467.564L192.557 533.787L194.431 536.231L212.926 468.754L212.592 467.564Z" fill="white"/>
<path d="M138.194 564.488C138.194 564.488 148.9 560.296 146.63 558.557C144.359 556.817 137.616 553.957 138.194 564.488Z" fill="#542323"/>
<path d="M169.963 559.137C169.963 559.137 171.809 550.301 176.824 553.647C181.838 556.993 171.925 559.775 169.963 559.137Z" fill="#542323"/>
<path d="M170.523 573.834C170.523 573.834 169.683 568.723 174.156 569.844C178.63 570.965 179.571 574.319 174.684 575.958C169.796 577.597 169.643 577.051 170.523 573.834Z" fill="#542323"/>
<path d="M176.008 564.06C176.008 564.06 180.191 557.456 182.771 560.297C185.35 563.138 184.316 565.804 185.418 565.495C186.519 565.186 181.234 569.64 179.272 569.002C177.769 568.515 176.141 566.738 175.753 564.886C175.631 564.326 175.624 563.752 175.775 563.21C176.407 560.888 176.012 564.053 176.012 564.053L176.008 564.06Z" fill="#542323"/>
<path d="M191.732 558.376C191.732 558.376 189.239 553.728 192.993 549.11C192.993 549.11 196.876 549.185 198.038 553.327C199.201 557.469 191.732 558.376 191.732 558.376Z" fill="#542323"/>
<path d="M203.472 551.516L201.494 544.467C201.494 544.467 207.028 545.896 209.139 548.803C211.25 551.71 206.274 557.266 203.472 551.516Z" fill="#542323"/>
<path d="M218.122 553.775C218.391 553.866 218.961 549.547 218.961 549.547L225.43 551.724C225.43 551.724 225.725 548.243 228.411 545.113C231.098 541.982 231.791 542.335 234.222 544.647C236.653 546.959 241.697 543.761 238.171 541.78C234.644 539.799 226.4 537.395 229.034 537.529C231.668 537.663 235.169 533.71 237.308 535.784C239.446 537.857 241.572 541.705 239.895 545.004C238.218 548.302 235.29 552.688 233.967 550.089C232.643 547.49 230.165 554.685 229.299 555.243C228.434 555.801 224.806 559.789 222.536 558.05C220.265 556.31 218.122 553.775 218.122 553.775Z" fill="#542323"/>
<path d="M243.52 546.025C243.52 546.025 251.282 544.043 251.455 541.761C251.629 539.478 248.789 539.395 247.463 538.354C246.137 537.312 243.257 545.107 243.257 545.107L243.515 546.027L243.52 546.025Z" fill="#542323"/>
<path d="M262.166 537.757C262.166 537.757 258.682 528.071 266.824 532.737C274.965 537.404 260.774 534.322 262.166 537.757Z" fill="#542323"/>
<path d="M274.56 530.561C274.56 530.561 265.423 528.787 268.748 523.696C272.072 518.604 270.139 526.092 275.638 527.905C281.138 529.719 278.633 523.375 282.572 523.417C286.511 523.458 286.907 522.753 285.274 519.052C283.642 515.351 285.845 514.733 288.028 518.279C290.211 521.826 294.469 520.019 292.65 522.027C290.831 524.034 285.805 523.062 286.578 525.816C287.351 528.57 286.558 529.98 283.892 528.946C281.225 527.912 282.11 530.028 280.785 532.188C279.46 534.348 279.504 530.712 277.412 530.437C275.321 530.163 274.563 530.554 274.563 530.554L274.56 530.561Z" fill="#542323"/>
<path d="M290.956 528.751C290.956 528.751 295.778 522.645 296.657 519.428C297.537 516.21 299.68 515.591 300.044 519.957C300.407 524.323 300.009 525.022 297.84 526.819C295.671 528.616 293.108 526.959 293.561 528.02C294.013 529.081 290.956 528.751 290.956 528.751Z" fill="#542323"/>
<path d="M252.986 516.237L250.474 515.753C250.474 515.753 254.112 512.861 255.552 514.287C256.992 515.713 252.986 516.237 252.986 516.237Z" fill="#542323"/>
<path d="M267.768 513.869C267.768 513.869 260.812 511.163 268.588 509.825C276.364 508.486 274.596 511.205 277.726 508.324C280.857 505.443 278.945 507.055 281.081 506.218C283.216 505.381 289.925 506.464 286.439 508.63C282.953 510.796 278.215 510.129 276.961 512.371C275.706 514.612 270.303 515.32 269.867 514.361C269.432 513.402 267.774 513.867 267.774 513.867L267.768 513.869Z" fill="#542323"/>
<path d="M304.579 539.188C304.424 538.638 294.48 532.843 299.661 533.308C304.842 533.773 305.47 530.211 306.556 534.867C307.643 539.523 308.463 542.655 305.739 540.253C303.015 537.851 304.58 539.194 304.58 539.194L304.579 539.188Z" fill="#542323"/>
<path d="M311.716 524.583C310.151 525.147 307.417 521.755 310.635 522.635C313.852 523.514 313.887 520.314 315.084 523.056C316.281 525.797 311.722 524.582 311.722 524.582L311.716 524.583Z" fill="#542323"/>
<path d="M320.474 524.437C321.099 519.699 321.203 519.539 323.936 520.026C326.669 520.513 320.453 523.814 321.889 526.791C323.325 529.769 324.033 533.776 320.616 531.444C317.199 529.111 314.735 525.858 316.878 525.447C319.02 525.036 320.468 524.439 320.468 524.439L320.474 524.437Z" fill="#542323"/>
<path d="M317.428 546.871C317.428 546.871 320.685 539.421 323.419 542.813C326.153 546.205 326.704 546.05 325.979 549.818C325.254 553.587 322.654 554.91 320.626 551.915C318.597 548.919 316.703 550.639 317.428 546.871Z" fill="#542323"/>
<path d="M328.502 531.287L331.275 526.35C331.275 526.35 335.709 525.7 333.943 529.76C332.177 533.82 329.607 535.225 329.131 533.529L328.502 531.287Z" fill="#542323"/>
<path d="M340.739 527.473C340.739 527.473 338.268 522.605 342.989 523.063C347.71 523.521 346.071 526.191 343.267 526.763C340.463 527.336 340.734 527.474 340.734 527.474L340.739 527.473Z" fill="#542323"/>
<path d="M342.741 535.02C342.741 535.02 342.033 526.165 346.364 525.912C350.696 525.659 350.74 531.154 351.07 528.602C351.399 526.05 353.719 525.274 352.731 522.052C351.742 518.824 348.614 516.505 352.969 518.07C357.323 519.634 354.898 521.366 358.183 522.595C361.469 523.824 360.912 523.107 362.257 521.975C363.603 520.843 363.735 518.75 366.333 520.831C368.931 522.912 370.859 526.798 369.71 523.127C368.562 519.457 367.306 519.216 369.441 516.24C371.577 513.264 371.818 512.008 375.036 512.888C378.253 513.767 376.19 516.556 379.418 516.625C382.645 516.694 381.934 516.299 384.601 517.333C387.268 518.367 389.074 518.454 388.611 516.802C388.147 515.15 386.895 512.846 389.681 514.286C392.466 515.72 395.394 511.334 393.568 515.411C391.741 519.488 389.209 523.169 387.886 520.57C386.562 517.971 386.871 519.072 386.234 521.034C385.596 522.995 382.483 524.861 382.483 524.861L377.285 524.121C377.285 524.121 380.053 520.267 376.733 522.155C373.413 524.043 373.587 520.429 373.568 524.594C373.548 528.758 372.316 530.72 370.927 530.005C369.538 529.289 365.837 530.922 365.837 530.922C365.837 530.922 363.704 533.505 361.677 530.705C359.65 527.905 361.693 526.738 359.644 527.907C357.596 529.076 356.978 526.873 354.137 529.452C351.296 532.032 353.682 531.665 348.434 533.286C343.185 534.908 342.746 535.037 342.746 535.037L342.741 535.02Z" fill="#542323"/>
<path d="M367.132 537.676C366.668 536.024 367.306 532.791 367.591 531.268C367.877 529.744 367.427 528.29 370.509 531.78C373.586 535.271 377.941 540.204 373.285 538.433C368.63 536.662 367.132 537.676 367.132 537.676Z" fill="#542323"/>
<path d="M377.992 534.036C379.026 531.369 381.403 526.46 383.761 526.731C386.118 527.002 384.137 530.529 386.649 531.012C389.161 531.495 390.35 529.379 393.326 531.515C396.302 533.651 397.625 536.25 394.871 537.023C392.118 537.795 392.649 541.805 390.378 540.066C388.108 538.326 385.786 536.043 384.36 536.425C382.934 536.807 381.57 536.264 380.489 535.545C379.408 534.826 377.997 534.034 377.997 534.034L377.992 534.036Z" fill="#542323"/>
<path d="M413.342 515.209C413.342 515.209 415.027 510.459 416.921 510.284C418.814 510.109 420.012 510.967 419.907 513.367C419.802 515.767 417.08 516.4 416.084 516.151C415.087 515.902 413.342 515.209 413.342 515.209Z" fill="#542323"/>
<path d="M435.094 493.962L436.924 500.483C436.924 500.483 442.088 500.656 444.394 497.906C446.698 495.15 446.549 505.589 446.549 505.589C446.549 505.589 449.264 499.023 449.318 497.606C449.372 496.188 448.929 495.713 448.179 493.547C447.428 491.381 448.923 491.585 446.489 490.765C444.055 489.945 439.37 489.721 439.37 489.721L435.099 493.961L435.094 493.962Z" fill="#542323"/>
<path d="M381.556 503.182C381.556 503.182 375.31 500.912 379.97 497.531C384.63 494.15 441.032 447.429 441.032 447.429L461.276 429.587C461.276 429.587 483.991 435.374 483.662 438.437C483.333 441.5 481.709 452.65 481.709 452.65L405.46 516.466C405.46 516.466 401.954 520.658 400.117 517.965C398.28 515.272 381.556 503.182 381.556 503.182Z" fill="#542323"/>
<path d="M398.421 509.231L380.507 500.653L400.395 516.264L480.709 446.988L480.485 442.191L401.516 508.363L400.378 510.256L398.421 509.231Z" fill="white"/>
<path d="M499.596 457.135L475.779 459.065L445.847 484.093L515.419 483.987L525.93 468.472C525.93 468.472 526.042 454.663 500.48 456.388C474.917 458.113 499.594 457.129 499.594 457.129L499.596 457.135Z" fill="#542323"/>
<path d="M469.264 472.473L504.972 468.9L507.873 469.666L510.415 478.726L464.551 482.696L513.804 483.075L525.822 467.446L524.16 465.928L514.953 477.453L509.457 466.845L515.932 460.275C515.932 460.275 507.342 465.656 505.38 465.018C503.419 464.381 469.264 472.473 469.264 472.473Z" fill="white"/>
<path d="M472.518 417.798L472.461 428.033L473.108 409.315L479.031 402.9L561.071 417.903C561.071 417.903 563.565 416.205 563.105 425.151L562.518 444.232C562.518 444.232 562.669 447.161 558.905 445.246L480.082 429.934L473.251 428.881L472.518 417.798Z" fill="#542323"/>
<path d="M479.495 404.552L478.517 428.591L480.082 429.934L482.634 422.089L482.316 406.137L479.976 403.068L479.495 404.552Z" fill="white"/>
<path d="M317.091 216.686C317.091 216.686 335.828 304.355 342.402 318.255C348.975 332.154 361.633 371.1 365.194 379.452C368.749 387.8 376.615 430.824 382.163 439.925C387.712 449.027 391.687 433.658 386.674 425.256C381.66 416.854 333.299 234.471 317.097 216.684L317.091 216.686Z" fill="#542323"/>
<path d="M361.993 414.032C361.993 414.032 364.456 438.033 347.516 448.127L330.577 458.222C330.577 458.222 373.859 448.4 361.993 414.032Z" fill="#542323"/>
<path d="M348.016 363.948L355.764 394.843L357.795 396.703C357.795 396.703 352.182 368.465 348.017 363.953L348.016 363.948Z" fill="#542323"/>
<path d="M296.124 510.119L291.662 516.683C291.662 516.683 291.405 518.199 294.937 517.279C298.469 516.359 301.827 516.023 304.393 516.485C306.958 516.948 311.553 517.613 311.553 517.613C311.553 517.613 314.261 514.643 317.21 516.026C320.158 517.408 324.479 517.859 324.479 517.859L329.822 516.36C329.822 516.36 344.813 518.083 346.288 515.061C347.763 512.039 351.86 509.701 356.112 507.914C360.363 506.127 365.752 508.542 366.287 506.128C366.818 503.721 369.509 498.849 369.509 498.849C369.509 498.849 370.76 500.833 369.128 497.132C367.495 493.431 368.265 488.106 367.911 491.948C367.557 495.79 365.684 497.564 365.237 499.145C364.789 500.726 363.533 500.484 361.485 501.653C359.436 502.822 358.848 503.563 357.051 505.268C355.254 506.972 352.498 507.74 349.503 509.768C346.507 511.797 347.5 512.053 343.504 513.204C339.508 514.355 337.304 515.33 335.968 514.636C334.632 513.941 331.377 511.866 329.743 512.925C328.109 513.983 329.329 515.833 326.087 515.056C322.845 514.278 320.167 515.915 317.891 514.919C315.616 513.924 315.181 513.541 313.822 514.475C312.462 515.409 310.622 516.009 309.465 515.698C308.308 515.386 305.791 514.905 304.535 514.663C303.279 514.421 299.665 514.247 298.564 514.556C297.462 514.865 297.539 515.141 297.192 513.901L296.13 510.118L296.124 510.119Z" fill="#542323"/>
<path d="M284.659 497.842L292.172 496.031L295.625 505.162C295.625 505.162 295.778 512.166 301.825 510.362C307.872 508.558 308.552 509.52 309.069 509.987C309.586 510.454 316.653 508.281 318.11 509.155C319.567 510.029 322.717 508.551 326.089 509.982C329.461 511.412 341.114 506.36 342.303 504.244C343.492 502.128 349.458 505.67 349.458 505.67C349.458 505.67 351.579 504.95 352.844 502.343C354.109 499.737 358.695 495.925 359.553 496.356C360.41 496.786 359.486 484.112 359.829 481.567C360.173 479.023 365.527 478.626 370.444 484.714C375.361 490.803 374.58 492.804 376.337 493.499C378.095 494.194 380.569 489.989 380.132 488.602C379.696 487.216 381.217 482.03 383.729 482.513C386.241 482.997 388.444 482.379 388.135 481.277C387.826 480.175 388.094 482.572 390.661 483.586C393.227 484.601 392.522 484.205 392.058 482.553C391.594 480.9 389.875 479.007 392.85 481.142C395.826 483.278 395.947 484.408 395.194 481.364C394.441 478.319 393.575 477.374 396.242 478.408C398.909 479.442 400.01 479.133 400.252 477.877C400.493 476.621 403.412 478.363 402.688 479.065C401.964 479.767 390.613 488.965 390.613 488.965L383.282 491.551L372.273 494.64L369.512 487.531L363.124 485.325L359.277 501.257L342.734 510.058L300.916 513.475L284.646 497.84L284.659 497.842Z" fill="#542323"/>
</g>
<g clip-path="url(#clip1_219_2888)">
<path d="M666.339 174.756L664.507 179.382C664.507 179.382 663.175 184.355 658.202 183.022C653.229 181.69 654.858 175.612 654.858 175.612C654.858 175.612 656.378 167.728 656.013 164.67C655.648 161.611 655.579 157.447 655.579 157.447L656.182 146.356C656.182 146.356 656.529 134.013 657.377 133.056C658.226 132.099 665.705 132.918 665.705 132.918C665.705 132.918 667.363 133.363 667.175 136.273C666.987 139.184 666.078 160.26 666.078 160.26L666.54 174.005" fill="#EBEBEB"/>
<g filter="url(#filter1_d_219_2888)">
<path d="M667.348 175.406C667.348 175.406 668.778 181.12 674.451 182.048C680.125 182.976 703.992 191.147 703.992 191.147C703.992 191.147 708.413 192.332 710.247 198.746C710.247 198.746 709.319 204.419 711.53 205.011C713.74 205.603 711.746 208.622 709.941 208.731C708.135 208.839 707.799 212.303 709.309 213.299C710.818 214.296 709.89 219.969 706.832 220.334C703.773 220.699 705.756 226.56 705.756 226.56C705.756 226.56 706.89 233.378 718.493 236.487C726.781 238.708 717.84 258.816 717.84 258.816L694.585 354.445L683.688 395.112L671.41 445.357L664.184 478.954C664.184 478.954 664.864 480.836 662.712 484.446C660.561 488.056 659.5 498.402 659.5 498.402L654.586 516.741C654.586 516.741 648.67 510.329 647.594 516.555C644.388 517.473 640.52 516.436 640.155 513.377C639.79 510.319 637.472 507.921 636.731 510.683C635.991 513.446 634.857 506.628 633.969 509.943C633.08 513.258 628.798 516.31 629.925 513.035C631.051 509.76 627.1 522.316 624.269 517.412C621.437 512.508 625.829 507.17 622.445 502.118C619.061 497.066 617.739 493.158 615.301 497.835C612.864 502.512 612.434 507.43 609.079 508.9C605.724 510.37 596.144 510.764 595.699 512.421C595.255 514.079 592.059 506.116 589.405 507.182C586.75 508.247 575.808 507.092 572.533 503.845C569.257 500.599 564.58 498.161 564.028 498.013C563.475 497.865 559.755 496.276 559.203 496.128C558.65 495.98 554.418 491.885 552.06 491.845C549.701 491.805 547.235 489.96 548.123 486.645L550.957 476.069C551.232 475.042 571.082 392.121 572.118 388.253C573.155 384.386 591.079 308.648 591.711 304.08C592.343 299.512 606.932 240.647 607.415 236.631C607.899 232.615 607.763 222.073 611.764 220.403C611.764 220.403 608.302 218.273 611.321 215.647C614.34 213.021 612.352 207.159 620.235 208.679C628.119 210.199 633.575 207.516 635.717 203.944C635.717 203.944 636.862 201.882 635.904 201.033C634.947 200.185 633.438 199.188 635.54 197.974C637.641 196.761 639.635 193.742 639.122 191.236C638.609 188.729 635.442 187.288 639.201 186.519C642.961 185.75 640.05 185.562 640.494 183.905C640.938 182.247 636.518 181.063 642.636 180.333C648.753 179.603 654.504 178.343 654.728 176.247C654.95 174.157 667.348 175.406 667.348 175.406Z" fill="white"/>
</g>
<path d="M649.632 185.168C649.632 185.168 643.81 184.793 641.116 188.216C638.422 191.64 641.791 190.12 644.196 191.09C646.601 192.06 668.151 197.829 670.253 196.616C672.355 195.402 677.88 196.883 672.719 198.461C667.559 200.039 656.104 196.377 653.045 196.742C649.986 197.107 646.967 195.114 644.609 195.074C642.25 195.034 640.945 194.092 640.945 194.092C640.945 194.092 634.948 200.184 640.217 200.412C645.19 201.744 681.618 213.874 681.618 213.874C681.618 213.874 694.197 216.06 696.05 217.741C697.904 219.422 701.657 218.651 702.911 218.395C704.164 218.138 706.078 219.836 703.275 221.453C700.473 223.071 700.183 218.848 678.301 214.762C656.42 208.899 648.318 205.543 645.812 206.056C645.812 206.056 640.03 203.322 636.971 203.687C636.566 202.987 636.418 203.539 636.418 203.539L637.198 198.418L639.932 192.637L641.709 186.006L649.632 185.168Z" fill="#542323"/>
<path d="M650.489 185.397C650.489 185.397 672.062 189.247 675.766 191.204C679.47 193.162 683.031 194.655 685.061 194.044C687.09 193.433 709.357 199.885 709.477 199.97C709.596 200.056 710.041 198.393 708.936 198.097C707.831 197.8 689.674 192.343 688.183 192.536C686.692 192.728 683.884 194.345 673.426 189.174C662.928 186.361 651.729 183.952 651.729 183.952L649.114 182.659L650.478 185.394L650.489 185.397Z" fill="#542323"/>
<path d="M708.361 204.399C708.361 204.399 712.246 207.868 706.276 208.045C700.307 208.223 696.183 205.933 687.411 207.728C678.639 209.523 676.32 207.125 676.32 207.125C676.32 207.125 678.678 207.165 683.987 205.034C689.296 202.903 693.46 202.835 697.475 203.318C701.491 203.802 708.297 204.329 708.361 204.399Z" fill="#542323"/>
<path d="M622.18 216.897C622.18 216.897 691.316 239.568 713.536 238.415C713.536 238.415 679.741 242.981 622.18 216.897Z" fill="#542323"/>
<path d="M681.399 243.424C681.399 243.424 671.667 277.534 670.551 286.118C669.436 294.702 656.418 334.445 656.743 339.862C656.743 339.862 674.831 312.137 677.279 298.58C677.279 298.58 690.81 261.344 691.63 253.865C692.449 246.385 692.796 234.042 681.399 243.424Z" fill="#BCB2B2"/>
<path d="M617.521 229.862C617.521 229.862 600.91 285.224 596.743 318.456C596.743 318.456 585.887 352.341 583.632 367.388C581.376 382.436 575.561 406.349 573.853 417.143C572.145 427.937 565.414 448.638 565.996 455.308C566.577 461.978 562.363 473.285 567.741 475.318C573.118 477.351 591.933 488.907 607.968 484.32C624.002 479.734 619.156 495.609 623.291 489.018C627.425 482.428 614.677 481.381 613.572 481.085C612.467 480.788 595.328 485.079 591.352 482.237C587.376 479.395 577.795 479.789 575.22 476.138C572.645 472.487 565.126 474.025 569.113 467.987C569.113 467.987 568.018 458.811 570.051 453.434C571.275 446.655 568.809 444.81 571.355 441.939C573.901 439.068 575.294 413.976 577.288 410.957C579.281 407.938 580.624 394.085 584.058 387.898C587.492 381.712 585.116 366.27 588.106 361.741C591.096 357.213 588.019 342.175 595.44 329.951C602.861 317.726 600.632 301.731 603.81 294.292C606.988 286.853 608.815 268.984 609.96 266.922C611.104 264.86 613.325 256.571 616.246 247.879C619.168 239.186 622.674 230.058 619.947 230.512C617.219 230.966 617.521 229.862 617.521 229.862Z" fill="#542323"/>
<path d="M615.158 496.167C615.158 496.167 612.844 502.505 610.066 503.656C607.288 504.807 603.038 506.83 599.9 504.728C596.762 502.626 595.924 501.134 591.417 501.821C586.91 502.509 586.248 504.824 583.051 499.562C579.848 494.298 579.806 489.857 574.142 490.24C568.479 490.623 558.789 489.922 557.65 482.658C556.511 475.395 555.572 471.981 557.468 464.903C559.365 457.825 562.527 446.023 563.692 439.376C564.857 432.73 568.267 429.22 568.378 424.186C568.489 419.153 572.535 410.507 571.137 401.912C571.137 401.912 564.661 421.923 564.451 425.029C564.241 428.135 560.498 439.782 560.124 443.478C559.749 447.173 553.757 462.155 553.963 466.007C554.168 469.858 546.505 484.534 548.593 488.256C550.681 491.978 552.87 491.06 559.308 494.68C565.747 498.301 572.049 492.593 574.808 505.348C574.808 505.348 586.816 509.158 592.421 505.922C591.857 505.771 604.91 507.936 607.397 506.743C609.702 505.631 613.018 504.198 613.46 502.546L615.167 496.175L615.158 496.167Z" fill="#542323"/>
<path d="M601.617 342.266C601.617 342.266 602.346 348.383 603.451 348.679C604.556 348.975 605.405 348.018 605.445 345.66C605.484 343.302 603.5 339.655 602.598 338.602C601.696 337.549 601.035 335.596 597.976 335.96C594.917 336.325 593.18 340.597 592.884 341.703C592.588 342.808 592.025 351.54 593.791 353.79C595.557 356.039 602.484 356.711 602.888 357.412C603.293 358.112 605.759 359.958 602.661 362.681C602.661 362.681 596.806 368.218 594.544 360.506C592.663 352.895 593.109 369.596 599.266 366.509C599.266 366.509 606.785 364.97 606.312 360.106C605.838 355.241 602.523 354.353 601.418 354.057C600.313 353.761 595.192 352.981 594.827 349.922C594.463 346.863 593.881 340.193 597.236 338.723C597.236 338.723 598.677 335.556 601.104 339.759C601.104 339.759 601.508 340.46 601.617 342.266Z" fill="#542323"/>
<path d="M610.871 336.455C610.871 336.455 607.979 351.669 608.857 357.234C609.734 362.799 609.438 363.904 611.352 365.602C613.266 367.299 616.621 365.829 617.213 363.619C617.805 361.409 617.859 360.037 618.382 360.87C618.905 361.703 620.677 363.955 621.337 365.908C621.998 367.862 625.906 366.54 626.903 365.031C627.899 363.521 629.557 363.965 631.027 367.32C632.497 370.675 634.342 368.209 635.891 366.847C637.44 365.486 639.029 361.766 639.542 364.272C640.055 366.778 638.358 368.692 639.167 370.094C639.976 371.495 641.781 371.386 642.67 368.071C643.558 364.756 643.793 361.668 644.618 360.8C645.443 359.931 649.43 353.893 650.159 360.01C650.159 360.01 649.049 361.946 649.289 363.259C649.529 364.573 651.886 364.619 652.922 360.751C653.958 356.883 652.192 354.633 650.939 354.89C649.686 355.146 647.476 354.554 645.779 356.468C646.075 355.363 644.052 351.86 641.615 356.537L640.579 360.404C640.579 360.404 636.314 364.982 634.798 365.269C633.282 365.556 632.023 365.811 632.063 363.453C632.103 361.094 634.027 353.911 633.771 352.658C633.515 351.405 631.452 350.26 629.607 352.727C627.762 355.193 627.495 362.821 627.495 362.821C627.495 362.821 622.255 369.115 622.63 363.294C623.006 357.472 624.486 351.947 624.23 350.694C623.973 349.441 621.911 348.296 620.214 350.21C618.517 352.124 617.993 358.498 617.993 358.498C617.993 358.498 614.815 365.938 614.006 364.536C613.197 363.135 611.352 365.602 611.915 356.87C612.478 348.137 613.19 338.853 613.486 337.747C613.782 336.642 612.42 335.093 610.871 336.455Z" fill="#542323"/>
<path d="M612.527 370.061C613.08 370.209 615.438 370.249 615.438 370.249L614.185 370.506C614.185 370.506 613.336 371.463 613.74 372.163C614.145 372.864 613.997 373.416 613.997 373.416L617.095 370.693C617.095 370.693 618.052 371.542 618.457 372.242L619.266 373.644L621.516 371.878C621.516 371.878 621.555 369.519 621.664 371.325C621.772 373.131 622.029 374.384 622.029 374.384L612.527 370.061Z" fill="#542323"/>
<path d="M627.889 372.4L627.231 374.859L629.441 375.451C629.441 375.451 633.306 372.075 633.158 372.628C633.01 373.18 632.801 375.422 632.461 375.959C632.122 376.495 635.824 373.289 635.824 373.289C635.824 373.289 636.582 375.322 636.434 375.874C636.286 376.427 636.542 377.68 636.542 377.68C636.542 377.68 639.088 374.809 639.641 374.957C640.193 375.105 639.049 377.167 639.601 377.315L641.811 377.907C641.811 377.907 642.255 376.25 642.808 376.398C643.36 376.546 644.91 375.184 644.614 376.289C644.318 377.394 645.126 378.796 644.574 378.647C644.021 378.499 642.512 377.503 642.512 377.503L642.66 376.95L627.889 372.4Z" fill="#542323"/>
<path d="M654.35 378.254L655.812 378.699L654.984 378.827L654.398 381.015L653.264 381.576L656.876 381.359L658.02 379.297C658.02 379.297 658.994 381.873 659.112 381.632C659.23 381.392 658.385 382.356 658.385 382.356L660.191 382.247L661.592 381.438L661.335 380.185C661.335 380.185 662.885 378.824 663.141 380.077C663.398 381.33 662.953 382.988 662.953 382.988L664.503 381.626L664.611 383.432C664.611 383.432 669.219 381.705 667.117 382.919C665.016 384.132 654.153 378.261 654.153 378.261L654.348 378.26L654.35 378.254Z" fill="#542323"/>
<path d="M656.721 357.622L644.05 385.022C644.05 385.022 644.78 391.139 648.066 385.506C651.352 379.872 653.425 372.136 654.273 371.179C655.122 370.222 658.21 376.38 662.601 371.042C666.992 365.704 667.549 361.418 665.746 359.306C663.943 357.194 662.099 359.655 661.142 358.807C660.185 357.958 660.038 356.717 660.038 356.717C660.038 356.717 658.567 355.156 656.721 357.622Z" fill="#542323"/>
<path d="M659.688 370.856C659.688 370.856 651.816 372.365 658.544 362.288C658.544 362.288 661.497 359.266 663.383 360.185C665.268 361.105 663.231 366.475 662.086 368.538C660.942 370.6 659.688 370.856 659.688 370.856Z" fill="white"/>
<path d="M673.154 362.045C673.154 362.045 671.827 358.711 675.735 357.389C679.642 356.067 674.106 363.467 675.724 366.269C677.342 369.071 675.97 376.403 674.016 377.063C672.062 377.724 664.583 376.905 666.064 371.379C667.544 365.854 672.142 365.801 673.717 362.421C675.29 359.046 673.154 362.045 673.154 362.045Z" fill="#542323"/>
<path d="M673.258 364.423C673.258 364.423 675.389 369.732 674.392 371.241C673.395 372.751 670.889 373.264 670.376 370.757C669.863 368.251 672.409 365.38 673.258 364.423Z" fill="white"/>
<path d="M661.79 493.412C661.79 493.412 656.807 500.96 670.699 499.944C683.704 502.245 692.801 505.867 694.459 506.311C696.116 506.755 700.42 507.908 707.314 505.61C709.713 506.845 710.562 505.888 716.975 504.053L729.813 503.661C729.813 503.661 733.182 505.364 736.4 512.184C739.619 519.003 742.746 522.803 741.897 523.76C741.049 524.717 746.939 529.256 750.55 529.039C754.162 528.822 759.016 537.229 755.877 542.311C750.381 547.352 747.254 543.553 750.381 547.352C753.509 551.151 764.747 551.202 765.841 560.378C768.89 568.893 769.146 570.147 761.035 573.895C761.035 573.895 744.448 578.334 745.03 585.004C745.611 591.674 742.73 598.009 738.685 591.003C734.64 583.997 738.143 581.974 722.957 585.604C709.805 583.857 705.237 583.225 704.872 580.166C704.507 577.107 715.41 580.621 717.067 581.065C718.725 581.509 720.057 576.536 720.057 576.536C720.057 576.536 714.788 576.309 711.73 576.674C708.671 577.038 688.552 576.977 680.965 574.352C680.965 574.352 676.613 577.332 677.126 579.838C677.639 582.344 669.647 579.018 667.289 578.979C664.93 578.939 630.012 567.806 627.23 568.245C624.447 568.684 611.947 565.583 611.584 564.177C611.22 562.771 609.944 556.507 602.208 554.434C594.473 552.361 591.345 548.562 590.576 544.803C590.576 544.803 589.254 540.895 578.904 537.53C568.554 534.164 559.861 531.243 556.654 532.16C553.447 533.078 554.365 536.284 554.365 536.284C554.365 536.284 548.049 548.805 543.719 534.024C543.719 534.024 546.974 528.506 532.597 530.221C520.769 525.743 525.672 526.227 522.841 521.323C520.01 516.419 515.766 521.204 510.685 518.066C505.604 514.928 481.766 513.278 477.612 504.467C473.459 495.655 463.759 503.124 461.076 497.667C458.393 492.21 455.186 493.128 454.969 489.516C454.752 485.905 457.811 485.54 451.733 483.912C445.655 482.283 436.786 473.392 422.922 480.929C409.058 488.466 402.507 481.973 402.507 481.973C402.507 481.973 408.476 481.796 402.991 477.958C397.505 474.119 398.61 474.415 391.387 474.848C384.165 475.282 364.786 472.458 362.211 468.807C359.636 465.156 324.906 451.113 365.696 451.383C365.696 451.383 371.33 454.669 373.067 450.397C374.804 446.124 385.638 445.474 406.93 449.995C427.009 452.414 439.273 457.477 440.122 456.52C440.971 455.563 441.967 454.053 440.497 450.698C439.028 447.343 437.114 445.646 441.613 442.114C446.113 438.582 453.751 429.969 456.701 427.799C459.651 425.628 468.326 413.147 473.082 410.868C477.838 408.589 481.785 404.909 476.555 402.324C473.024 397.824 469.719 388.055 492.936 385.393C492.936 385.393 497.317 388.936 501.6 381.793C505.883 374.649 509.721 369.164 516.391 368.582C523.061 368.001 529.031 367.823 528.468 376.556C527.905 385.288 533.47 384.41 528.782 390.853C524.095 397.296 511.178 414.562 506.125 417.946C501.073 421.33 487.239 435.389 487.239 435.389L470.266 454.529C470.266 454.529 451.754 466.151 470.215 465.768C488.677 465.385 471.656 462.601 492.663 459.346C507.582 463.344 543.092 472.266 543.092 472.266C543.092 472.266 544.01 475.473 545.815 475.365C547.621 475.257 548.578 476.105 549.427 475.148C550.275 474.191 547.502 482.331 547.502 482.331L549.109 494.014L556.697 496.639L567.56 502.511L586.819 512.409L605.537 513.279L616.974 501.538L620.91 506.738L620.091 514.218L635.562 518.363L644.037 517.673L653.766 516.727C657.327 516.301 656.299 513.064 656.594 509.49L656.15 511.147L660.27 501.295L660.04 494.329L661.79 493.412Z" fill="#E0C8C8"/>
<path d="M442.974 443.664C442.974 443.664 438.372 445.369 441.867 447.797C445.362 450.226 441.652 453.218 443.464 454.082C445.275 454.947 445.903 459.254 445.903 459.254L460.714 461.446L486.577 433.436L506.461 414.483C506.461 414.483 524.447 395.982 524.937 394.153C525.427 392.324 528.309 385.989 528.309 385.989C528.309 385.989 528.655 373.646 526.337 371.248C524.018 368.85 515.246 370.645 513.845 371.454C512.444 372.263 506.247 377.709 504.476 379.899C502.704 382.09 494.385 388.584 491.905 388.002C489.426 387.421 484.914 401.254 483.243 401.28C481.572 401.306 478.181 412.988 475.835 412.282C473.49 411.577 442.973 443.67 442.973 443.67L442.974 443.664Z" fill="#542323"/>
<path d="M493.006 389.559C493.006 389.559 482.891 405.207 482.042 406.164C481.193 407.121 481.074 414.196 489.077 408.642C497.079 403.087 503.84 388.909 505.309 392.264C506.779 395.619 499.546 404.932 497.553 407.952C495.559 410.971 508.17 403.69 515.512 396.182C522.853 388.674 527.176 379.172 527.176 379.172C527.176 379.172 528.617 376.005 525.341 372.758C522.066 369.512 516.204 371.495 510.56 377.089C504.916 382.683 493.006 389.559 493.006 389.559Z" fill="white"/>
<path d="M476.645 421.891C476.645 421.891 470.458 418.457 471.741 424.723C473.023 430.988 474.945 428.234 474.945 428.234L476.645 421.891Z" fill="white"/>
<path d="M496.556 409.461L445.539 456.197L445.904 459.256L496.236 410.655L496.556 409.461Z" fill="white"/>
<path d="M383.121 454.868C383.121 454.868 394.468 456.724 393.402 454.07C392.337 451.415 387.996 445.514 383.121 454.868Z" fill="#542323"/>
<path d="M413.176 466.474C413.176 466.474 419.271 459.817 421.877 465.253C424.483 470.689 414.537 468.024 413.176 466.474Z" fill="#542323"/>
<path d="M406.158 479.399C406.158 479.399 408.043 474.574 411.319 477.821C414.594 481.067 413.692 484.432 408.653 483.349C403.614 482.265 403.76 481.718 406.158 479.399Z" fill="#542323"/>
<path d="M415.864 473.791C415.864 473.791 422.831 470.245 423.6 474.005C424.369 477.764 422.119 479.53 423.224 479.826C424.33 480.122 417.511 481.256 416.15 479.707C415.106 478.521 414.612 476.162 415.223 474.372C415.404 473.828 415.691 473.33 416.097 472.942C417.825 471.267 415.871 473.787 415.871 473.787L415.864 473.791Z" fill="#542323"/>
<path d="M432.287 476.926C432.287 476.926 432.514 471.657 438.099 469.6C438.099 469.6 441.401 471.645 440.287 475.8C439.174 479.956 432.287 476.926 432.287 476.926Z" fill="#542323"/>
<path d="M445.884 477.016L447.779 469.943C447.779 469.943 451.81 473.996 452.143 477.573C452.475 481.151 445.361 483.39 445.884 477.016Z" fill="#542323"/>
<path d="M457.331 486.431C457.516 486.647 460.21 483.223 460.21 483.223L464.663 488.396C464.663 488.396 466.693 485.552 470.6 484.23C474.507 482.909 474.924 483.565 475.835 486.794C476.747 490.023 482.716 489.846 480.694 486.343C478.671 482.84 472.807 476.567 475.004 478.026C477.201 479.485 482.229 477.871 483.011 480.745C483.792 483.62 483.657 488.013 480.532 489.995C477.408 491.977 472.651 494.255 472.839 491.345C473.027 488.434 467.224 493.358 466.196 493.396C465.167 493.434 460.012 495.014 458.946 492.36C457.881 489.706 457.331 486.431 457.331 486.431Z" fill="#542323"/>
<path d="M483.129 492.722C483.129 492.722 490.816 494.977 492.129 493.103C493.443 491.228 491.043 489.708 490.434 488.136C489.825 486.563 483.371 491.798 483.371 491.798L483.124 492.721L483.129 492.722Z" fill="#542323"/>
<path d="M503.383 495.123C503.383 495.123 505.328 485.014 509.95 493.181C514.572 501.348 503.939 491.458 503.383 495.123Z" fill="#542323"/>
<path d="M517.715 495.257C517.715 495.257 510.762 489.07 516.219 486.387C521.675 483.704 516.193 489.158 519.998 493.523C523.803 497.889 524.884 491.155 528.251 493.2C531.618 495.245 532.318 494.84 532.802 490.825C533.286 486.809 535.496 487.401 535.565 491.565C535.633 495.729 540.217 496.347 537.628 497.146C535.04 497.944 531.213 494.544 530.473 497.307C529.733 500.07 528.331 500.879 526.565 498.629C524.799 496.379 524.481 498.651 522.239 499.833C519.998 501.015 521.89 497.909 520.232 496.606C518.573 495.303 517.722 495.253 517.722 495.253L517.715 495.257Z" fill="#542323"/>
<path d="M532.741 502.066C532.741 502.066 540.004 499.274 542.402 496.955C544.799 494.637 546.959 495.198 545.044 499.138C543.13 503.078 542.431 503.477 539.648 503.916C536.866 504.355 535.507 501.622 535.355 502.766C535.202 503.909 532.741 502.066 532.741 502.066Z" fill="#542323"/>
<path d="M506.467 471.93L504.553 470.232C504.553 470.232 509.158 469.601 509.669 471.562C510.18 473.523 506.467 471.93 506.467 471.93Z" fill="#542323"/>
<path d="M520.389 477.436C520.389 477.436 515.786 471.56 523.157 474.375C530.528 477.191 527.62 478.627 531.782 477.747C535.945 476.866 533.478 477.277 535.741 477.647C538.005 478.016 543.223 482.37 539.12 482.455C535.017 482.54 531.282 479.549 529.059 480.837C526.837 482.125 521.828 479.977 521.943 478.93C522.057 477.883 520.394 477.437 520.394 477.437L520.389 477.436Z" fill="#542323"/>
<path d="M539.132 517.991C539.28 517.439 533.684 507.382 537.903 510.425C542.121 513.468 544.479 510.724 543.038 515.283C541.598 519.842 540.704 522.954 539.587 519.499C538.47 516.043 539.131 517.997 539.131 517.997L539.132 517.991Z" fill="#542323"/>
<path d="M552.722 509.071C551.089 508.758 550.468 504.446 552.786 506.844C555.105 509.241 556.767 506.507 556.398 509.476C556.029 512.444 552.728 509.072 552.728 509.072L552.722 509.071Z" fill="#542323"/>
<path d="M560.328 513.414C563.283 509.657 563.454 509.573 565.556 511.386C567.658 513.198 560.629 512.866 560.345 516.16C560.06 519.453 558.625 523.262 556.876 519.512C555.127 515.763 554.668 511.707 556.72 512.447C558.773 513.186 560.323 513.412 560.323 513.412L560.328 513.414Z" fill="#542323"/>
<path d="M546.264 531.154C546.264 531.154 552.866 526.408 553.487 530.72C554.108 535.032 554.661 535.18 552.115 538.051C549.569 540.922 546.658 540.735 546.441 537.123C546.225 533.512 543.718 534.025 546.264 531.154Z" fill="#542323"/>
<path d="M563.741 523.401L568.645 520.57C568.645 520.57 572.79 522.272 569.2 524.864C565.61 527.455 562.682 527.352 563.138 525.65L563.741 523.401Z" fill="#542323"/>
<path d="M576.212 526.363C576.212 526.363 576.57 520.916 580.397 523.718C584.224 526.52 581.452 527.98 578.748 527.043C576.044 526.105 576.206 526.362 576.206 526.362L576.212 526.363Z" fill="#542323"/>
<path d="M574.08 533.874C574.08 533.874 577.989 525.896 581.843 527.888C585.698 529.881 582.933 534.63 584.518 532.603C586.104 530.576 588.494 531.092 589.289 527.817C590.085 524.536 588.577 520.946 591.524 524.513C594.471 528.08 591.502 528.333 593.701 531.066C595.9 533.799 595.786 532.898 597.521 532.61C599.256 532.323 600.437 530.591 601.61 533.706C602.783 536.821 602.459 541.147 603.343 537.404C604.228 533.661 603.271 532.813 606.625 531.343C609.98 529.873 610.829 528.916 613.148 531.314C615.466 533.712 612.269 535.058 615.01 536.763C617.75 538.469 617.34 537.767 619.106 540.017C620.872 542.267 622.382 543.263 622.826 541.606C623.27 539.948 623.369 537.327 625.03 539.988C626.694 542.642 631.45 540.363 627.799 542.938C624.148 545.513 620.093 547.388 620.28 544.477C620.468 541.566 620.172 542.671 618.623 544.033C617.073 545.394 613.445 545.411 613.445 545.411L609.351 542.123C609.351 542.123 613.698 540.22 609.88 540.15C606.061 540.08 608.054 537.061 605.913 540.633C603.771 544.205 601.711 545.263 600.881 543.94C600.052 542.616 596.036 542.132 596.036 542.132C596.036 542.132 592.884 543.265 592.568 539.823C592.253 536.381 594.606 536.419 592.247 536.379C589.889 536.34 590.481 534.129 586.722 534.899C582.963 535.668 585.202 536.57 579.861 535.287C574.519 534.004 574.076 533.891 574.076 533.891L574.08 533.874Z" fill="#542323"/>
<path d="M593.703 548.604C594.147 546.946 596.345 544.491 597.368 543.326C598.391 542.161 598.746 540.681 599.617 545.255C600.482 549.828 601.711 556.293 598.61 552.394C595.509 548.496 593.703 548.604 593.703 548.604Z" fill="#542323"/>
<path d="M604.904 551.012C607.154 549.246 611.703 546.236 613.592 547.672C615.481 549.109 611.978 551.131 613.892 552.828C615.807 554.526 617.908 553.312 619.378 556.667C620.848 560.022 620.66 562.933 617.898 562.192C615.135 561.452 613.546 565.172 612.481 562.517C611.415 559.863 610.583 556.715 609.162 556.316C607.741 555.918 606.845 554.754 606.281 553.584C605.718 552.415 604.909 551.013 604.909 551.013L604.904 551.012Z" fill="#542323"/>
<path d="M644.91 552.854C644.91 552.854 648.783 549.628 650.501 550.443C652.219 551.259 652.811 552.608 651.496 554.619C650.182 556.629 647.518 555.785 646.788 555.063C646.058 554.34 644.91 552.854 644.91 552.854Z" fill="#542323"/>
<path d="M674.459 545.677L672.706 552.219C672.706 552.219 677.059 555.002 680.445 553.813C683.833 552.618 678.38 561.521 678.38 561.521C678.38 561.521 684.064 557.258 684.834 556.066C685.603 554.875 685.465 554.24 685.925 551.994C686.384 549.749 687.566 550.687 685.891 548.74C684.215 546.793 680.3 544.21 680.3 544.21L674.464 545.678L674.459 545.677Z" fill="#542323"/>
<path d="M623.707 526.292C623.707 526.292 619.494 521.154 625.226 520.623C630.959 520.092 703.305 508.683 703.305 508.683L729.818 503.664C729.818 503.664 746.403 520.231 744.557 522.697C742.712 525.164 735.627 533.925 735.627 533.925L637.49 549.913C637.49 549.913 632.336 551.73 632.13 548.477C631.924 545.224 623.707 526.292 623.707 526.292Z" fill="#542323"/>
<path d="M635.127 540.101L624.097 523.584L633.237 547.157L737.655 528.547L739.91 524.307L638.233 540.933L636.288 541.981L635.127 540.101Z" fill="white"/>
<path d="M748.724 546.908L727.255 536.418L688.743 542.675L748.634 578.076L765.59 570.094C765.59 570.094 772.731 558.274 749.865 546.717C727 535.159 748.726 546.903 748.726 546.903L748.724 546.908Z" fill="#542323"/>
<path d="M714.81 544.625L747.345 559.769L749.449 561.908L747.013 570.997L705.542 551.013L747.709 576.466L766.019 569.155L765.364 567.001L751.566 572.217L752.251 560.29L761.171 557.942C761.171 557.942 751.038 558.188 749.676 556.639C748.315 555.089 714.81 544.625 714.81 544.625Z" fill="white"/>
<path d="M745.502 499.261L740.232 508.034L750.337 492.265L758.705 489.77L821.612 544.527C821.612 544.527 824.623 544.339 819.664 551.798L809.424 567.911C809.424 567.911 808.06 570.506 805.8 566.939L745.817 513.558L740.479 509.167L745.502 499.261Z" fill="#542323"/>
<path d="M758.261 491.429L745.156 511.606L745.817 513.559L752.014 508.113L759.879 494.231L759.431 490.398L758.261 491.429Z" fill="white"/>
<path d="M714.421 246.996C714.421 246.996 685.811 331.958 684.374 347.266C682.937 362.575 673.955 402.528 672.757 411.529C671.555 420.522 656.372 461.539 656.501 472.197C656.63 482.856 667.889 471.666 667.864 461.882C667.838 452.098 719.288 270.562 714.427 246.998L714.421 246.996Z" fill="#542323"/>
<path d="M652.363 439.638C652.363 439.638 642.237 461.537 622.518 461.577L602.798 461.617C602.798 461.617 645.036 475.25 652.363 439.638Z" fill="#542323"/>
<path d="M665.894 389.431L656.797 419.955L657.594 422.591C657.594 422.591 667.173 395.441 665.892 389.436L665.894 389.431Z" fill="#542323"/>
<path d="M546.69 488.677L539.504 492.045C539.504 492.045 538.509 493.218 542.016 494.229C545.524 495.24 548.583 496.663 550.554 498.37C552.525 500.076 556.137 502.993 556.137 502.993C556.137 502.993 559.981 501.82 561.812 504.513C563.643 507.207 567.129 509.799 567.129 509.799L572.489 511.235C572.489 511.235 584.504 520.365 587.314 518.518C590.125 516.672 594.841 516.751 599.41 517.383C603.978 518.015 607.381 522.841 609.072 521.038C610.756 519.239 615.556 516.421 615.556 516.421C615.556 516.421 615.621 518.766 616.105 514.75C616.589 510.734 619.967 506.546 617.703 509.67C615.438 512.795 612.923 513.364 611.731 514.496C610.54 515.627 609.583 514.779 607.224 514.739C604.866 514.699 603.982 515.037 601.567 515.586C599.152 516.135 596.39 515.389 592.779 515.606C589.168 515.823 589.891 516.55 585.867 515.501C581.842 514.452 579.449 514.166 578.655 512.888C577.861 511.609 576.119 508.163 574.174 508.24C572.228 508.317 572.334 510.531 569.942 508.208C567.55 505.885 564.412 505.927 562.963 503.91C561.513 501.893 561.335 501.342 559.689 501.451C558.043 501.561 556.155 501.138 555.319 500.28C554.482 499.423 552.563 497.724 551.606 496.875C550.649 496.026 547.63 494.033 546.525 493.737C545.42 493.441 545.346 493.717 545.679 492.474L546.696 488.678L546.69 488.677Z" fill="#542323"/>
<path d="M543.094 472.268L550.479 474.543L548.791 484.158C548.791 484.158 545.35 490.26 551.471 491.794C557.592 493.327 557.686 494.501 557.893 495.167C558.099 495.832 565.285 497.568 566.093 499.063C566.9 500.559 570.363 500.895 572.534 503.845C574.704 506.795 587.304 508.395 589.406 507.182C591.508 505.968 594.833 512.059 594.833 512.059C594.833 512.059 597.024 512.521 599.442 510.925C601.86 509.328 607.749 508.389 608.267 509.197C608.785 510.005 614.455 498.632 616.049 496.619C617.642 494.606 622.45 496.996 623.573 504.741C624.696 512.486 623.003 513.809 624.16 515.303C625.317 516.798 629.59 514.443 629.922 513.028C630.254 511.612 634.208 507.928 636.122 509.626C638.036 511.323 640.246 511.915 640.542 510.81C640.838 509.705 639.847 511.903 641.536 514.085C643.226 516.267 642.821 515.566 643.265 513.908C643.709 512.251 643.197 509.745 644.666 513.099C646.136 516.454 645.664 517.488 646.569 514.486C647.474 511.483 647.212 510.228 648.978 512.478C650.744 514.728 651.849 515.024 652.698 514.067C653.547 513.11 655.169 516.097 654.188 516.332C653.207 516.566 638.752 518.686 638.752 518.686L631.127 517.17L620.082 514.211L621.334 506.688L616.965 501.532L605.529 513.272L586.811 512.402L549.101 494.007L543.084 472.26L543.094 472.268Z" fill="#542323"/>
</g>
<g clip-path="url(#clip2_219_2888)">
<path d="M462.93 54.374L462.157 61.051C462.157 61.051 462.157 68.0061 455.202 68.0061C448.247 68.0061 448.247 59.5054 448.247 59.5054C448.247 59.5054 447.474 48.6862 445.928 44.8222C444.383 40.9582 442.837 35.5487 442.837 35.5487L439.746 20.8655C439.746 20.8655 435.882 4.63678 436.655 3.09119C437.428 1.54559 447.474 0 447.474 0C447.474 0 449.792 0 450.565 3.86399C451.338 7.72797 457.52 35.5487 457.52 35.5487L462.93 53.323" fill="#F0F0F0"/>
<g filter="url(#filter2_d_219_2888)">
<path d="M464.476 54.8691C464.476 54.8691 468.34 61.8243 476.067 61.0515C483.795 60.2787 517.799 62.5971 517.799 62.5971C517.799 62.5971 523.981 62.5971 528.618 70.3251C528.618 70.3251 529.39 78.0531 532.482 78.0531C535.573 78.0531 534.027 82.6898 531.709 83.4626C529.39 84.2354 530.163 88.8722 532.482 89.645C534.8 90.4178 535.573 98.1458 531.709 99.6914C527.845 101.237 532.482 108.192 532.482 108.192C532.482 108.192 536.346 116.693 552.574 116.693C564.166 116.693 559.53 146.059 559.53 146.059L562.621 278.98V335.858L564.166 405.719L566.485 452.087C566.485 452.087 568.03 454.305 566.485 459.768C564.939 465.232 567.173 479.104 567.173 479.104V504.753C567.173 504.753 557.211 498.455 557.984 506.955C554.12 509.274 548.71 509.274 547.165 505.41C545.619 501.546 541.755 499.227 541.755 503.091C541.755 506.955 537.891 498.455 537.891 503.091C537.891 507.728 533.37 513.207 533.695 508.54C534.02 503.872 533.254 521.639 527.845 516.229C522.435 510.819 526.299 502.319 520.117 496.909C513.935 491.5 510.843 486.863 509.298 493.818C507.752 500.773 508.911 507.342 505.047 510.433C501.183 513.524 488.819 517.388 488.819 519.707C488.819 522.025 481.863 512.751 478.772 515.07C475.681 517.388 460.998 519.707 455.588 516.615C450.179 513.524 443.224 511.979 442.451 511.979C441.678 511.979 436.268 511.206 435.496 511.206C434.723 511.206 427.768 507.342 424.676 508.115C421.585 508.887 417.721 507.342 417.721 502.705V487.914C417.721 486.476 414.63 371.33 414.63 365.92C414.63 360.51 411.539 255.41 410.766 249.228C409.993 243.045 408.448 161.129 407.675 155.719C406.902 150.31 403.038 136.6 407.675 133.022C407.675 133.022 402.412 131.453 405.434 126.971C408.455 122.489 403.811 115.534 414.63 114.761C425.449 113.988 431.632 108.579 433.177 103.169C433.177 103.169 433.95 100.078 432.404 99.305C430.859 98.5322 428.54 97.7594 430.859 95.441C433.177 93.1226 434.723 88.4858 433.177 85.3946C431.632 82.3034 426.995 81.5306 431.632 79.2122C436.268 76.8939 432.404 77.6667 432.404 75.3483C432.404 73.0299 426.222 73.0299 433.95 69.9387C441.678 66.8475 448.741 63.1922 448.301 60.3792C447.86 57.5739 464.476 54.8691 464.476 54.8691Z" fill="white"/>
</g>
<path d="M444.77 73.8027C444.77 73.8027 437.042 75.3483 434.723 80.7579C432.405 86.1675 436.269 83.0067 439.747 83.4318C443.224 83.8568 473.363 83.8491 475.682 81.5307C478 79.2123 485.728 79.2123 479.546 83.0763C473.363 86.9403 457.134 86.1675 453.27 87.7131C449.406 89.2587 444.77 87.7131 441.679 88.4859C438.587 89.2587 436.555 88.4859 436.555 88.4859C436.555 88.4859 430.859 98.5322 437.815 96.9866C444.77 96.9866 496.547 100.078 496.547 100.078C496.547 100.078 513.726 98.5322 516.733 100.078C519.739 101.623 524.368 99.305 525.913 98.5322C527.459 97.7594 530.55 99.305 527.459 102.396C524.368 105.487 522.513 100.078 492.529 102.396C461.926 102.396 450.179 100.851 447.088 102.396C447.088 102.396 438.587 100.851 434.723 102.396C433.951 101.623 433.951 102.396 433.951 102.396L433.178 95.4411L434.723 86.9403V77.6667L444.77 73.8027Z" fill="#542323"/>
<path d="M445.966 73.8012C445.966 73.8012 475.464 71.2819 480.981 72.5415C486.499 73.8012 491.669 74.5044 494.104 72.9975C496.538 71.4905 527.852 72.1242 528.037 72.1938C528.223 72.2633 528.223 69.9372 526.677 69.9372C525.131 69.9372 499.529 69.1644 497.651 69.9372C495.773 70.71 492.674 73.8012 477.218 70.71C462.535 70.71 447.079 71.4828 447.079 71.4828L443.215 70.71L445.951 73.8012H445.966Z" fill="#542323"/>
<path d="M528.131 78.3615C528.131 78.3615 534.414 81.5299 526.686 83.8483C518.958 86.1667 512.776 84.6211 501.957 90.0307C491.137 95.4403 487.273 93.1219 487.273 93.1219C487.273 93.1219 490.365 92.3491 496.547 87.7123C502.729 83.0755 508.139 81.5299 513.549 80.7571C518.958 79.9843 528.023 78.2919 528.131 78.3615Z" fill="#542323"/>
<path d="M420.039 124.807C420.039 124.807 518.184 130.217 546.778 120.943C546.778 120.943 504.274 138.718 420.039 124.807Z" fill="#542323"/>
<path d="M506.594 138.718C506.594 138.718 505.821 186.631 507.366 198.223C508.912 209.815 505.821 266.229 508.139 273.184C508.139 273.184 522.05 230.681 520.504 212.133C520.504 212.133 525.141 158.81 523.595 148.764C522.05 138.718 518.186 122.489 506.594 138.718Z" fill="#BCB2B2"/>
<path d="M418.494 143.355C418.494 143.355 416.176 221.407 422.358 266.23C422.358 266.23 420.04 314.243 422.358 334.668C424.677 355.094 425.449 388.332 426.995 403.015C428.541 417.698 426.995 447.064 430.086 455.565C433.177 464.066 431.632 480.294 439.36 481.067C447.088 481.84 475.681 490.341 495.001 478.749C514.321 467.157 513.548 489.568 516.639 479.522C519.731 469.475 502.729 472.566 501.183 472.566C499.638 472.566 478.772 484.158 472.59 481.84C466.408 479.522 454.043 483.386 449.406 479.522C444.769 475.658 435.496 480.294 438.587 471.021C438.587 471.021 433.95 459.429 434.723 451.701C433.95 442.427 430.086 440.882 432.405 436.245C434.723 431.608 427.768 398.378 429.313 393.741C430.859 389.104 427.768 370.557 430.086 361.284C432.405 352.01 423.904 332.69 426.222 325.735C428.541 318.78 419.267 300.233 424.677 281.686C430.086 263.138 421.585 243.046 423.131 232.227C424.677 221.407 420.813 197.451 421.585 194.359C422.358 191.268 422.358 179.676 423.131 167.312C423.904 154.947 425.287 141.809 421.887 143.355C418.486 144.9 418.494 143.355 418.494 143.355Z" fill="#542323"/>
<path d="M508.526 491.692C508.526 491.692 507.722 500.773 504.5 503.245C501.277 505.718 496.439 509.845 491.609 508.199C486.779 506.553 485.164 504.899 479.523 507.372C473.881 509.845 473.827 513.099 467.815 507.349C461.795 501.599 460.187 495.819 452.931 498.3C445.674 500.78 432.784 503.253 428.758 494.173C424.732 485.092 422.313 480.966 422.313 471.066C422.313 461.167 422.313 444.66 421.509 435.579C420.705 426.499 423.928 420.726 422.313 414.119C420.698 407.511 422.954 394.814 418.124 384.088C418.124 384.088 416.671 412.465 417.483 416.592C418.294 420.718 417.483 437.225 418.286 442.179C419.09 447.133 416.509 468.779 418.124 473.732C419.739 478.686 414.871 500.518 418.897 504.644C422.923 508.771 425.458 506.808 435.126 509.281C444.793 511.754 451.022 502.102 459.082 517.782C459.082 517.782 476.084 518.555 482.266 512.372C481.478 512.372 499.268 510.633 502.096 508.207C504.716 505.95 508.541 502.921 508.541 500.61V491.7L508.526 491.692Z" fill="#542323"/>
<path d="M437.041 295.594C437.041 295.594 440.132 303.322 441.678 303.322C443.224 303.322 443.996 301.777 443.224 298.685C442.451 295.594 438.587 291.529 437.041 290.471C435.496 289.412 433.95 287.093 430.086 288.639C426.222 290.185 425.449 296.367 425.449 297.913C425.449 299.458 427.768 311.05 430.859 313.369C433.95 315.687 443.224 314.141 443.996 314.914C444.769 315.687 448.633 317.233 445.542 321.869C445.542 321.869 439.839 331.143 434.19 321.869C429.074 312.596 435.496 334.234 442.451 328.052C442.451 328.052 451.724 323.415 449.406 317.233C447.088 311.05 442.451 311.05 440.905 311.05C439.36 311.05 432.404 311.823 430.859 307.959C429.313 304.095 426.222 295.594 430.086 292.503C430.086 292.503 430.859 287.866 435.496 292.503C435.496 292.503 436.268 293.276 437.041 295.594Z" fill="#542323"/>
<path d="M447.088 284.776C447.088 284.776 448.633 305.642 451.725 312.597C454.816 319.552 454.816 321.097 457.907 322.643C460.998 324.189 464.862 321.097 464.862 318.006C464.862 314.915 464.453 313.107 465.426 314.011C466.4 314.915 469.499 317.233 471.045 319.552C472.59 321.87 477.227 318.779 478 316.461C478.773 314.142 481.091 314.142 484.182 318.006C487.273 321.87 488.819 318.006 490.365 315.688C491.91 313.369 492.683 307.96 494.229 311.051C495.774 314.142 494.229 317.233 495.774 318.779C497.32 320.325 499.638 319.552 499.638 314.915C499.638 310.278 498.865 306.167 499.638 304.745C500.411 303.323 503.502 294.05 506.593 301.778C506.593 301.778 505.82 304.691 506.593 306.322C507.366 307.952 510.457 307.187 510.457 301.778C510.457 296.368 507.366 294.05 505.82 294.822C504.275 295.595 501.184 295.595 499.638 298.686C499.638 297.141 495.774 293.277 494.229 300.232V305.642C494.229 305.642 490.264 313.107 488.386 314.011C486.508 314.915 484.955 315.688 484.182 312.597C483.409 309.506 483.409 299.459 482.637 297.914C481.864 296.368 478.773 295.595 477.227 299.459C475.681 303.323 478 313.369 478 313.369C478 313.369 473.363 323.416 471.817 315.688C470.272 307.96 470.272 300.232 469.499 298.686C468.726 297.141 465.635 296.368 464.089 299.459C462.544 302.55 464.089 311.051 464.089 311.051C464.089 311.051 462.544 321.87 460.998 320.325C459.453 318.779 457.907 322.643 455.589 311.051C453.27 299.459 450.952 287.094 450.952 285.549C450.952 284.003 448.633 282.458 447.088 284.776Z" fill="#542323"/>
<path d="M460.998 328.054C461.771 328.054 464.862 327.281 464.862 327.281L463.316 328.054C463.316 328.054 462.544 329.6 463.316 330.373C464.089 331.145 464.089 331.918 464.089 331.918L467.18 327.281C467.18 327.281 468.726 328.054 469.499 328.827L471.044 330.373L473.363 327.281C473.363 327.281 472.59 324.19 473.363 326.509C474.136 328.827 474.908 330.373 474.908 330.373L460.998 328.054Z" fill="#542323"/>
<path d="M481.863 325.734V329.173H484.954C484.954 329.173 488.818 323.416 488.818 324.189C488.818 324.961 489.329 327.96 489.073 328.779C488.818 329.598 492.528 324.119 492.528 324.119C492.528 324.119 494.228 326.507 494.228 327.28C494.228 328.053 495.001 329.598 495.001 329.598C495.001 329.598 497.319 324.961 498.092 324.961C498.865 324.961 498.092 328.053 498.865 328.053H501.956C501.956 328.053 501.956 325.734 502.729 325.734C503.502 325.734 505.047 323.416 505.047 324.961C505.047 326.507 506.593 328.053 505.82 328.053C505.047 328.053 502.729 327.28 502.729 327.28V326.507L481.863 325.734Z" fill="#542323"/>
<path d="M518.441 324.119L520.504 324.189L519.468 324.645V327.705L518.186 328.833L522.822 327.288L523.595 324.197C523.595 324.197 525.767 327.218 525.836 326.863C525.906 326.507 525.141 328.061 525.141 328.061L527.459 327.288L529.005 325.742L528.232 324.197C528.232 324.197 529.778 321.878 530.55 323.424C531.323 324.969 531.323 327.288 531.323 327.288L532.869 324.969L533.641 327.288C533.641 327.288 539.051 323.424 536.733 325.742C534.414 328.061 518.186 324.197 518.186 324.197L518.441 324.127V324.119Z" fill="#542323"/>
<path d="M514.32 296.368L507.365 336.553C507.365 336.553 510.456 344.281 512.775 335.78C515.093 327.28 515.093 316.46 515.866 314.915C516.639 313.369 522.821 320.324 526.685 311.824C530.549 303.323 529.776 297.535 526.685 295.409C523.594 293.284 522.048 297.141 520.503 296.368C518.957 295.595 518.331 294.026 518.331 294.026C518.331 294.026 515.866 292.504 514.32 296.368Z" fill="#542323"/>
<path d="M522.821 312.597C522.821 312.597 513.076 317.319 518.331 301.817C518.331 301.817 521.128 296.84 523.91 297.381C526.693 297.922 525.912 305.642 525.139 308.733C524.366 311.825 522.821 312.597 522.821 312.597Z" fill="white"/>
<path d="M537.311 296.39C537.311 296.39 534.413 292.503 539.05 289.412C543.687 286.321 539.05 297.913 542.141 301.004C545.233 304.095 546.005 314.141 543.687 315.687C541.369 317.232 531.322 318.778 531.322 311.05C531.322 303.322 537.304 301.645 538.177 296.684C539.05 291.73 537.311 296.39 537.311 296.39Z" fill="#542323"/>
<path d="M538.278 299.459C538.278 299.459 542.915 305.641 542.142 307.96C541.37 310.278 538.278 311.824 536.733 308.733C535.187 305.641 537.506 301.005 538.278 299.459Z" fill="white"/>
<path d="M568.417 471.793C568.417 471.793 564.553 483.385 582.327 477.202C600.102 475.657 613.239 477.202 615.558 477.202C617.876 477.202 623.896 477.202 632.088 471.793C635.65 472.565 636.423 471.02 644.151 466.383L660.766 461.383C660.766 461.383 665.758 462.426 672.343 470.201C678.927 477.975 684.336 481.839 683.564 483.385C682.791 484.93 692.064 488.794 696.701 487.249C701.338 485.703 710.612 494.977 708.293 502.705C702.884 511.205 697.474 507.341 702.884 511.205C708.293 515.069 722.976 511.205 727.613 522.797C734.568 532.844 735.341 534.389 726.068 542.117C726.068 542.117 705.975 553.709 709.066 562.21C712.157 570.711 710.612 579.984 702.884 572.256C695.156 564.528 699.02 560.664 680.473 570.711C662.698 573.029 656.516 573.802 654.97 569.938C653.425 566.074 668.881 566.847 671.199 566.847C673.517 566.847 673.517 559.892 673.517 559.892C673.517 559.892 666.562 561.437 662.698 562.983C658.834 564.528 632.559 571.483 621.74 570.711C621.74 570.711 617.103 576.12 618.649 579.211C620.194 582.303 608.602 580.757 605.511 581.53C602.42 582.303 552.961 579.984 549.483 581.53C546.006 583.075 528.61 583.4 527.644 581.692C526.678 579.984 522.822 572.256 512.003 572.256C501.184 572.256 495.774 568.392 493.456 563.756C493.456 563.756 490.364 559.119 475.681 558.346C460.998 557.573 448.633 556.8 444.769 559.119C440.905 561.437 443.224 565.301 443.224 565.301C443.224 565.301 439.36 583.848 428.541 566.074C428.541 566.074 430.859 557.735 412.698 565C395.697 563.292 402.266 562.21 396.856 556.8C391.446 551.391 387.582 559.119 379.854 556.8C372.126 554.482 340.442 560.664 331.941 550.618C323.44 540.572 313.394 553.709 307.984 547.527C302.575 541.344 298.711 543.663 297.165 539.026C295.62 534.389 299.484 532.844 290.983 532.844C282.482 532.844 267.799 524.343 252.343 539.026C236.887 553.709 226.068 547.527 226.068 547.527C226.068 547.527 233.796 545.208 225.295 542.117C216.794 539.026 218.34 539.026 209.066 542.117C199.793 545.208 173.518 548.3 168.881 544.436C164.244 540.572 114.012 534.389 167.335 520.479C167.335 520.479 175.836 522.797 176.609 516.615C177.382 510.433 191.292 505.796 220.658 504.25C247.706 500.386 265.48 502.705 266.253 501.159C267.026 499.613 267.799 497.295 264.708 493.431C261.616 489.567 258.525 488.021 263.162 481.839C267.799 475.657 274.754 461.746 277.845 457.882C280.936 454.018 287.892 434.698 293.301 430.062C298.711 425.425 302.575 419.242 294.847 417.697C288.664 413.06 280.936 401.468 310.303 389.876C310.303 389.876 317.258 392.967 320.349 382.148C323.44 371.329 326.531 362.828 335.032 359.737C343.533 356.646 351.261 354.328 353.579 365.919C355.898 377.511 362.853 374.42 358.989 384.467C355.125 394.513 344.306 421.561 338.896 427.743C333.487 433.926 320.349 457.11 320.349 457.11L304.893 488.021C304.893 488.021 284.8 509.66 308.757 502.705C332.714 495.749 309.53 498.068 335.805 486.476C356.671 486.476 406.13 485.703 406.13 485.703C406.13 485.703 408.448 489.567 410.766 488.794C413.085 488.021 414.63 488.794 415.403 487.249C416.176 485.703 415.403 497.295 415.403 497.295L421.585 511.978L432.405 512.751L448.633 516.615L477.227 522.797L501.956 517.388L512.776 498.068L519.731 503.477L521.276 513.524H542.915L553.734 509.66L566.099 505.023C570.596 503.222 568.123 499.358 567.258 494.59V496.909L569.19 482.612L566.454 473.601L568.417 471.793Z" fill="#E0C8C8"/>
<path d="M265.48 483.385C265.48 483.385 260.071 487.218 265.48 489.165C270.89 491.113 267.096 496.314 269.762 496.808C272.428 497.303 274.754 502.705 274.754 502.705L294.847 500.386L318.803 454.791L338.123 423.107C338.123 423.107 355.125 392.674 355.125 390.116C355.125 387.558 356.67 378.285 356.67 378.285C356.67 378.285 352.806 362.056 348.943 359.737C345.079 357.419 334.259 362.829 332.714 364.374C331.168 365.92 324.986 375.193 323.44 378.671C321.895 382.148 313.309 393.532 309.87 393.64C306.431 393.748 305.38 413.377 303.208 413.995C301.037 414.614 300.697 431.043 297.389 430.943C294.082 430.842 265.48 483.393 265.48 483.393V483.385Z" fill="#542323"/>
<path d="M311.847 395.286C311.847 395.286 304.119 419.242 303.346 420.788C302.574 422.333 304.892 431.607 313.393 421.561C321.894 411.514 325.758 390.649 328.849 394.513C331.94 398.377 325.758 413.06 324.212 417.697C322.666 422.333 336.577 408.423 343.532 396.058C350.487 383.694 352.805 369.783 352.805 369.783C352.805 369.783 353.578 365.146 348.169 362.055C342.759 358.964 335.804 363.601 330.394 372.874C324.985 382.148 311.847 395.286 311.847 395.286Z" fill="white"/>
<path d="M301.803 443.199C301.803 443.199 292.529 440.881 296.393 448.609C300.257 456.337 301.803 452.071 301.803 452.071V443.199Z" fill="white"/>
<path d="M323.441 420.016L273.209 498.841L274.755 502.705L323.441 421.685V420.016Z" fill="white"/>
<path d="M191.293 518.933C191.293 518.933 206.749 517.388 204.431 514.297C202.112 511.205 194.384 505.023 191.293 518.933Z" fill="#542323"/>
<path d="M234.568 523.57C234.568 523.57 240.194 512.751 245.496 518.934C250.797 525.116 236.887 525.116 234.568 523.57Z" fill="#542323"/>
<path d="M229.931 542.89C229.931 542.89 230.704 535.935 236.114 539.026C241.523 542.118 241.523 546.824 234.568 547.172C227.613 547.519 227.613 546.754 229.931 542.89Z" fill="#542323"/>
<path d="M240.635 532.18C240.635 532.18 248.487 525.116 250.805 529.753C253.124 534.39 250.805 537.481 252.351 537.481C253.897 537.481 245.396 541.345 243.077 539.799C241.3 538.617 239.832 535.711 240.002 533.161C240.048 532.388 240.249 531.639 240.643 530.989C242.312 528.2 240.643 532.172 240.643 532.172L240.635 532.18Z" fill="#542323"/>
<path d="M263.162 530.524C263.162 530.524 261.617 523.568 268.185 518.932C268.185 518.932 273.209 520.446 273.209 526.258C273.209 532.069 263.162 530.524 263.162 530.524Z" fill="#542323"/>
<path d="M280.938 525.89V515.998C280.938 515.998 287.614 519.877 289.299 524.429C290.984 528.981 282.483 534.391 280.938 525.89Z" fill="#542323"/>
<path d="M299.168 534.172C299.485 534.388 301.803 528.979 301.803 528.979L309.423 534.172C309.423 534.172 311.077 529.751 315.714 526.66C320.35 523.569 321.123 524.28 323.442 528.175C325.76 532.07 333.488 529.751 329.624 525.887C325.76 522.024 315.914 515.888 319.292 517.024C322.669 518.16 328.666 514.296 330.69 517.773C332.715 521.251 334.075 527.031 330.69 530.71C327.306 534.388 321.896 539.025 321.123 535.161C320.35 531.297 314.5 539.751 313.171 540.161C311.842 540.571 305.667 544.435 303.349 541.343C301.03 538.252 299.168 534.172 299.168 534.172Z" fill="#542323"/>
<path d="M335.033 533.359C335.033 533.359 345.852 533.614 346.911 530.709C347.97 527.803 344.307 526.659 342.962 524.82C341.617 522.981 335.025 532.069 335.025 532.069V533.359H335.033Z" fill="#542323"/>
<path d="M362.303 529.412C362.303 529.412 361.306 515.54 370.193 524.582C379.08 533.624 361.747 524.435 362.303 529.412Z" fill="#542323"/>
<path d="M381.054 524.575C381.054 524.575 369.817 518.933 375.999 513.524C382.182 508.114 376.935 517.148 383.426 521.515C389.918 525.881 388.975 516.716 394.083 518.207C399.191 519.699 399.964 518.926 399.191 513.516C398.418 508.107 401.509 508.107 403.055 513.516C404.601 518.926 410.799 518.13 407.7 520.077C404.601 522.025 398.418 518.926 398.418 522.79C398.418 526.654 396.873 528.199 393.782 525.881C390.69 523.563 391.069 526.638 388.557 528.964C386.046 531.29 387.429 526.576 384.809 525.456C382.19 524.335 381.061 524.567 381.061 524.567L381.054 524.575Z" fill="#542323"/>
<path d="M403.039 528.207C403.039 528.207 411.54 522.024 413.858 518.16C416.177 514.296 419.191 514.273 418.07 520.085C416.949 525.896 416.177 526.661 412.699 528.207C409.221 529.752 406.493 526.661 406.694 528.207C406.895 529.752 403.039 528.207 403.039 528.207Z" fill="#542323"/>
<path d="M358.216 498.068L355.125 496.522C355.125 496.522 360.913 494.088 362.266 496.468C363.618 498.848 358.216 498.068 358.216 498.068Z" fill="#542323"/>
<path d="M378.31 500.386C378.31 500.386 370.25 494.327 380.853 495.425C391.455 496.522 388.163 499.412 393.287 496.808C398.411 494.204 395.335 495.602 398.418 495.293C401.502 494.984 409.832 498.841 404.508 500.386C399.183 501.932 393.264 499.335 390.814 501.793C388.364 504.25 381.077 503.199 380.86 501.793C380.644 500.386 378.318 500.386 378.318 500.386H378.31Z" fill="#542323"/>
<path d="M416.949 546.754C416.949 545.981 406.13 534.814 412.698 537.31C419.267 539.806 421.385 535.401 421.099 541.854C420.813 548.307 420.736 552.681 418.069 548.562C415.403 544.443 416.949 546.762 416.949 546.762V546.754Z" fill="#542323"/>
<path d="M431.564 530.363C429.322 530.525 427.004 525.116 430.868 527.434C434.732 529.752 435.945 525.602 436.502 529.606C437.058 533.609 431.571 530.363 431.571 530.363H431.564Z" fill="#542323"/>
<path d="M443.008 533.368C445.55 527.433 445.743 527.263 449.12 528.893C452.498 530.524 443.209 532.549 443.989 536.946C444.77 541.343 444.229 546.814 440.635 542.533C437.042 538.252 435.025 533.121 437.961 533.368C440.898 533.615 443 533.368 443 533.368H443.008Z" fill="#542323"/>
<path d="M430.859 561.437C430.859 561.437 437.814 552.936 440.133 558.346C442.451 563.756 443.224 563.756 440.905 568.392C438.587 573.029 434.723 573.802 433.177 569.165C431.632 564.528 428.541 566.074 430.859 561.437Z" fill="#542323"/>
<path d="M450.951 545.208L456.361 539.799C456.361 539.799 462.365 540.572 458.586 545.208C454.807 549.845 450.951 550.734 450.951 548.354V545.208Z" fill="#542323"/>
<path d="M468.261 544.713C468.261 544.713 466.824 537.48 472.797 539.798C478.771 542.116 475.664 544.991 471.808 544.713C467.952 544.435 468.253 544.713 468.253 544.713H468.261Z" fill="#542323"/>
<path d="M468.109 555.263C468.109 555.263 470.42 543.486 476.146 544.737C481.873 545.989 479.925 553.153 481.286 549.954C482.646 546.754 485.946 546.592 485.837 542.04C485.729 537.481 482.507 533.323 487.599 536.948C492.692 540.572 488.905 541.94 492.731 544.737C496.556 547.535 496.092 546.399 498.256 545.418C500.42 544.436 501.355 541.762 503.975 545.418C506.595 549.073 507.684 554.83 507.53 549.637C507.375 544.444 505.83 543.671 509.694 540.58C513.558 537.489 514.33 535.943 518.194 538.261C522.058 540.58 518.357 543.455 522.53 544.722C526.703 545.989 525.922 545.217 529.014 547.535C532.105 549.853 534.423 550.626 534.423 548.308C534.423 545.989 533.635 542.535 536.734 545.425C539.833 548.308 545.242 543.671 541.378 548.308C537.514 552.945 532.877 556.809 532.105 552.945C531.332 549.081 531.332 550.626 529.786 552.945C528.241 555.263 523.511 556.554 523.511 556.554L517.02 553.694C517.02 553.694 522.027 549.691 517.02 550.935C512.012 552.179 513.558 547.543 512.012 552.952C510.466 558.362 508.148 560.464 506.602 559.026C505.057 557.589 499.647 558.362 499.647 558.362C499.647 558.362 495.93 560.943 494.315 556.561C492.7 552.18 495.783 551.407 492.692 552.18C489.601 552.952 489.601 549.861 484.964 552.18C480.327 554.498 483.565 554.892 476.146 555.085C468.728 555.278 468.109 555.286 468.109 555.286V555.263Z" fill="#542323"/>
<path d="M498.865 567.619C498.865 565.301 500.875 561.328 501.802 559.451C502.729 557.573 502.675 555.517 505.411 561.182C508.139 566.846 512.003 574.852 506.593 570.849C501.184 566.846 498.865 567.619 498.865 567.619Z" fill="#542323"/>
<path d="M514.32 566.846C516.639 563.755 521.523 558.237 524.49 559.451C527.458 560.664 523.594 564.528 526.685 566.074C529.776 567.619 532.095 565.301 535.186 569.165C538.277 573.029 539.05 576.893 535.186 576.893C531.322 576.893 530.549 582.302 528.231 579.211C525.912 576.12 523.725 572.302 521.731 572.279C519.738 572.256 518.161 571.05 517.017 569.721C515.874 568.392 514.328 566.846 514.328 566.846H514.32Z" fill="#542323"/>
<path d="M567.172 555.261C567.172 555.261 571.098 549.697 573.625 550.16C576.152 550.624 577.396 552.177 576.384 555.261C575.371 558.344 571.6 558.174 570.394 557.486C569.189 556.799 567.172 555.261 567.172 555.261Z" fill="#542323"/>
<path d="M603.225 535.566V544.716C603.225 544.716 609.878 546.826 613.881 544.09C617.885 541.347 613.881 554.871 613.881 554.871C613.881 554.871 619.809 547.32 620.396 545.497C620.983 543.673 620.582 542.892 620.396 539.801C620.211 536.71 622.081 537.521 619.214 535.566C616.347 533.611 610.334 531.609 610.334 531.609L603.232 535.566H603.225Z" fill="#542323"/>
<path d="M530.217 528.013C530.217 528.013 522.922 522.782 530.217 520.084C537.512 517.387 627.929 477.202 627.929 477.202L660.773 461.383C660.773 461.383 688.208 477.202 686.662 481.066C685.116 484.93 678.934 498.84 678.934 498.84L556.461 554.018C556.461 554.018 550.371 558.191 548.965 554.018C547.558 549.845 530.217 528.013 530.217 528.013Z" fill="#542323"/>
<path d="M549.947 542.042L529.777 524.345L549.947 551.91L679.7 491.114L681.161 484.793L554.29 542.042L552.119 544.09L549.947 542.042Z" fill="white"/>
<path d="M700.565 511.206L668.88 505.023L620.812 526.654L711.346 551.909L730.681 535.564C730.681 535.564 735.867 517.643 701.987 510.557C668.108 503.47 700.565 511.198 700.565 511.198V511.206Z" fill="#542323"/>
<path d="M655.511 520.086L703.262 528.471L706.755 530.526V543.239L645.65 531.662L709.576 550.132L730.913 534.189L729.306 531.608L713.123 543.239L709.847 527.435L720.666 521.253C720.666 521.253 707.528 525.117 705.21 523.571C702.891 522.026 655.511 520.086 655.511 520.086Z" fill="white"/>
<path d="M679.699 450.156L675.889 463.448L683.563 439.337L693.609 433.154L794.845 482.613C794.845 482.613 798.709 481.315 794.845 492.783L787.117 517.389C787.117 517.389 786.244 521.253 782.048 517.389L685.108 468.703L676.607 464.839L679.699 450.156Z" fill="#542323"/>
<path d="M693.611 435.471L683.564 466.383L685.11 468.701L691.292 459.428L696.702 438.562L694.778 433.717L693.611 435.471Z" fill="white"/>
<path d="M550.935 131.832C550.935 131.832 543.308 252.705 546.785 273.184C550.263 293.663 552.512 348.942 554.096 361.105C555.673 373.262 550.201 432.095 554.096 445.959C557.991 459.823 568.771 441.283 565.317 428.524C561.863 415.765 565.526 160.881 550.943 131.832H550.935Z" fill="#542323"/>
<path d="M537.312 404.916C537.312 404.916 531.756 437.033 506.037 443.981L480.318 450.928C480.318 450.928 540.202 453.95 537.312 404.916Z" fill="#542323"/>
<path d="M537.413 334.668L536.215 377.682L538.178 380.843C538.178 380.843 541.184 342.064 537.413 334.676V334.668Z" fill="#542323"/>
<path d="M416.563 505.857L408.363 512.766C408.363 512.766 407.474 514.644 412.405 514.737C417.335 514.83 421.825 515.618 424.994 517.156C428.162 518.694 433.896 521.236 433.896 521.236C433.896 521.236 438.502 518.361 441.833 521.236C445.164 524.111 450.62 526.275 450.62 526.275H458.116C458.116 526.275 476.988 533.987 480.009 530.595C483.031 527.202 489.213 525.656 495.396 524.884C501.578 524.111 507.706 529.219 509.283 526.275C510.852 523.338 516.13 517.983 516.13 517.983C516.13 517.983 517.034 521.02 516.261 515.61C515.488 510.201 518.433 503.554 516.57 508.423C514.708 513.292 511.624 514.915 510.465 516.808C509.306 518.701 507.76 517.929 504.669 518.701C501.578 519.474 500.542 520.224 497.583 521.785C494.623 523.346 490.759 523.338 486.122 524.884C481.485 526.429 482.683 527.125 477.065 527.163C471.447 527.202 468.224 527.666 466.74 526.275C465.257 524.884 461.779 520.996 459.267 521.777C456.756 522.558 457.668 525.409 453.734 523.214C449.801 521.02 445.72 522.171 443.124 520.046C440.527 517.921 440.102 517.264 437.992 517.983C435.882 518.701 433.27 518.81 431.879 517.983C430.488 517.156 427.389 515.61 425.844 514.837C424.298 514.065 419.661 512.519 418.116 512.519C416.57 512.519 416.57 512.905 416.57 511.167V505.857H416.563Z" fill="#542323"/>
<path d="M406.131 485.703L416.563 486.089L417.723 499.227C417.723 499.227 415.366 508.392 423.89 508.253C432.414 508.114 432.947 509.613 433.449 510.409C433.951 511.205 443.936 510.958 445.512 512.627C447.089 514.297 451.726 513.524 455.59 516.615C459.454 519.706 476.455 517.388 478.774 515.069C481.092 512.751 487.56 519.536 487.56 519.536C487.56 519.536 490.582 519.374 493.179 516.445C495.775 513.516 503.132 510.232 504.09 511.105C505.049 511.978 508.472 495.154 509.848 491.97C511.223 488.786 518.333 490.224 522.506 499.938C526.679 509.652 524.933 511.97 526.965 513.516C528.998 515.062 533.75 510.494 533.689 508.531C533.627 506.569 537.498 500.378 540.59 501.924C543.681 503.47 546.772 503.47 546.772 501.924C546.772 500.378 546.247 503.593 549.214 505.85C552.182 508.106 551.409 507.334 551.409 505.015C551.409 502.697 549.863 499.606 552.954 503.47C556.046 507.334 555.791 508.848 555.922 504.613C556.053 500.378 555.273 498.833 558.364 501.151C561.455 503.47 563.001 503.47 563.774 501.924C564.546 500.378 567.707 503.709 566.509 504.358C565.311 505.008 547.189 512.828 547.189 512.828L536.71 513.516H521.262L520.265 503.261L512.761 498.06L501.942 517.38L477.213 522.79L421.571 511.97L406.115 485.695L406.131 485.703Z" fill="#542323"/>
</g>
<defs>
<filter id="filter0_d_219_2888" x="207.111" y="173.818" width="211.127" height="361.9" filterUnits="userSpaceOnUse" color-interpolation-filters="sRGB">
<feFlood flood-opacity="0" result="BackgroundImageFix"/>
<feColorMatrix in="SourceAlpha" type="matrix" values="0 0 0 0 0 0 0 0 0 0 0 0 0 0 0 0 0 0 127 0" result="hardAlpha"/>
<feOffset dx="5" dy="15"/>
<feGaussianBlur stdDeviation="5"/>
<feComposite in2="hardAlpha" operator="out"/>
<feColorMatrix type="matrix" values="0 0 0 0 0 0 0 0 0 0 0 0 0 0 0 0 0 0 0.42 0"/>
<feBlend mode="normal" in2="BackgroundImageFix" result="effect1_dropShadow_219_2888"/>
<feBlend mode="normal" in="SourceGraphic" in2="effect1_dropShadow_219_2888" result="shape"/>
</filter>
<filter id="filter1_d_219_2888" x="542.938" y="175.035" width="194.076" height="368.527" filterUnits="userSpaceOnUse" color-interpolation-filters="sRGB">
<feFlood flood-opacity="0" result="BackgroundImageFix"/>
<feColorMatrix in="SourceAlpha" type="matrix" values="0 0 0 0 0 0 0 0 0 0 0 0 0 0 0 0 0 0 127 0" result="hardAlpha"/>
<feOffset dx="5" dy="15"/>
<feGaussianBlur stdDeviation="5"/>
<feComposite in2="hardAlpha" operator="out"/>
<feColorMatrix type="matrix" values="0 0 0 0 0 0 0 0 0 0 0 0 0 0 0 0 0 0 0.42 0"/>
<feBlend mode="normal" in2="BackgroundImageFix" result="effect1_dropShadow_219_2888"/>
<feBlend mode="normal" in="SourceGraphic" in2="effect1_dropShadow_219_2888" result="shape"/>
</filter>
<filter id="filter2_d_219_2888" x="399.498" y="54.8691" width="182.674" height="490.213" filterUnits="userSpaceOnUse" color-interpolation-filters="sRGB">
<feFlood flood-opacity="0" result="BackgroundImageFix"/>
<feColorMatrix in="SourceAlpha" type="matrix" values="0 0 0 0 0 0 0 0 0 0 0 0 0 0 0 0 0 0 127 0" result="hardAlpha"/>
<feOffset dx="5" dy="15"/>
<feGaussianBlur stdDeviation="5"/>
<feComposite in2="hardAlpha" operator="out"/>
<feColorMatrix type="matrix" values="0 0 0 0 0 0 0 0 0 0 0 0 0 0 0 0 0 0 0.42 0"/>
<feBlend mode="normal" in2="BackgroundImageFix" result="effect1_dropShadow_219_2888"/>
<feBlend mode="normal" in="SourceGraphic" in2="effect1_dropShadow_219_2888" result="shape"/>
</filter>
<clipPath id="clip0_219_2888">
<rect width="483.776" height="431.419" fill="white" transform="translate(0 204.312) rotate(-15.6744)"/>
</clipPath>
<clipPath id="clip1_219_2888">
<rect width="483.776" height="431.419" fill="white" transform="translate(448.01 74.5879) rotate(15)"/>
</clipPath>
<clipPath id="clip2_219_2888">
<rect width="653.57" height="582.836" fill="white" transform="translate(143)"/>
</clipPath>
</defs>
</svg>
