<svg width="177" height="80" viewBox="0 0 177 80" fill="none" xmlns="http://www.w3.org/2000/svg">
<path fill-rule="evenodd" clip-rule="evenodd" d="M40.829 0.435616C39.8083 0.659443 38.8482 1.32998 38.4479 2.09752C38.0925 2.77894 38.1398 3.9596 38.7394 9.38352C38.8236 10.1487 38.9457 11.3284 39.01 12.0051C39.0749 12.6818 39.1728 13.6448 39.2272 14.1449C39.2821 14.6451 39.3772 15.5603 39.4388 16.1783C39.5003 16.7959 39.602 17.5904 39.6654 17.9434C39.7288 18.2969 39.8197 18.9707 39.868 19.4416C40.0265 20.9965 40.6866 25.6004 41.0874 27.948C41.1731 28.4481 41.3155 29.2909 41.404 29.8204C41.5488 30.6864 42.1389 33.8039 42.2704 34.3992C42.2993 34.5293 42.4503 35.1653 42.6064 35.8127C42.7626 36.46 42.9263 37.1821 42.9703 37.4178C43.065 37.9246 43.3394 39.0229 43.559 39.7715C43.6456 40.0659 43.8415 40.7402 43.9953 41.2697C44.1486 41.7992 44.3346 42.4012 44.4084 42.607C44.4822 42.8133 44.6242 43.2463 44.724 43.57C44.9303 44.2396 45.0056 44.4369 45.7036 46.1381C48.5911 53.1785 52.3346 55.8876 56.3474 53.8405C59.1044 52.4341 61.6024 48.0295 62.5976 42.8214C62.6709 42.4385 62.767 42.0122 62.8115 41.874C62.9 41.5986 63.006 40.9768 63.2402 39.3594C63.4087 38.1934 63.411 38.1877 63.6533 38.2805C63.7593 38.3212 63.8502 38.535 63.8937 38.845C63.9765 39.4379 64.3934 41.0132 64.7053 41.9119C65.3209 43.685 65.4998 44.1341 65.9853 45.1216C69.4009 52.0707 77.0323 52.4748 80.1976 45.8736C80.4371 45.3743 80.633 44.903 80.633 44.8268C80.633 44.7502 80.6978 44.5926 80.7764 44.4767C80.9387 44.2377 81.596 41.9909 81.596 41.6748C81.596 41.5612 81.6646 41.2551 81.7479 40.9943C81.8311 40.7341 81.9301 40.3815 81.9674 40.2112C82.0498 39.8378 82.17 39.9433 82.3195 40.5206C82.4397 40.9834 82.9337 42.4201 83.0918 42.7679C83.1457 42.8853 83.2943 43.2227 83.4225 43.5165C86.8126 51.2894 93.3618 50.8953 97.6576 42.6595C98.7791 40.5097 99.4714 38.6983 100.274 35.8127C101.571 31.1506 101.575 31.4426 100.203 31.6877C99.5358 31.807 99.4582 31.8472 99.4023 32.1041C99.3683 32.2608 99.2722 32.602 99.1889 32.8622C99.1056 33.123 99.037 33.432 99.037 33.5484C99.037 33.759 98.9826 33.9629 98.3693 36.0266C97.5847 38.6704 96.2262 41.9672 95.655 42.6155C95.5731 42.7083 95.5064 42.8228 95.5064 42.8696C95.5064 43.2548 93.5203 45.4117 92.856 45.7477C91.9748 46.1935 90.7076 46.1788 90.0569 45.7155C89.12 45.0488 87.9649 42.6799 87.5981 40.6744C87.5395 40.3545 87.4429 39.852 87.3838 39.5577C86.7961 36.6432 86.5382 33.0865 86.3735 25.6425C86.2353 19.3843 86.2982 19.7955 85.3868 19.169C84.0013 18.2155 81.0125 18.7308 80.0793 20.0837C79.7462 20.5669 79.671 21.7546 79.882 23.2116C79.9397 23.6096 80.0325 24.7543 80.0883 25.7546C80.1442 26.755 80.2942 28.8258 80.4215 30.3556C80.6368 32.945 80.527 38.8559 80.2554 39.295C80.2317 39.3338 80.1598 39.7219 80.0964 40.1572C79.8593 41.7784 79.4131 43.3566 78.7681 44.8543C78.5367 45.3904 77.6489 46.6406 77.2514 46.9899C75.1149 48.8657 72.3627 47.9817 70.9351 44.9612C70.671 44.4019 70.4169 43.8724 70.3715 43.7844C70.2749 43.5984 69.6952 41.2177 69.4596 40.0394C68.94 37.44 68.6551 32.7009 68.6518 26.5898C68.649 21.8942 68.6428 21.7437 68.4275 21.3789C67.3779 19.5996 63.0869 19.9947 62.2715 21.9453C62.1026 22.3499 62.1958 25.6576 62.4495 28.2693C62.5096 28.8873 62.6028 29.9704 62.6563 30.6765C62.7419 31.8065 62.8162 32.4567 63.1498 34.9992C63.2355 35.6504 63.084 35.8662 62.5417 35.8662C61.9327 35.8662 61.7709 36.1501 61.6838 37.3752C61.6403 37.9871 61.5527 38.6557 61.4889 38.8616C61.4255 39.0669 61.3729 39.4649 61.3729 39.746C61.3729 40.0266 61.3043 40.5325 61.2206 40.8699C61.1368 41.2077 60.991 41.8688 60.8964 42.3396C60.6352 43.6386 60.0475 45.6374 59.5274 46.9941C58.122 50.6634 55.6409 52.2732 53.9109 50.6383C52.8623 49.6474 51.6863 47.2426 50.7172 44.1052C50.2634 42.6368 49.5422 39.8184 49.238 38.3273C49.1362 37.8271 48.9843 37.1287 48.9006 36.7757C48.8168 36.4226 48.7023 35.869 48.6455 35.5453C48.5892 35.2216 48.4671 34.5473 48.3748 34.0471C48.1723 32.9498 47.9437 31.5836 47.7218 30.1418C47.6314 29.5531 47.4904 28.6384 47.4081 28.1089C47.0115 25.5464 46.9112 24.8262 46.8274 23.9356C46.7773 23.4061 46.6831 22.8373 46.6183 22.6712C46.5535 22.5056 46.5 22.0726 46.4995 21.7082C46.499 21.3443 46.4489 20.7576 46.3883 20.4045C46.3273 20.0515 46.2066 19.1127 46.1195 18.3182C46.0329 17.5236 45.9156 16.5124 45.8588 16.0709C45.8025 15.6299 45.7045 14.6428 45.6411 13.8776C45.5777 13.1124 45.4561 12.0269 45.3709 11.4656C45.2857 10.9039 45.2162 10.0947 45.2162 9.66697C45.2162 9.23966 45.1688 8.6879 45.1111 8.44136C45.0529 8.19434 44.9583 7.24651 44.8996 6.33416C44.6332 2.17134 44.5972 1.98821 43.886 1.21546C43.2391 0.512275 41.9629 0.186235 40.829 0.435616ZM13.5438 7.89338C13.1028 7.97335 12.631 8.08834 12.4957 8.14939C12.3604 8.21043 12.1668 8.26012 12.0646 8.26012C11.872 8.26012 9.91434 9.0447 9.26415 9.38257C5.77802 11.1945 3.03531 14.4213 1.57262 18.4303C1.38901 18.9338 1.23901 19.4302 1.23901 19.5343C1.23901 19.6384 1.18364 19.8268 1.1155 19.9536C0.978742 20.2091 0.728889 21.4219 0.592604 22.4909C0.183279 25.704 0.218296 27.8391 0.724629 30.5161C0.785673 30.8397 0.874637 31.3215 0.922431 31.586C1.07338 32.4221 1.68997 34.455 2.04204 35.2775C2.11776 35.454 2.22943 35.719 2.29095 35.8662C5.40419 43.3372 10.3355 46.4499 17.9627 45.7586C19.5744 45.6124 22.116 45.2584 22.425 45.1368C22.5135 45.1022 22.9465 45.0265 23.388 44.9693C23.8295 44.9115 24.8635 44.7658 25.6854 44.6451C30.8713 43.8851 33.077 45.1297 33.6027 49.1141C34.8065 58.2295 20.2525 63.1897 15.0822 55.4262C14.2939 54.2423 13.745 53.9219 13.2405 54.3506C11.9567 55.4409 15.5219 59.9174 18.787 61.3158C20.782 62.1699 24.749 62.4837 26.7052 61.9418C27.8783 61.6172 29.526 61.0834 29.808 60.9372C29.9552 60.861 30.1142 60.7981 30.162 60.7981C30.2623 60.7971 31.1827 60.3419 32.1329 59.8233C35.3256 58.0809 38.2969 54.7789 39.2973 51.8625C39.8684 50.1959 39.867 50.2048 39.8665 48.4483C39.8661 46.7958 39.8069 46.3685 39.4208 45.2286C39.3612 45.0521 39.276 44.7625 39.2315 44.585C38.9092 43.2965 37.5601 41.2044 36.4732 40.3077C33.9964 38.2649 31.1926 37.838 23.7623 38.3737C18.9067 38.7234 16.0277 38.6586 14.6677 38.1697C14.4321 38.085 14.1548 38.0136 14.0507 38.0107C13.947 38.0084 13.7786 37.9634 13.6763 37.9114C13.5741 37.8593 13.2277 37.7027 12.9064 37.5636C9.9186 36.2693 8.19896 33.8115 7.11531 29.2857C7.00269 28.8149 6.85694 28.213 6.79164 27.948C6.67712 27.4861 6.63974 27.2452 6.38231 25.3269C6.23988 24.2626 6.23041 19.6678 6.36859 18.7994C6.57869 17.4844 6.6899 16.9047 6.79542 16.573C7.22368 15.2272 7.37416 14.8202 7.66234 14.2278C8.5974 12.3056 9.7596 11.1055 11.3699 10.4004C11.6534 10.276 12.0012 10.117 12.1422 10.0465C12.7318 9.75262 14.9015 9.88275 15.8271 10.267C17.8368 11.1013 19.7864 12.9988 21.736 16.0174C22.6711 17.4659 24.9931 22.1128 24.9931 22.5363C24.9931 22.6225 25.0343 22.7181 25.0849 22.7493C25.1682 22.8009 25.604 23.9323 26.5112 26.4503C27.4141 28.9559 29.1976 29.8943 31.1775 28.9048C33.0017 27.9934 33.5445 26.2562 32.635 24.2404C32.5517 24.0549 32.4831 23.8556 32.4831 23.797C32.4831 23.4828 30.8789 20.0151 30.0229 18.4786C26.6082 12.3491 22.2996 8.66897 17.5638 7.8366C16.7016 7.68517 14.5253 7.71593 13.5438 7.89338ZM166.475 14.3498C164.945 14.7421 163.63 16.3009 163.189 18.2443C162.848 19.7468 162.968 21.0505 163.627 22.9935L163.888 23.7634L163.56 24.3847C163.38 24.7264 162.932 25.4754 162.566 26.0494C162.199 26.6239 161.397 27.8997 160.783 28.8849C160.168 29.8706 159.432 31.0257 159.147 31.4525C158.862 31.8794 158.599 32.3128 158.561 32.4155C158.524 32.5187 158.365 32.7714 158.207 32.9772C158.05 33.1831 157.474 34.0741 156.927 34.9566C155.605 37.0922 155.703 37.0014 154.898 36.8306C152.313 36.2821 151.313 37.7244 151.506 41.7254C151.584 43.3201 152.119 45.5811 152.653 46.5663C152.701 46.6544 152.869 46.9676 153.028 47.2615C156.957 54.5692 167.55 56.5335 173.283 51.0178C174.952 49.4132 175.656 48.2079 176.439 45.6176C176.633 44.9749 176.677 41.9824 176.505 41.1093C176.265 39.8936 176.168 39.5122 175.961 38.9661C175.838 38.6444 175.713 38.2843 175.683 38.1669C175.653 38.0491 175.561 37.8011 175.478 37.6156C175.396 37.4301 175.328 37.2451 175.328 37.2039C175.328 36.9933 173.731 33.9464 172.956 32.6796C172.544 32.0067 169.783 27.8822 169.457 27.4525C168.841 26.6424 167.838 25.0226 167.838 24.8376C167.838 24.7349 168.022 24.4173 168.246 24.1325C171.574 19.9034 172.011 15.9427 169.304 14.5552C168.81 14.3025 167.135 14.1804 166.475 14.3498ZM168.291 16.4405C169.895 17.1105 169.815 19.2774 168.092 21.8701C166.639 24.0558 165.142 23.4492 164.716 20.502C164.333 17.8563 166.309 15.6124 168.291 16.4405ZM131.329 17.4801C129.664 17.6987 129.116 18.4535 128.464 21.421C128.419 21.6273 128.287 22.1568 128.17 22.5983C128.053 23.0394 127.852 23.858 127.724 24.4173C127.596 24.9762 127.421 25.6983 127.337 26.022C126.941 27.5457 126.716 28.4931 126.584 29.2072C126.504 29.6349 126.413 30.0287 126.379 30.0826C126.346 30.1365 126.275 30.3888 126.223 30.6429C126.17 30.897 125.975 31.7544 125.788 32.549C125.602 33.3435 125.406 34.2341 125.353 34.5274C125.301 34.8208 125.213 35.1819 125.159 35.33C125.106 35.4776 124.979 36.0081 124.878 36.5083C124.777 37.0085 124.631 37.6582 124.552 37.9525C124.474 38.2469 124.336 38.8247 124.245 39.2368C123.942 40.6082 123.458 42.7608 123.331 43.3026C123.262 43.597 123.166 44.0546 123.12 44.3191C123.073 44.5841 122.976 45.0412 122.903 45.3355C122.685 46.2157 122.292 48.0054 121.985 49.5088C121.889 49.9796 121.745 50.6534 121.664 51.0065C121.584 51.3599 121.44 52.0338 121.344 52.5046C121.248 52.9755 121.119 53.5533 121.058 53.7889C120.997 54.0241 120.909 54.4576 120.862 54.7519C120.816 55.0458 120.683 55.7201 120.566 56.2496C120.449 56.7791 120.273 57.6219 120.174 58.1221C120.075 58.6223 119.947 59.2483 119.888 59.5133C119.83 59.7779 119.736 60.2596 119.679 60.5833C119.623 60.9069 119.508 61.4847 119.426 61.8671C119.193 62.945 118.821 64.8563 118.448 66.8963C118.356 67.3965 118.234 67.9984 118.177 68.2336C118.048 68.7631 117.571 71.4145 117.437 72.3463C117.382 72.7248 117.291 73.1824 117.234 73.3627C116.797 74.7469 116.695 77.2478 117.044 78.038C118.065 80.3444 121.517 80.45 122.762 78.2126C123.154 77.5085 123.615 75.3544 123.982 72.5138C124.035 72.1016 124.123 71.6445 124.178 71.4973C124.232 71.3502 124.306 70.965 124.343 70.6413C124.379 70.3176 124.474 69.7157 124.554 69.3035C124.634 68.8918 124.781 68.0732 124.879 67.4845C124.978 66.8963 125.099 66.2703 125.148 66.0938C125.197 65.9173 125.267 65.5562 125.305 65.2912C125.342 65.0262 125.439 64.4725 125.52 64.0609C125.602 63.6487 125.723 62.9748 125.791 62.5627C125.858 62.151 125.98 61.5008 126.061 61.118C126.268 60.1432 126.416 59.3822 126.592 58.3899C126.676 57.9191 126.966 56.4744 127.237 55.1797C127.508 53.885 127.772 52.5851 127.823 52.2907C127.874 51.9964 128.021 51.2743 128.149 50.6856C128.277 50.097 128.417 49.399 128.461 49.134C128.504 48.8695 128.593 48.436 128.659 48.171C128.725 47.9065 128.824 47.4489 128.879 47.1545C129.04 46.2985 129.403 44.7109 129.485 44.5008C129.57 44.2817 130.067 44.6404 130.067 44.9205C130.067 45.4851 131.537 47.2071 132.474 47.7413C136.574 50.078 142.845 47.9245 146.021 43.0887C146.291 42.6766 146.662 42.112 146.845 41.8338C147.117 41.4183 147.825 40.0209 148.267 39.0225C151.618 31.4672 150.179 22.6854 145.123 19.8249C141.51 17.7811 138.596 18.6177 135.373 22.6239C134.718 23.4388 134.586 22.8633 135.118 21.5137C136.071 19.098 134.197 17.103 131.329 17.4801ZM104.334 17.9945C104.216 18.0437 103.954 18.1464 103.751 18.2226C102.619 18.6485 102.245 19.3862 102.133 21.421C102.086 22.2747 101.975 24.1765 101.887 25.6477C101.723 28.3776 101.582 31.1525 101.391 35.4384C101.164 40.515 101.202 46.2479 101.466 46.6738C102.793 48.8188 106.797 48.5746 107.366 46.3141C107.428 46.0704 107.533 44.2576 107.6 42.2862C107.668 40.3148 107.762 37.9554 107.812 37.043C107.86 36.1312 107.904 34.5904 107.909 33.6189C107.915 32.5007 107.976 31.5789 108.077 31.1047C108.164 30.6926 108.236 30.163 108.237 29.9279C108.238 29.448 108.464 28.4155 108.842 27.1657C108.981 26.7063 109.095 26.2827 109.095 26.2245C109.095 25.7272 110.525 23.3304 111.201 22.6953C112.351 21.6141 114.164 21.0595 115.171 21.4801C116.841 22.1777 117.191 24.4651 116.423 29.66C116.21 31.1009 116.312 31.6248 116.911 32.1666C118.839 33.908 122.791 32.9436 122.791 30.7318C122.791 30.5251 122.863 30.0187 122.95 29.6066C123.318 27.8666 123.125 24.4041 122.548 22.4374C121.608 19.2286 118.67 17.6027 114.713 18.1014C112.698 18.3555 110.036 20.2399 109.185 22.0153C108.829 22.7592 108.667 22.5401 108.667 21.3117C108.667 19.7723 108.187 18.7644 107.28 18.4005C106.209 17.9708 105.886 17.8909 105.245 17.8975C104.861 17.9013 104.451 17.9448 104.334 17.9945ZM141.701 21.7106C143.053 22.3395 143.712 24.5858 143.624 28.2693C143.547 31.4426 143.237 33.3752 142.272 36.6687C141.816 38.2275 141.692 38.6079 141.61 38.6964C141.559 38.7523 141.516 38.8654 141.516 38.9482C141.516 39.031 141.197 39.7536 140.807 40.5542C138.687 44.9002 136.234 46.7017 133.596 45.8499C131.831 45.2797 131.028 43.596 130.952 40.3067C130.905 38.307 130.947 37.8229 131.29 36.4548C131.653 35.0021 131.796 34.3945 131.896 33.8867C131.953 33.5924 132.044 33.2555 132.098 33.1376C132.151 33.0198 132.225 32.7553 132.263 32.549C132.301 32.3431 132.405 31.9097 132.493 31.586C132.582 31.2623 132.706 30.8052 132.768 30.5695C132.92 29.9946 134.116 27.6115 134.841 26.4398C137.266 22.5198 139.753 20.8053 141.701 21.7106ZM166.377 28.354C166.721 29.043 167.283 30.1602 167.624 30.8374C168.597 32.7657 169.785 35.7062 169.98 36.6687C170.028 36.9039 170.167 37.5541 170.289 38.1129C170.871 40.7804 170.356 44.2651 168.964 47.0817C168.757 47.5009 168.587 47.8648 168.587 47.8899C168.587 48.6087 165.736 51.7844 165.608 51.2071C165.573 51.0467 165.991 49.5726 166.287 48.8131C166.368 48.6073 166.504 48.198 166.59 47.9036C167.058 46.3061 167.44 45.0791 167.573 44.7473C167.656 44.541 167.737 44.2524 167.754 44.1052C167.778 43.8946 167.87 43.8165 168.185 43.7389C168.521 43.6556 168.595 43.5851 168.649 43.2951C168.755 42.7296 168.671 42.5677 168.133 42.3108C167.733 42.1201 167.624 42.0127 167.624 41.8087C167.624 41.6663 167.576 41.5201 167.517 41.4836C167.459 41.4472 167.41 41.3279 167.41 41.2186C167.41 40.2869 165.515 39.2397 163.826 39.2378L162.649 39.2368L162.68 38.7385C162.716 38.1565 162.629 38.076 161.311 37.4718C160.87 37.2697 160.431 37.0397 160.335 36.9616C160.122 36.7884 159.584 36.7354 159.531 36.8826C159.51 36.9413 160.01 37.2418 160.643 37.5503C162.289 38.3529 162.341 38.4059 162.168 39.1275C162.071 39.5307 161.92 39.8122 161.67 40.0545C161.473 40.2457 161.311 40.4927 161.311 40.6034C161.311 40.7875 161.252 40.7989 160.625 40.7317L159.939 40.6583L159.787 41.1779C159.612 41.7756 159.712 41.9857 160.295 42.2431C160.471 42.3212 160.538 42.3865 160.442 42.3889C160.25 42.3936 160.138 42.8692 160.135 43.6845C160.135 43.9528 160.082 44.4573 160.017 44.8046C159.953 45.1524 159.86 46.016 159.811 46.7234C159.698 48.3423 159.499 50.2716 159.404 50.6662L159.332 50.9681L159.004 50.6662C157.581 49.3564 156.856 45.627 157.448 42.6605C158.006 39.8605 158.015 39.5818 157.564 38.765C157.389 38.4466 157.245 38.12 157.245 38.0391C157.245 37.9104 160.858 33.0118 162.309 31.1729C162.605 30.7986 162.947 30.3542 163.069 30.1853C163.594 29.4584 165.164 27.4279 165.324 27.2675C165.63 26.9618 165.738 27.073 166.377 28.354ZM161.599 44.3995C161.566 44.6792 161.461 45.3171 161.366 45.8173C161.27 46.3174 161.14 47.0343 161.077 47.4105C160.928 48.2973 160.725 48.03 160.813 47.0627C160.863 46.5143 161.168 44.0044 161.196 43.9178C161.307 43.5662 161.65 43.9741 161.599 44.3995ZM160.638 49.3748C160.612 49.5073 160.592 49.399 160.592 49.134C160.592 48.8695 160.612 48.7611 160.638 48.8936C160.663 49.0261 160.663 49.2423 160.638 49.3748ZM99.1454 54.5797C98.4715 54.7671 98.631 55.7684 99.3347 55.7684C99.85 55.7684 100 55.6179 100 55.1021C100 54.75 99.6508 54.3767 99.4317 54.495C99.4208 54.5006 99.2916 54.539 99.1454 54.5797ZM91.3942 55.2942C91.045 55.6439 91.2788 55.9822 91.8693 55.9822C92.6317 55.9822 92.6246 55.9572 92.5924 58.7089L92.5635 61.1681L92.1679 61.2325C91.6947 61.3092 91.4401 61.4989 91.4401 61.7757C91.4401 62.1439 91.8433 62.2149 93.3774 62.1183L94.8108 62.0275V61.6532C94.8108 61.286 94.8013 61.2779 94.3314 61.2448C93.614 61.1937 93.58 61.1326 93.5804 59.9014C93.5809 58.3824 93.3585 55.4205 93.2317 55.2601C93.0689 55.0538 91.6072 55.0813 91.3942 55.2942ZM86.197 55.3448C85.8733 55.3893 85.3045 55.431 84.933 55.4366C83.7197 55.4556 83.7074 55.4925 84.0036 58.229C84.0898 59.0236 84.1608 60.2619 84.1622 60.9807C84.1645 62.6256 84.0429 62.5414 86.2784 62.4463C88.0666 62.3701 88.6581 62.2329 88.6581 61.894C88.6581 61.4842 88.4826 61.4483 86.7871 61.5145L85.1606 61.5779L85.0916 61.3215C84.9874 60.9306 85.0069 59.5342 85.1181 59.4655C85.172 59.4319 85.5113 59.3742 85.8719 59.3363C86.3427 59.2871 86.5561 59.2143 86.6295 59.077C86.8737 58.6213 86.4383 58.3667 85.6239 58.4888C85.0012 58.5821 84.889 58.4259 84.8284 57.3782C84.7698 56.3608 84.7944 56.3386 86.1033 56.2491C87.9071 56.1252 88.1168 56.0868 88.2389 55.8587C88.5346 55.3065 87.8035 55.1224 86.197 55.3448ZM105.27 55.518C105.192 55.5497 105.136 55.765 105.136 56.0357C105.136 56.6305 105.053 56.8383 104.816 56.8383C104.172 56.8383 104.075 57.6087 104.701 57.7459L105.029 57.8183V59.4078C105.029 61.6489 105.235 61.9839 106.66 62.0644C107.961 62.1382 109.018 61.2704 108.392 60.6443C108.155 60.4072 108.08 60.428 107.658 60.8506C107.352 61.1568 107.203 61.2254 106.845 61.2254C106.01 61.2254 105.992 61.1913 105.992 59.5715C105.992 57.7038 105.938 57.8013 106.974 57.8013C107.981 57.8013 108.231 57.7024 108.161 57.3333C108.1 57.0138 107.885 56.9485 106.887 56.9466C106.019 56.9452 105.992 56.9197 105.992 56.092C105.992 55.5005 105.764 55.3188 105.27 55.518ZM131.55 56.8937C131.29 57.0347 131.03 57.5225 131.03 57.8689C131.03 58.0341 131.59 58.9715 132.685 60.6367C134.361 63.1859 134.351 63.0931 132.932 63.0151C131.777 62.9512 131.68 62.9053 131.294 62.2428C131.008 61.7526 130.459 62.4363 130.667 63.0217C130.963 63.8531 134.106 64.3945 134.729 63.7211C135.281 63.1258 135.233 62.9114 134.196 61.3323C131.628 57.4222 131.695 57.6333 133.066 57.7308C134.19 57.8107 134.465 57.9035 134.662 58.2707C134.966 58.84 135.589 58.5769 135.459 57.9338C135.313 57.2069 134.919 57.0011 133.378 56.8425C132.012 56.7025 131.896 56.7058 131.55 56.8937ZM98.0527 57.0214C97.7702 57.3418 97.9747 57.6527 98.516 57.7251C99.1908 57.8159 99.2514 57.9598 99.2514 59.4726C99.2514 60.9396 99.1771 61.118 98.5695 61.118C98.0173 61.118 97.7967 61.4672 98.1355 61.806C98.3788 62.0497 100.913 62.0507 101.261 61.8074C101.713 61.4899 101.535 61.2202 100.806 61.1218C100.182 61.038 100.111 60.8199 100.107 58.9781C100.103 56.9329 100.087 56.9012 99.028 56.861C98.3627 56.8354 98.1923 56.8634 98.0527 57.0214ZM112.198 57.1714C111.089 57.6091 110.807 58.1566 110.807 59.8753C110.807 61.8268 111.174 62.1122 113.985 62.3493C114.878 62.4245 115.317 62.1888 115.086 61.7578C115.024 61.6413 114.962 61.5443 114.95 61.542C114.937 61.5391 114.309 61.471 113.554 61.3901C112.036 61.2273 111.77 61.1019 111.77 60.5511V60.2307L113.027 60.3187C115.323 60.4796 115.248 60.5198 115.248 59.1404C115.248 57.5017 113.773 56.5496 112.198 57.1714ZM137.838 58.0421C137.75 58.3511 137.621 59.2057 137.551 59.9411C137.48 60.6769 137.384 61.5675 137.337 61.9205C137.29 62.274 137.217 62.9332 137.175 63.3861L137.099 64.2094L137.383 64.2809C137.796 64.3845 137.952 64.191 138.017 63.4963C138.213 61.4095 138.321 61.1686 139.259 60.7356C140.499 60.163 141.033 60.4948 140.903 61.7573C140.858 62.2002 140.821 63.0444 140.821 63.6326V64.7025L141.106 64.7357C141.436 64.774 141.451 64.739 141.62 63.5787C141.837 62.0852 141.816 60.4304 141.576 60.163C141.077 59.6089 139.965 59.4646 139.084 59.8398C138.535 60.0731 138.468 59.9212 138.613 58.7822C138.758 57.6588 138.715 57.4804 138.301 57.4804C138.025 57.4804 137.981 57.5334 137.838 58.0421ZM63.8322 58.2333C63.7678 58.353 63.7465 58.5494 63.7844 58.6696C63.8227 58.7898 63.8975 59.2815 63.951 59.7622C64.004 60.2435 64.1147 61.0461 64.197 61.5462C64.2794 62.0464 64.4052 62.8651 64.4776 63.3652C64.6286 64.4143 64.8202 64.8634 65.117 64.8634C65.469 64.8634 65.5542 64.5355 65.4288 63.6695C65.3663 63.2375 65.2892 62.5788 65.257 62.2064L65.1993 61.5292L65.6668 61.0934C66.1656 60.6282 66.6695 60.3679 67.0675 60.3708C67.5918 60.3746 67.6022 60.4015 68.003 62.7846C68.172 63.7897 68.3679 64.2695 68.6253 64.3079C69.1051 64.3793 69.1553 63.803 68.8099 62.1884C68.7275 61.8055 68.6315 61.2675 68.596 60.9921C68.3972 59.4551 67.0311 59.0127 65.5698 60.0126C64.8912 60.4773 64.8997 60.4834 64.7942 59.4376C64.6631 58.1387 64.1956 57.5538 63.8322 58.2333ZM114.113 58.3256C114.873 59.0354 114.493 59.5337 113.257 59.4495C111.773 59.3477 111.77 59.3463 111.77 58.8769C111.77 58.0213 113.381 57.6423 114.113 58.3256ZM60.1961 58.5224C59.8137 58.6024 59.2837 58.7198 59.0192 58.7836C58.7542 58.8475 58.2819 58.9379 57.9701 58.9843C57.0814 59.1158 56.8931 59.2876 56.9569 59.9089C57.0393 60.7072 57.7207 61.0224 57.8418 60.3183C57.8802 60.0968 57.9829 59.969 58.1778 59.9004C58.7485 59.6998 58.7107 59.6094 59.3537 62.7231C59.4697 63.2824 59.6097 63.9137 59.6661 64.1266C59.7224 64.3396 59.7683 64.6538 59.7683 64.8251C59.7683 65.2865 60.0498 65.6314 60.3939 65.5917C60.7611 65.5491 60.8032 65.2666 60.5898 64.2781C60.5008 63.8645 60.3465 63.1163 60.2476 62.6161C60.1487 62.116 60.0049 61.418 59.9282 61.0645C59.6807 59.9264 59.6651 59.7499 59.7995 59.6463C60.1255 59.3946 60.32 59.4116 60.604 59.7163C61.027 60.1706 61.3739 60.0201 61.3715 59.3827C61.3687 58.3843 61.2565 58.3019 60.1961 58.5224ZM72.5548 58.6161C71.9174 58.7079 71.784 58.7638 71.4546 59.0789C70.8035 59.7012 70.7732 59.8006 70.8551 61.0631C71.0084 63.4381 71.8299 63.9984 74.4761 63.5318C76.3211 63.2067 75.9671 62.442 74.0895 62.6975C72.8596 62.8646 72.4072 62.8192 72.119 62.5007C71.6988 62.0365 72.0353 61.8732 73.8604 61.6541C75.2819 61.4838 75.3444 61.435 75.307 60.5321C75.245 59.0255 74.2962 58.3653 72.5548 58.6161ZM73.9021 59.572C74.3062 59.7807 74.556 60.5236 74.2811 60.6992C74.1339 60.7934 71.9364 60.9386 71.8573 60.8596C71.4333 60.4356 71.907 59.6468 72.6618 59.5204C73.4591 59.3875 73.5533 59.3912 73.9021 59.572ZM151.505 59.5157C151.148 59.6548 151.135 59.6969 150.657 62.3488C150.019 65.8893 149.998 66.1818 150.376 66.2357C150.687 66.2797 150.932 66.0819 150.933 65.7862C150.934 65.3134 151.165 64.7489 151.428 64.5767C151.738 64.3732 151.671 64.314 152.862 65.8472C153.581 66.7742 153.853 67.0028 154.142 66.9276C154.653 66.7936 154.534 66.4922 153.429 65.1185C152.449 63.9009 152.442 63.9568 153.655 63.2559C154.657 62.6767 154.899 62.4018 154.66 62.1136C154.47 61.885 154.125 61.9532 153.468 62.3488C153.127 62.5546 152.819 62.7231 152.785 62.7231C152.75 62.7231 152.494 62.8627 152.217 63.0335C151.523 63.4604 151.437 63.3747 151.574 62.3947C151.635 61.9575 151.728 61.4554 151.781 61.2789C152.099 60.2094 151.962 59.3373 151.505 59.5157ZM145.395 60.5937C145 61.0049 145.284 61.1875 146.744 61.4606C147.283 61.5609 147.448 61.639 147.537 61.8344C147.678 62.1439 147.474 62.6668 147.246 62.5797C145.938 62.0776 144.358 62.2986 143.981 63.0364C143.24 64.4891 144.097 65.4952 146.127 65.5581C146.75 65.5775 147.245 65.6466 147.385 65.7341C147.71 65.9367 147.966 65.7469 148.07 65.2268C148.116 64.9973 148.202 64.5932 148.261 64.3282C148.496 63.2739 148.444 61.3806 148.173 61.0905C147.75 60.6372 145.705 60.2719 145.395 60.5937ZM158.1 63.1821C157.501 63.4992 157.29 63.7978 157.069 64.6491C156.504 66.8244 156.97 67.7434 158.832 68.1271C159.224 68.2085 159.727 68.3207 159.95 68.3775C160.626 68.5488 160.856 68.4049 160.779 67.8593C160.746 67.6312 160.622 67.5919 158.54 67.1523C158.225 67.0856 157.673 66.5149 157.673 66.2556C157.673 65.9859 157.995 65.9348 158.655 66.0994C161.306 66.761 161.352 66.7435 161.598 64.9571C161.711 64.1423 160.852 63.2422 159.784 63.0562C158.825 62.8892 158.625 62.9043 158.1 63.1821ZM146.221 63.3179C147.888 63.6657 147.646 64.6491 145.894 64.6491C144.742 64.6491 144.242 64.0486 144.852 63.3988C145.128 63.1055 145.185 63.1021 146.221 63.3179ZM160.483 64.4337C160.766 64.748 160.799 65.0655 160.587 65.4374C160.513 65.5671 158.89 65.321 158.288 65.0891C157.749 64.8809 158.004 64.094 158.667 63.9222C159.21 63.7817 160.13 64.041 160.483 64.4337Z" fill="#FBFDFD"/>
</svg>
