<svg width="1366" height="1113" viewBox="0 0 1366 1113" fill="none" xmlns="http://www.w3.org/2000/svg">
<rect width="1366" height="917" fill="#FE7F0C"/>
<path d="M989.462 1002.1H980.323C971.116 1002.1 953.044 1002.1 934.492 998.578C916.146 994.788 898.074 988.14 879.522 998.578C861.175 1009.42 843.104 1037.34 824.552 1044.65C806.205 1051.97 788.134 1037.34 769.581 1041.13C751.235 1044.65 733.164 1065.93 714.611 1080.09C696.265 1094.52 678.194 1101.17 659.641 1104.96C641.295 1108.48 623.223 1108.48 604.671 1097.84C586.325 1087.2 568.253 1065.93 549.701 1034.02C531.355 1002.1 513.283 959.551 494.731 959.551C476.385 959.551 458.313 1002.1 439.761 1026.9C421.414 1051.97 403.343 1058.61 384.791 1041.13C366.444 1023.38 348.373 980.826 329.82 991.464C311.474 1002.1 293.403 1065.93 274.85 1094.32C256.504 1122.44 238.433 1115.79 219.88 1094.32C201.534 1073.24 183.463 1037.34 164.91 1019.85C146.564 1002.1 128.492 1002.1 109.94 1019.85C91.5938 1037.34 73.5223 1073.24 54.9699 1062.4C36.6236 1051.97 18.5522 994.788 8.93244 966.665L-0.000186682 938.275V917H9.13865C18.3461 917 36.4175 917 54.9699 917C73.3162 917 91.3876 917 109.94 917C128.286 917 146.358 917 164.91 917C183.256 917 201.328 917 219.88 917C238.227 917 256.298 917 274.85 917C293.197 917 311.268 917 329.82 917C348.167 917 366.238 917 384.791 917C403.137 917 421.208 917 439.761 917C458.107 917 476.178 917 494.731 917C513.077 917 531.149 917 549.701 917C568.047 917 586.119 917 604.671 917C623.017 917 641.089 917 659.641 917C677.987 917 696.059 917 714.611 917C732.958 917 751.029 917 769.581 917C787.928 917 805.999 917 824.552 917C842.898 917 860.969 917 879.522 917C897.868 917 915.939 917 934.492 917C952.838 917 970.909 917 980.529 917H989.462V1002.1Z" fill="#FE7F0C"/>
<path d="M1366 988.208H1356.9C1347.74 988.208 1329.75 988.208 1311.28 985.259C1293.01 982.088 1275.02 976.525 1256.56 985.259C1238.29 994.327 1220.3 1017.69 1201.83 1023.81C1183.57 1029.93 1165.58 1017.69 1147.11 1020.86C1128.85 1023.81 1110.86 1041.61 1092.39 1053.46C1074.13 1065.53 1056.14 1071.1 1037.67 1074.27C1019.4 1077.22 1001.41 1077.22 982.944 1068.32C964.681 1059.42 946.691 1041.61 928.222 1014.91C909.959 988.208 891.969 952.604 873.5 952.604C855.236 952.604 837.247 988.208 818.778 1008.96C800.514 1029.93 782.524 1035.49 764.056 1020.86C745.792 1006.01 727.802 970.406 709.333 979.307C691.07 988.208 673.08 1041.61 654.611 1065.37C636.348 1088.9 618.358 1083.34 599.889 1065.37C581.625 1047.73 563.635 1017.69 545.167 1003.06C526.903 988.208 508.913 988.208 490.444 1003.06C472.181 1017.69 454.191 1047.73 435.722 1038.67C417.459 1029.93 399.469 982.088 389.892 958.556L381 934.802V917H390.098C399.264 917 417.253 917 435.722 917C453.986 917 471.976 917 490.444 917C508.708 917 526.698 917 545.167 917C563.43 917 581.42 917 599.889 917C618.152 917 636.142 917 654.611 917C672.875 917 690.865 917 709.333 917C727.597 917 745.587 917 764.056 917C782.319 917 800.309 917 818.778 917C837.041 917 855.031 917 873.5 917C891.764 917 909.753 917 928.222 917C946.486 917 964.476 917 982.944 917C1001.21 917 1019.2 917 1037.67 917C1055.93 917 1073.92 917 1092.39 917C1110.65 917 1128.64 917 1147.11 917C1165.37 917 1183.36 917 1201.83 917C1220.1 917 1238.09 917 1256.56 917C1274.82 917 1292.81 917 1311.28 917C1329.54 917 1347.53 917 1357.11 917H1366V988.208Z" fill="#FE7F0C"/>
</svg>
