<svg width="28" height="35" viewBox="0 0 28 35" fill="none" xmlns="http://www.w3.org/2000/svg">
<path d="M13.6599 17.9694C14.5936 17.9694 15.3932 17.6366 16.0587 16.9711C16.7242 16.3056 17.0564 15.5065 17.0553 14.5739C17.0553 13.6402 16.7225 12.8406 16.057 12.175C15.3915 11.5095 14.5925 11.1774 13.6599 11.1785C12.7261 11.1785 11.9265 11.5112 11.261 12.1767C10.5955 12.8422 10.2633 13.6413 10.2644 14.5739C10.2644 15.5077 10.5972 16.3073 11.2627 16.9728C11.9282 17.6383 12.7272 17.9705 13.6599 17.9694ZM13.6599 34.3099C13.4335 34.3099 13.2071 34.2674 12.9808 34.1825C12.7544 34.0977 12.5563 33.9845 12.3866 33.843C8.25546 30.1929 5.17127 26.8043 3.13402 23.6771C1.09676 20.5499 0.078125 17.6287 0.078125 14.9135C0.078125 10.6692 1.44366 7.28789 4.17472 4.76961C6.90578 2.25133 10.0675 0.992188 13.6599 0.992188C17.2534 0.992188 20.4156 2.25133 23.1467 4.76961C25.8778 7.28789 27.2427 10.6692 27.2416 14.9135C27.2416 17.6298 26.223 20.5516 24.1857 23.6788C22.1484 26.806 19.0643 30.194 14.9331 33.843C14.7634 33.9845 14.5653 34.0977 14.3389 34.1825C14.1126 34.2674 13.8862 34.3099 13.6599 34.3099Z" fill="#FE7F0C"/>
</svg>
