<?xml version="1.0" encoding="UTF-8"?>
<!DOCTYPE svg PUBLIC "-//W3C//DTD SVG 1.1//EN" "http://www.w3.org/Graphics/SVG/1.1/DTD/svg11.dtd">
<!-- Creator: CorelDRAW -->
<svg xmlns="http://www.w3.org/2000/svg" xml:space="preserve" width="8.26772in" height="11.6929in" style="shape-rendering:geometricPrecision; text-rendering:geometricPrecision; image-rendering:optimizeQuality; fill-rule:evenodd; clip-rule:evenodd"
viewBox="0 0 8.26772 11.6929"
 xmlns:xlink="http://www.w3.org/1999/xlink">
 <defs>
  <style type="text/css">
   <![CDATA[
    .fil0 {fill:#F0811A}
    .fil1 {fill:#FEFEFE}
   ]]>
  </style>
 </defs>
 <g id="Layer_x0020_1">
  <metadata id="CorelCorpID_0Corel-Layer"/>
  <g id="_547003312">
   <path id="_541807248" class="fil0" d="M4.13386 2.14908c2.042,0 3.69737,1.65537 3.69737,3.69737 0,2.042 -1.65537,3.69737 -3.69737,3.69737 -2.042,0 -3.69737,-1.65537 -3.69737,-3.69737 0,-2.042 1.65537,-3.69737 3.69737,-3.69737z"/>
   <path id="_541807224" class="fil1" d="M1.09556 5.54085c-0.0146299,-0.0429803 -0.0271575,-0.0902323 -0.0373701,-0.14111 -0.00988976,-0.0509882 -0.0167087,-0.103382 -0.0201339,-0.157283 -0.00342126,-0.0539016 -0.00258268,-0.106764 0.00251181,-0.158594 0.00541732,-0.0519331 0.0159646,-0.100287 0.0319528,-0.145165 0.0159882,-0.044874 0.0382913,-0.0837323 0.0671181,-0.116988 0.0286181,-0.0328307 0.0647323,-0.0572008 0.108343,-0.0731102 0.0401181,-0.0136535 0.0788268,-0.014748 0.11665,-0.0038189 0.0374016,0.0107205 0.0737953,0.0310197 0.108126,0.0609016 0.0346457,0.0297717 0.0672047,0.0659409 0.0981063,0.108717 0.0308976,0.0427756 0.0595906,0.0894961 0.0858543,0.139531 0.026374,0.0503543 0.0502008,0.101575 0.0714843,0.153661 0.0215984,0.0519803 0.0397795,0.102276 0.0553976,0.150252 0.00953937,0.0280197 0.0228583,0.0494173 0.0399685,0.0642008 0.0170039,0.0144646 0.0359882,0.0232795 0.0562165,0.0263425 0.0202283,0.00306299 0.0401024,0.000917323 0.0595236,-0.00569291 0.019315,-0.00692913 0.0362638,-0.0176693 0.0504213,-0.032437 0.0144803,-0.014874 0.023937,-0.0330157 0.0289094,-0.0538937 0.00486614,-0.0211929 0.00290945,-0.044685 -0.00575984,-0.0701575 -0.0183031,-0.0527441 -0.0407677,-0.107272 -0.0679252,-0.163043 -0.0269409,-0.0562008 -0.058126,-0.110244 -0.0937638,-0.162776 -0.0353228,-0.0526339 -0.0750827,-0.100567 -0.118965,-0.143894 -0.0437677,-0.0430118 -0.0916378,-0.0782362 -0.143606,-0.105669 -0.0519685,-0.0274291 -0.107697,-0.0439882 -0.167189,-0.0496772 -0.0598071,-0.00558268 -0.123142,0.00247638 -0.190433,0.0250197 -0.0706732,0.025122 -0.13098,0.0587913 -0.181449,0.10048 -0.0501535,0.0415827 -0.0915472,0.0890669 -0.123862,0.142343 -0.032315,0.0532756 -0.0570591,0.110012 -0.0735906,0.169992 -0.0166417,0.0596654 -0.0265787,0.120248 -0.0294882,0.181634 -0.00322835,0.0614921 -0.00104724,0.121146 0.00697638,0.179165 0.00791339,0.0577008 0.0205906,0.111654 0.0373858,0.161004 0.0326102,0.0947677 0.0702126,0.171854 0.112913,0.230508 0.0424882,0.0590787 0.0886102,0.10378 0.138472,0.134413 0.0498622,0.0306378 0.101465,0.0507323 0.155236,0.0605 0.0537717,0.00976378 0.107819,0.0130394 0.162469,0.00971654 0.0545354,-0.0036378 0.10789,-0.00971654 0.160268,-0.0186614 0.0522677,-0.00926378 0.102098,-0.0173425 0.149063,-0.0244449 0.0472835,-0.00720866 0.0901299,-0.0097126 0.12865,-0.00718898 0.0387244,0.00209449 0.0716614,0.0132677 0.0987953,0.0324528 0.0272441,0.0195039 0.0472244,0.0510748 0.0597323,0.0951339 0.0116614,0.0447008 0.0139488,0.0869134 0.00643307,0.126417 -0.00740551,0.0398228 -0.0222795,0.0765039 -0.0446142,0.110043 -0.022126,0.0331063 -0.0498071,0.0624252 -0.0824055,0.0877283 -0.0330276,0.0250945 -0.0690591,0.0455315 -0.108528,0.0610945 -0.0404213,0.0158898 -0.0818386,0.0257205 -0.12478,0.0300315 -0.0430472,0.00399606 -0.0847559,0.00149213 -0.125976,-0.0079252 -0.0409016,-0.00952756 -0.0789764,-0.0264134 -0.113591,-0.0508701 -0.0349331,-0.0243504 -0.0642795,-0.0573465 -0.0883661,-0.0988858 -0.00849213,-0.0145197 -0.0174882,-0.024248 -0.0275118,-0.0286496 -0.00959843,-0.00419685 -0.0182165,-0.00446063 -0.0255315,-0.000905512 -0.00752756,0.00398425 -0.0124803,0.0113543 -0.0142205,0.0218937 -0.00206299,0.0106496 0.000464567,0.0232874 0.00747244,0.0386654 0.0312244,0.0604291 0.0688583,0.10837 0.113008,0.14415 0.0441535,0.0357756 0.0924882,0.0608898 0.144697,0.0754528 0.0524134,0.0141339 0.10637,0.0192205 0.16239,0.0147205 0.055815,-0.0040748 0.110933,-0.0164409 0.165157,-0.0366693 0.0493425,-0.0178622 0.0962087,-0.0409173 0.140272,-0.0690591 0.0443858,-0.028252 0.0841732,-0.060622 0.119681,-0.0972205 0.0355039,-0.0365945 0.0646102,-0.0763425 0.0877402,-0.119031 0.023126,-0.042689 0.0380551,-0.0875591 0.0449961,-0.133972 0.00714961,-0.0468425 0.00419291,-0.0941535 -0.00834252,-0.142469 -0.0173346,-0.0676378 -0.0420315,-0.121406 -0.0736575,-0.161091 -0.031622,-0.039685 -0.068815,-0.0685945 -0.111579,-0.0867244 -0.0424449,-0.0182402 -0.0888898,-0.0294331 -0.138902,-0.0333701 -0.0500118,-0.00394094 -0.102232,-0.00393307 -0.156346,-8.26772e-005 -0.0542165,0.0035315 -0.10865,0.00749213 -0.163394,0.0115591 -0.0550669,0.00417323 -0.108346,0.00525591 -0.160579,0.0031378 -0.0522362,-0.00211811 -0.10111,-0.011063 -0.147154,-0.0263031 -0.0458307,-0.0156654 -0.0871496,-0.0410354 -0.123429,-0.0766496 -0.0365984,-0.0355079 -0.0664764,-0.0846693 -0.0899488,-0.147378z"/>
   <path id="_541807104" class="fil1" d="M3.07322 5.69713c-0.00323228,0.038811 -0.00745276,0.0778307 -0.0130591,0.116791 -0.00520866,0.0392244 -0.0122047,0.0781339 -0.0205827,0.116992 -0.00825591,0.0377953 -0.0177717,0.0744843 -0.0291417,0.110531 -0.0117008,0.0361102 -0.0246772,0.0693976 -0.0399882,0.0997362 -0.0149803,0.0302717 -0.0320472,0.0554803 -0.0515315,0.0756969 -0.0190906,0.0204764 -0.040811,0.0332598 -0.0649685,0.0393346 -0.0277244,0.00544488 -0.0540709,-0.00554724 -0.0791024,-0.0333031 -0.0246378,-0.0274921 -0.0482677,-0.0682559 -0.0702283,-0.122421 -0.0218937,-0.0538346 -0.0424173,-0.117575 -0.0615039,-0.190894 -0.0190906,-0.0733189 -0.0367126,-0.152783 -0.0529409,-0.238724 -0.0165551,-0.0858701 -0.0316181,-0.174461 -0.045185,-0.265764 -0.0136378,-0.0916339 -0.025752,-0.182559 -0.0366693,-0.272697 -0.0109882,-0.0904724 -0.0207559,-0.176728 -0.0289685,-0.258846 -0.00854331,-0.0820472 -0.0155748,-0.156854 -0.0213504,-0.224016 -0.00585039,-0.0674961 -0.0107441,-0.123846 -0.0140315,-0.169201 -0.0021063,-0.0232677 -0.00945669,-0.0420039 -0.0223031,-0.055811 -0.0125157,-0.013878 -0.0282992,-0.0236378 -0.0469449,-0.0290236 -0.0185787,-0.00505118 -0.0381142,-0.0064685 -0.0584685,-0.00359449 -0.0204291,0.00254724 -0.0389724,0.00916929 -0.0564331,0.0193425 -0.0171299,0.0101024 -0.0307992,0.0236102 -0.040685,0.0404488 -0.00988189,0.0168346 -0.0140039,0.0365945 -0.0119606,0.0595276 0.0045315,0.044752 0.00993307,0.0985945 0.0162756,0.161862 0.00600787,0.0633346 0.013063,0.133327 0.021563,0.210228 0.00810236,0.0766417 0.017685,0.157098 0.028563,0.242094 0.0108071,0.0846693 0.0232756,0.170705 0.0374016,0.258114 0.014063,0.0870827 0.0299606,0.173091 0.0480236,0.257961 0.0176693,0.0846063 0.0379409,0.165236 0.0601575,0.242024 0.0221496,0.0764606 0.0470787,0.146496 0.0743268,0.20952 0.027315,0.0633543 0.057122,0.117256 0.0900827,0.161567 0.0326969,0.0447047 0.0686535,0.0770512 0.107283,0.0975039 0.0389567,0.0203819 0.0813504,0.0259606 0.12685,0.0168031 0.0391063,-0.00850787 0.0735866,-0.0260157 0.104169,-0.0523307 0.0305787,-0.026311 0.0572205,-0.0583307 0.0800472,-0.0971102 0.0228898,-0.0384488 0.0423228,-0.0802992 0.0586299,-0.125622 0.0163031,-0.0453189 0.0293031,-0.0916654 0.0397913,-0.13852 0.0103071,-0.0444134 0.018437,-0.0894016 0.0251102,-0.134772 0.0066063,-0.0457008 0.0121535,-0.0915197 0.0169094,-0.137866l-0.0691378 0.014437z"/>
   <path id="_541807008" class="fil1" d="M4.45139 5.54069c-0.00793701,0.038126 -0.0168819,0.0763386 -0.0271969,0.114327 -0.00994882,0.0382992 -0.0216299,0.0760669 -0.0346811,0.11361 -0.0128543,0.0358425 -0.0267992,0.0707598 -0.0424764,0.10515 -0.0157047,0.0340551 -0.0330039,0.0652047 -0.051563,0.0934252 -0.0188898,0.0282441 -0.0389331,0.0508504 -0.0607047,0.068878 -0.0214685,0.0176654 -0.0445906,0.0277047 -0.0693071,0.0307913 -0.0295197,0.0021378 -0.054689,-0.00823622 -0.0755354,-0.0314646 -0.021185,-0.0231969 -0.0387717,-0.0558071 -0.0527598,-0.0978346 -0.0140157,-0.0423622 -0.0251575,-0.0907008 -0.0337638,-0.144992 -0.00829528,-0.0546535 -0.0148071,-0.112154 -0.0191693,-0.172201 -0.00438976,-0.0603819 -0.00741339,-0.120539 -0.00903937,-0.180138 -0.00162205,-0.0596024 -0.00294094,-0.115516 -0.00330315,-0.168134 -0.000673228,-0.0522559 -0.00111811,-0.0977795 -0.00200394,-0.13652 -0.000598425,-0.019185 -0.00694488,-0.0345157 -0.0187087,-0.0460157 -0.0117677,-0.0115 -0.026937,-0.0193386 -0.0455394,-0.0238543 -0.0186024,-0.00451181 -0.0379606,-0.0059252 -0.0587087,-0.00384646 -0.0204173,0.00204724 -0.0396024,0.00669291 -0.0578622,0.0143031 -0.0179291,0.00757874 -0.0325827,0.0179173 -0.0433307,0.0306339 -0.0110787,0.0127402 -0.0162402,0.027685 -0.0154764,0.0448346 0.00188976,0.0305551 0.00405906,0.0644567 0.00622835,0.102413 0.00250787,0.0379252 0.0052126,0.0782008 0.00883858,0.121433 0.00362598,0.0432323 0.00772835,0.0881102 0.0129488,0.134248 0.00161417,0.0353031 0.00255906,0.0747087 0.00213386,0.117945 -0.00042126,0.0432362 -0.00277165,0.0876457 -0.00668504,0.133535 -0.00391339,0.0458898 -0.010311,0.0902992 -0.0191969,0.133232 -0.00922047,0.0429606 -0.021126,0.0820945 -0.0367441,0.117157 -0.0152874,0.0350315 -0.0348504,0.0633346 -0.0579921,0.085189 -0.0234764,0.0218819 -0.0514528,0.0343543 -0.0842677,0.0374409 -0.0342677,0.00186614 -0.0640748,-0.00744882 -0.0890551,-0.027626 -0.0246732,-0.0205433 -0.0456378,-0.0491575 -0.0626102,-0.0865472 -0.0169724,-0.0373858 -0.0306811,-0.0801102 -0.0415197,-0.128815 -0.0104724,-0.0483937 -0.0185157,-0.100031 -0.0240748,-0.15424 -0.00525591,-0.0545709 -0.00916535,-0.109256 -0.011374,-0.163744 -0.00190551,-0.0548504 -0.00290945,-0.107079 -0.00301969,-0.156681 -8.66142e-005,-0.0492677 0.000251969,-0.0935079 0.000704724,-0.132358 0.000456693,-0.0388504 0.000551181,-0.0699055 7.87402e-006,-0.0924724 -0.000933071,-0.0191614 -0.00761811,-0.0344606 -0.0193819,-0.0459606 -0.0120984,-0.0114724 -0.0272717,-0.019315 -0.045874,-0.0238268 -0.0182677,-0.00454331 -0.0379606,-0.00592913 -0.058374,-0.00387795 -0.0204173,0.00205118 -0.0396024,0.00669685 -0.0575276,0.0142756 -0.0179252,0.00757874 -0.032248,0.0178937 -0.0433307,0.0306339 -0.0107441,0.0127126 -0.0159016,0.0276614 -0.0151378,0.0448071 0.00180315,0.0335984 0.00420079,0.0742323 0.00648819,0.12163 0.00262598,0.0473661 0.00628346,0.0990354 0.0109803,0.155 0.00466929,0.0556339 0.0111811,0.113138 0.0195079,0.172173 0.00866142,0.0590118 0.0196142,0.117154 0.0335,0.174039 0.0138858,0.0568858 0.0312047,0.110441 0.0518976,0.160008 0.0210315,0.0495315 0.0462756,0.0929764 0.0753701,0.130024 0.0294291,0.0370157 0.064189,0.0651496 0.10361,0.0844567 0.039752,0.0192756 0.0852835,0.0269331 0.136587,0.0229646 0.0465551,-0.00424016 0.0865433,-0.0183976 0.120323,-0.0421535 0.0334764,-0.0233976 0.0616102,-0.0541063 0.0844094,-0.0921339 0.0224882,-0.0376614 0.0408701,-0.0800394 0.0545039,-0.126744 0.0136299,-0.0467047 0.0237126,-0.0954764 0.0306102,-0.146004 0.013437,0.0515236 0.0292441,0.0991339 0.0477835,0.143138 0.0182087,0.0440354 0.0396496,0.0823976 0.0643307,0.115091 0.024315,0.0323858 0.0523976,0.0573661 0.0841929,0.0742717 0.0314291,0.0166024 0.067126,0.0237323 0.106701,0.020748 0.0398543,-0.0036811 0.0762087,-0.0168543 0.109768,-0.0392441 0.0335591,-0.0223898 0.0639016,-0.0509213 0.0916181,-0.0866614 0.0274055,-0.0353701 0.0521299,-0.0745709 0.0741693,-0.117594 0.0217047,-0.0429961 0.0409252,-0.0874685 0.057378,-0.132724 0.0146378,-0.0427402 0.0278543,-0.086374 0.0396693,-0.130567 0.0117913,-0.0445236 0.0228819,-0.0893268 0.0332441,-0.134748l-0.0702087 0.00791732z"/>
   <path id="_541807392" class="fil1" d="M5.05794 5.03606c-0.042374,-0.000555118 -0.0805472,0.00704724 -0.114528,0.0231496 -0.0339724,0.0157677 -0.0640433,0.0380079 -0.0902008,0.0660512 -0.0261575,0.0280394 -0.0487087,0.0605315 -0.0676339,0.0964646 0.000291339,-0.0137874 0.000909449,-0.0272323 0.00217323,-0.039315 0.000937008,-0.0124252 0.00218898,-0.0238386 0.00342913,-0.0349134 0.00149213,-0.0228425 -0.00314173,-0.0424488 -0.0132244,-0.058811 -0.0104173,-0.0163661 -0.0242756,-0.0291063 -0.0419055,-0.0385591 -0.0176378,-0.00911811 -0.036689,-0.0149055 -0.0571732,-0.0166811 -0.0204764,-0.00211417 -0.0400354,0.000161417 -0.059,0.00615354 -0.018626,0.006 -0.034315,0.0160984 -0.0467244,0.0302992 -0.0127559,0.0145315 -0.019878,0.0332205 -0.0217126,0.0563937 -0.00209055,0.0352756 -0.00434252,0.0782874 -0.00742913,0.12902 -0.00309843,0.0510669 -0.00629921,0.107177 -0.00962992,0.169339 -0.00298819,0.0618346 -0.00605118,0.127366 -0.00918898,0.196264 -0.00279921,0.0689016 -0.00495669,0.139161 -0.00680315,0.210776 -0.00184646,0.0716142 -0.00266535,0.14224 -0.00246457,0.212551 0.000216535,0.0215354 0.00588583,0.0398189 0.016685,0.0541732 0.0107953,0.0143583 0.0246929,0.0254173 0.0420354,0.0325118 0.0173346,0.00742913 0.0354213,0.0111732 0.0549291,0.011248 0.0195039,0.000413386 0.0380748,-0.0028937 0.055374,-0.00959449 0.0172953,-0.00669685 0.0316299,-0.0164882 0.0430197,-0.0300394 0.0110433,-0.0132244 0.0171142,-0.0299134 0.0178701,-0.049748 0.00118504,-0.0881102 0.0043622,-0.174831 0.00883071,-0.259173 0.00448031,-0.0846772 0.00793701,-0.168705 0.0100236,-0.251752 0.00269291,-0.0318976 0.00710236,-0.0654449 0.0135551,-0.100295 0.00646063,-0.035185 0.0155984,-0.0696417 0.0274055,-0.103031 0.0114685,-0.0333976 0.0262362,-0.0636969 0.0439685,-0.0909094 0.0177283,-0.0272087 0.039374,-0.0486181 0.0645945,-0.0642323 0.0252323,-0.0159528 0.055,-0.0237323 0.0886299,-0.0233583 0.0252126,0.000866142 0.0441929,0.0100118 0.0569606,0.0267677 0.0127638,0.016752 0.0213898,0.0384646 0.0252087,0.0647835 0.00381496,0.0263189 0.00490157,0.0545984 0.00293307,0.0841614 -0.00164173,0.0299055 -0.00459055,0.0580984 -0.00851969,0.0849291 -0.00426772,0.0268189 -0.00777165,0.0492835 -0.0108346,0.0670472 -0.00314567,0.0214646 0.000169291,0.0397008 0.00961417,0.0543622 0.00944094,0.0150039 0.0229921,0.0263898 0.0406496,0.0345 0.0173228,0.00810236 0.0363976,0.012878 0.0572283,0.0139921 0.0205039,0.000767717 0.0407441,-0.00183071 0.0600512,-0.00815354 0.0193071,-0.0063189 0.0353307,-0.0164094 0.0487441,-0.0302559 0.0134134,-0.0138465 0.021185,-0.0315118 0.0236654,-0.0533228 0.00416929,-0.0382638 0.0070315,-0.0782323 0.00859055,-0.120248 0.00155118,-0.0416811 -0.000271654,-0.0827598 -0.00582283,-0.122575 -0.00555118,-0.039811 -0.017563,-0.0763937 -0.0353819,-0.108728 -0.017811,-0.0326693 -0.0441654,-0.0591299 -0.0794016,-0.0790472 -0.0352402,-0.0199173 -0.0814331,-0.0306496 -0.138591,-0.0321929z"/>
   <path id="_541807536" class="fil1" d="M6.00427 5.06401c-0.0320039,-0.00427559 -0.0637362,0.00134252 -0.0948622,0.0169055 -0.0310787,0.0152283 -0.0611693,0.0377323 -0.0905512,0.0671378 -0.0293858,0.0294055 -0.0573504,0.0630906 -0.0839409,0.101394 0.00459055,-0.017689 0.0091811,-0.035378 0.0141024,-0.0530157 0.00458661,-0.017689 0.00984252,-0.0352795 0.0154291,-0.0528228 0.00559449,-0.0222992 0.00471654,-0.0421378 -0.00263386,-0.0595079 -0.00735039,-0.0173701 -0.0188898,-0.0316063 -0.0345709,-0.0430394 -0.0157283,-0.0111024 -0.0336024,-0.0191181 -0.0533819,-0.0233268 -0.0200669,-0.00459449 -0.0397598,-0.0047126 -0.059311,-0.00107874 -0.0195551,0.0036378 -0.0370197,0.0116535 -0.0520669,0.0240984 -0.0147598,0.0128228 -0.025437,0.030311 -0.0314134,0.0528976 -0.0255787,0.101992 -0.051874,0.208972 -0.0786063,0.321335 -0.026685,0.112024 -0.0535197,0.227425 -0.0804016,0.345539 -0.0269291,0.118449 -0.0536732,0.237941 -0.0798898,0.358528 -0.0262205,0.120587 -0.0512992,0.240319 -0.0759488,0.359437 -0.0242677,0.118831 -0.047437,0.23476 -0.0692244,0.348169 -0.0214055,0.113126 -0.0414764,0.221689 -0.0594449,0.325118 -0.00498425,0.0298622 -0.00325591,0.0555984 0.00456299,0.0767717 0.00815354,0.0212244 0.0203543,0.037937 0.0369409,0.0501811 0.016252,0.0121969 0.0348858,0.0196417 0.0552402,0.0222362 0.0203031,0.0029252 0.0403307,0.000716535 0.0600315,-0.00629921 0.0197008,-0.00701181 0.0367913,-0.0195 0.0515118,-0.036748 0.0143858,-0.0172913 0.0240709,-0.0396811 0.028815,-0.0678819 0.019563,-0.121547 0.0416535,-0.248846 0.0659882,-0.38228 0.0239528,-0.133146 0.0500512,-0.269382 0.0779134,-0.408421 0.0278583,-0.139043 0.0570984,-0.278224 0.0873386,-0.41726 0.00876378,0.0287874 0.0206181,0.0549606 0.0362362,0.078622 0.0156181,0.0236575 0.0351417,0.0438031 0.0592835,0.0601969 0.0241417,0.0163898 0.0530945,0.0277008 0.0874724,0.0343583 0.0610591,0.0101614 0.117902,0.00714173 0.17124,-0.00929528 0.0533425,-0.0164331 0.102031,-0.0430551 0.146126,-0.0801929 0.0440433,-0.0368031 0.0830551,-0.0811299 0.116319,-0.132744 0.0335512,-0.0512283 0.0613071,-0.107035 0.0828346,-0.166791 0.0215276,-0.0597598 0.0360669,-0.120528 0.0443268,-0.182543 0.0079252,-0.0620591 0.00843307,-0.12213 0.0014685,-0.179882 -0.00725197,-0.0581299 -0.0224055,-0.110949 -0.0460748,-0.158874 -0.0233425,-0.047878 -0.0556339,-0.087874 -0.0973071,-0.119366 -0.0412913,-0.0317795 -0.0927283,-0.0521063 -0.153551,-0.0615551zm-0.278677 0.999618c-0.0264843,-0.00483858 -0.0481142,-0.0150906 -0.0645984,-0.0303819 -0.0164843,-0.0152874 -0.0290669,-0.0340906 -0.0374567,-0.0560315 -0.00872441,-0.0219843 -0.0147795,-0.0459646 -0.0176024,-0.0711772 -0.00315354,-0.0252598 -0.00426378,-0.050563 -0.00370866,-0.0756299 0.000555118,-0.0250669 0.00187008,-0.0483228 0.00389764,-0.069437 0.0107598,-0.0463622 0.0218543,-0.0926732 0.0335669,-0.138555 0.0114252,-0.0462677 0.0230906,-0.0918189 0.0347047,-0.137035 0.0139803,-0.0309488 0.0293819,-0.0623661 0.0468307,-0.0938307 0.0171654,-0.0318465 0.035752,-0.0617874 0.0555276,-0.0905394 0.020063,-0.0283701 0.0410197,-0.0535512 0.0625,-0.0752598 0.0218622,-0.0219921 0.0442835,-0.0384685 0.0673189,-0.0497598 0.0226535,-0.0110039 0.0456811,-0.0151614 0.0690315,-0.0121339 0.0235866,0.00374016 0.042689,0.0173661 0.0573583,0.0405512 0.0146654,0.0231811 0.0252323,0.0535866 0.0313701,0.0911732 0.0061811,0.037248 0.00859843,0.0793937 0.0069685,0.126051 -0.00162598,0.0466575 -0.00659055,0.0952126 -0.0149291,0.146 -0.00834252,0.0507874 -0.0200118,0.101094 -0.0350118,0.150921 -0.0146654,0.049878 -0.0322795,0.0966102 -0.0525,0.140248 -0.0202244,0.0436339 -0.0430551,0.0817992 -0.0681654,0.114539 -0.0250591,0.0324055 -0.0523937,0.0570079 -0.0819016,0.0731417 -0.0292244,0.0165157 -0.0602913,0.0222283 -0.0932008,0.0171457z"/>
   <path id="_541807128" class="fil1" d="M6.95037 5.28579c0.00626378,-0.00545276 0.015185,-0.0160709 0.0273071,-0.0313307 0.0118976,-0.0156732 0.0243622,-0.0343465 0.0379252,-0.0565472 0.0134685,-0.0218858 0.0257283,-0.0455512 0.0366732,-0.0706772 0.0169961,-0.0412126 0.0248425,-0.0768031 0.0231181,-0.107626 -0.00149606,-0.0303898 -0.00990945,-0.0555236 -0.024685,-0.0748858 -0.0150945,-0.0194606 -0.0337953,-0.033 -0.0567205,-0.0407992 -0.0226142,-0.0077126 -0.0463701,-0.00943701 -0.0717087,-0.00495276 -0.0249961,0.00457087 -0.0488071,0.0155118 -0.0706732,0.0326811 -0.0219606,0.0174882 -0.0398543,0.0411732 -0.0532402,0.0718858 -0.0133819,0.0307047 -0.020126,0.0684055 -0.0194882,0.112961 -9.05512e-005,0.020748 0.00291732,0.0417441 0.00900394,0.063 0.00609449,0.021248 0.0148858,0.0440315 0.0263622,0.0683661 -0.0323858,0.0522835 -0.0660157,0.106299 -0.100878,0.162035 -0.0349685,0.0560709 -0.0700591,0.111402 -0.104823,0.166823 -0.0350945,0.0553228 -0.0690591,0.108177 -0.101689,0.158976 -0.0133228,-0.00587402 -0.0272323,-0.00983858 -0.042063,-0.0119646 -0.0150591,-0.00255118 -0.0292992,-0.00203543 -0.0432756,0.0010315 -0.013874,0.00274803 -0.0258543,0.00959843 -0.0360591,0.019811 -0.0105276,0.010122 -0.0175591,0.0248465 -0.0217165,0.0439803 -0.010185,0.0556378 -0.0105906,0.111492 -0.00138976,0.168209 0.0089685,0.0562953 0.0277835,0.110354 0.0564291,0.161126 0.0282165,0.0509803 0.0664134,0.0959016 0.114268,0.134661 0.0479488,0.0384449 0.105709,0.0679449 0.173146,0.0877677 0.0640315,0.0194803 0.125882,0.0266693 0.185236,0.0214488 0.0596732,-0.00510236 0.114343,-0.0202087 0.164343,-0.0452165 0.0499843,-0.0250039 0.093,-0.0581575 0.128504,-0.0989213 0.0359252,-0.0409764 0.0620512,-0.087815 0.0785866,-0.140083 0.0141024,-0.0466811 0.0197008,-0.0931772 0.0166693,-0.14024 -0.00280315,-0.0466378 -0.0119921,-0.0931417 -0.0275591,-0.139512 -0.0155669,-0.0463622 -0.0355906,-0.0919961 -0.0596417,-0.13711 -0.0240512,-0.045126 -0.0502008,-0.0891339 -0.078685,-0.132457 -0.0281654,-0.0432244 -0.0563976,-0.0850591 -0.0847126,-0.12552 -0.028311,-0.0404449 -0.0545709,-0.079563 -0.078563,-0.116921zm-0.0926142 -0.0977323c0.0173031,0.0432677 0.0456929,0.0499961 0.0844094,0.0226417 0.24228,-0.312177 -0.197898,-0.309004 -0.0844094,-0.0226417zm-0.137374 1.09963c-0.0413465,-0.0131654 -0.0731772,-0.0342913 -0.0960236,-0.0628425 -0.0228425,-0.0285512 -0.0383622,-0.0625748 -0.0465472,-0.102075 -0.00796063,-0.0390827 -0.0106811,-0.0814685 -0.00761024,-0.126638 0.0033937,-0.0450669 0.0101772,-0.0908583 0.0209921,-0.137146 0.00312205,-0.0134685 0.00370472,-0.0256142 0.00125591,-0.035878 -0.00277559,-0.0103661 -0.00659055,-0.0196417 -0.0121969,-0.0277165 -0.00591732,-0.00816929 -0.0112913,-0.015815 -0.0170866,-0.023248 0.0508622,-0.0687441 0.102689,-0.137197 0.154839,-0.205543 0.0521417,-0.0683465 0.104295,-0.136697 0.156122,-0.205142 0.0262087,0.0517756 0.0524291,0.103547 0.0784213,0.154906 0.0262205,0.0517756 0.0484055,0.104059 0.0672953,0.15674 0.0185669,0.0525748 0.0301457,0.106157 0.0342992,0.160953 0.0045748,0.0545787 -0.00198031,0.110996 -0.0194646,0.168606 -0.0137087,0.0453898 -0.0306732,0.0876693 -0.0508976,0.126823 -0.0199016,0.039252 -0.043,0.0729449 -0.0692126,0.100728 -0.0262205,0.0277953 -0.0554843,0.0472559 -0.0877913,0.0583701 -0.0322165,0.0108031 -0.0677441,0.0107087 -0.106394,-0.000897638z"/>
   <path id="_541808424" class="fil1" d="M5.03434 6.53593l-0.00235433 0.0394291c-0.00026378,0.00444882 -0.00208661,0.0081378 -0.0055315,0.0111969 -0.00344488,0.00305906 -0.00738976,0.00442126 -0.0117717,0.00415748l-0.1155 -0.0068937 -0.000570866 0.00955906c-0.000330709,0.0055748 0.00177559,0.0104291 0.00632283,0.0146299l0.00908268 0.00853543c0.00493307,0.00435827 0.00972835,0.00664567 0.014374,0.00692126l0.0840354 0.00501969c0.00438189,0.000259843 0.00813386,0.00208268 0.0111969,0.00546457 0.00306693,0.00331496 0.0044252,0.00732677 0.00415748,0.0118386 -0.000259843,0.00438189 -0.00215354,0.00812992 -0.00566535,0.011185 -0.00351181,0.00305512 -0.00738976,0.00442126 -0.0116378,0.00416929l-0.0861614 -0.00514567c-0.00570866,-0.000338583 -0.0116102,-0.00188976 -0.0177717,-0.00465748 -0.00616535,-0.00276772 -0.0106614,-0.00556693 -0.0134291,-0.00833071l-0.0138386 -0.0136811c-0.00435827,-0.0039252 -0.00784252,-0.00919685 -0.0105079,-0.0158819 -0.00259843,-0.00668504 -0.00377165,-0.0126811 -0.00344488,-0.018126l0.0044685 -0.074874c0.000259843,-0.00431496 0.00219685,-0.00999606 0.00594488,-0.0170315 0.00375197,-0.00703937 0.00827165,-0.0124291 0.0135591,-0.0161772l0.0142441 -0.00987402c0.0093937,-0.00670079 0.0195669,-0.00975591 0.0304567,-0.0091063l0.0458661 0.00273622c0.0115472,0.000688976 0.0221496,0.00611811 0.0317953,0.0163543l0.0115866 0.0123504c0.00835433,0.00849213 0.0120354,0.0205039 0.0110945,0.0362323zm-0.13128 -0.0103661l-0.00150394 0.0252205 0.0991693 0.00592126 0.00135433 -0.0227008c0.000366142,-0.0061063 -0.00128346,-0.0108661 -0.00480709,-0.0143425l-0.00905906 -0.00893307c-0.00466929,-0.00434252 -0.00893307,-0.00659449 -0.0128465,-0.00683071l-0.0410236 -0.00244882c-0.00504331,-0.000299213 -0.00979134,0.00114567 -0.0141181,0.00442126l-0.0100354 0.0073937c-0.00444094,0.003 -0.00681496,0.00705512 -0.00712992,0.0122992z"/>
   <path id="_541807848" class="fil1" d="M4.73546 6.65083l-0.0327047 -0.000807087c-0.0134961,-0.000334646 -0.0250118,-0.00540551 -0.0345472,-0.0152874 -0.0094685,-0.00981496 -0.0140354,-0.0215 -0.0137008,-0.0349961l0.00262205 -0.106165 -0.016752 -0.000413386c-0.00458661,-0.000114173 -0.00840551,-0.00173622 -0.0115197,-0.00494094 -0.00304724,-0.00320079 -0.00454331,-0.00716142 -0.00442913,-0.0118189 0.000110236,-0.00451969 0.00180315,-0.00840157 0.00500394,-0.0114488 0.00327165,-0.00311024 0.00716535,-0.00461024 0.011752,-0.0045l0.0171535 0.000425197 0.000992126 -0.0401535c0.000110236,-0.00451969 0.00173228,-0.00833858 0.00500394,-0.0114488 0.00327165,-0.00311417 0.00716535,-0.00461417 0.011752,-0.0045 0.00425591,0.000106299 0.00800394,0.0018622 0.011248,0.00513386 0.00324409,0.00333858 0.00480709,0.00723622 0.00470079,0.011626l-0.000992126 0.0401496 0.065815 0.00162598c0.00438583,0.000110236 0.00820079,0.00179921 0.0113819,0.0051378 0.00317323,0.00333858 0.00467323,0.00723228 0.00456693,0.011622 -0.000110236,0.00451969 -0.00180315,0.00833465 -0.0051378,0.0114449 -0.00333858,0.00311024 -0.00723228,0.00461417 -0.011622,0.00450394l-0.0662126 -0.00163386 -0.00262205 0.106165c-0.000106299,0.00438583 0.00146063,0.00828346 0.00470472,0.011622 0.00317717,0.00327165 0.00705906,0.0050315 0.0116457,0.00514567l0.0319094 0.000787402c0.00870866,0.000212598 0.0146063,-0.0043622 0.0177008,-0.0137323 0.00309055,-0.00930315 0.00872441,-0.0138858 0.0169016,-0.013685 0.00478346,0.00011811 0.00866929,0.00181102 0.0116496,0.00507874 0.00297638,0.00326772 0.00440945,0.00729134 0.0042874,0.0120787 -0.000240157,0.00983858 -0.0051378,0.019563 -0.014622,0.0291732 -0.00954724,0.00954331 -0.0215039,0.0141693 -0.0359291,0.013811z"/>
   <path id="_541808328" class="fil1" d="M4.44106 6.37373l0.0171535 -0.000177165c0.00451969,-4.33071e-005 0.0083937,0.00151181 0.0116181,0.00460236 0.00322441,0.00316142 0.00485827,0.007 0.00490551,0.0115906l0.000141732 0.0140276c4.72441e-005,0.00451969 -0.00150787,0.00846063 -0.00466535,0.0118189 -0.00315748,0.00335827 -0.00699606,0.00505906 -0.0115197,0.00510236l-0.0175512 0.000181102c-0.00465748,4.72441e-005 -0.00859843,-0.00164173 -0.0118228,-0.005 -0.00322441,-0.00329134 -0.00479528,-0.00706693 -0.00470079,-0.011189l0.000248031 -0.0144331c-4.33071e-005,-0.00458661 0.00151181,-0.00846063 0.00466929,-0.011685 0.00309449,-0.00315748 0.00693307,-0.00479134 0.0115236,-0.00483858zm0.0694055 0.272201l-0.0997362 0.00101575c-0.00458661,4.72441e-005 -0.00846063,-0.00150787 -0.011685,-0.00466929 -0.00315748,-0.00309055 -0.00479134,-0.007 -0.00483858,-0.0115197 -4.33071e-005,-0.00438976 0.00151181,-0.00825984 0.00460236,-0.0115512 0.00316142,-0.00329134 0.007,-0.0049252 0.0115866,-0.00497244l0.0335118 -0.00034252 -0.00124409 -0.122146 -0.0331142 0.000338583c-0.00458661,4.72441e-005 -0.00846063,-0.00150787 -0.011685,-0.00473622 -0.00322441,-0.00322441 -0.00479134,-0.00706693 -0.00483858,-0.0114528 -4.33071e-005,-0.00452362 0.00144488,-0.00846063 0.00460236,-0.0118189 0.00315748,-0.00335433 0.00699606,-0.00505906 0.0115866,-0.0051063l0.0498661 -0.000507874c0.00452362,-4.33071e-005 0.0083937,0.00157874 0.011622,0.00487008 0.00322441,0.00329134 0.00485827,0.00719685 0.00490551,0.0117205l0.00141339 0.1385 0.0327126 -0.000334646c0.00452362,-4.33071e-005 0.00846063,0.00151181 0.0118189,0.00466929 0.00335827,0.00315748 0.00505906,0.00699606 0.0051063,0.0115197 4.33071e-005,0.00451969 -0.00157874,0.00846063 -0.00473622,0.0116181 -0.00322835,0.00322441 -0.00706693,0.0048622 -0.0114567,0.00490551z"/>
   <path id="_541808016" class="fil1" d="M4.27146 6.65272l-0.0989094 0.00274016c-0.00458661,0.000125984 -0.00848819,-0.00142913 -0.0117717,-0.00466535 -0.00328346,-0.00323228 -0.00498425,-0.00711024 -0.00511024,-0.0116299 -0.000122047,-0.00438976 0.00136614,-0.0082874 0.00446457,-0.0116339 0.00310236,-0.00334646 0.00691339,-0.00504724 0.0115,-0.00517323l0.0327047 -0.000909449 -0.00534646 -0.192965 -0.0331063 0.000917323c-0.00458661,0.000125984 -0.00848425,-0.0013622 -0.0117638,-0.00446457 -0.00327953,-0.00310236 -0.00491339,-0.00691339 -0.00503937,-0.0114331 -0.000125984,-0.00459055 0.00129528,-0.00848425 0.00439764,-0.0117638 0.00310236,-0.00327953 0.00691339,-0.00498031 0.0115,-0.00511024l0.0498504 -0.00138189c0.00438976,-0.000122047 0.00829134,0.00143307 0.0115709,0.00460236 0.00334646,0.00316929 0.00511417,0.00690945 0.00524016,0.0113622l0.00579921 0.209319 0.0331024 -0.000917323c0.00438583,-0.000122047 0.0082874,0.00136614 0.0116339,0.00453543 0.00327953,0.00316929 0.00504724,0.00697638 0.00516929,0.0113661 0.000125984,0.00451969 -0.0013622,0.00848425 -0.00445669,0.0118976 -0.00310236,0.00340945 -0.00690945,0.0051811 -0.0114291,0.00530709z"/>
   <path id="_541807992" class="fil1" d="M4.0301 6.43333l-0.115476 0.00722835 0.00498425 0.0795709 0.0497717 -0.00311417c0.00438189,-0.000275591 0.00833071,0.00107874 0.0117205,0.00412992 0.00345276,0.00304724 0.00535039,0.00672835 0.00562992,0.0111732 0.000291339,0.00464567 -0.00105512,0.00872441 -0.00403543,0.0121772 -0.00298425,0.00338583 -0.00673228,0.0052874 -0.0112441,0.00556693l-0.0497717 0.00311811 0.00501575 0.0801024 0.115874 -0.00725591c0.00437795,-0.000275591 0.00832677,0.00107874 0.0117795,0.00405906 0.00338189,0.00292126 0.00528346,0.00673228 0.00556693,0.0112441 0.000283465,0.00451181 -0.00113386,0.00846457 -0.00425197,0.0118583 -0.00312205,0.0033937 -0.00693701,0.00523228 -0.0114488,0.00551575l-0.148193 0.00927953 -0.016185 -0.258425 0.148193 -0.00927953c0.00451181,-0.000283465 0.0085315,0.00112992 0.0120591,0.00424016 0.00352756,0.00311024 0.00542913,0.00692126 0.0057126,0.011437 0.000279528,0.00444488 -0.00114173,0.00833071 -0.00425984,0.0117913 -0.00311417,0.00346063 -0.00692913,0.00529921 -0.0114409,0.00558268z"/>
   <path id="_541808352" class="fil1" d="M3.56515 6.57306l0.0052126 0.0391575c0.000586614,0.00441339 -0.000492126,0.00838189 -0.00329528,0.0120433 -0.00279921,0.00366142 -0.00640945,0.00575197 -0.0107598,0.00633071l-0.114701 0.0152717 0.00126378 0.00949606c0.00073622,0.00553543 0.00373228,0.00990157 0.00899606,0.0131575l0.0105472 0.00664567c0.00567717,0.00333858 0.0108189,0.00466535 0.0154331,0.00405118l0.0834528 -0.0111142c0.00435039,-0.00057874 0.00838583,0.000492126 0.0120354,0.00322835 0.00364567,0.00266929 0.00574409,0.00634646 0.00634252,0.0108307 0.00057874,0.00434646 -0.000562992,0.0083937 -0.0034252,0.0120591 -0.00286614,0.00366929 -0.00641339,0.00575197 -0.0106339,0.00631496l-0.085563 0.0113937c-0.00566929,0.000755906 -0.0117598,0.000358268 -0.0183386,-0.0011811 -0.00657874,-0.00153937 -0.0115276,-0.00342913 -0.0147677,-0.00561417l-0.0161969 -0.0107913c-0.0050315,-0.00301969 -0.00945669,-0.0075315 -0.0133504,-0.0135866 -0.00382677,-0.00606693 -0.00612205,-0.0117283 -0.00684252,-0.0171339l-0.00990157 -0.0743583c-0.000570866,-0.00428346 0.000248031,-0.0102323 0.00258661,-0.0178543 0.00234252,-0.00762598 0.00574803,-0.0137795 0.0102205,-0.0184685l0.0121024 -0.0124134c0.00794094,-0.00837008 0.0173465,-0.013311 0.0281575,-0.014752l0.0455512 -0.00606299c0.0114685,-0.0015315 0.0229134,0.00177559 0.0343346,0.00998425l0.0137323 0.00991339c0.00982283,0.00674016 0.0157244,0.0178307 0.0178071,0.0334528zm-0.130854 0.014874l0.00333465 0.0250512 0.0984843 -0.0131142 -0.00300394 -0.0225433c-0.000807087,-0.00606693 -0.00333071,-0.0104252 -0.00745276,-0.0131654l-0.0105984 -0.00703937c-0.00541339,-0.00337402 -0.0100276,-0.00477165 -0.0139173,-0.00425197l-0.0407402 0.00542126c-0.00500787,0.000669291 -0.0093937,0.00299606 -0.0130157,0.00703543l-0.00844094 0.00917323c-0.0037874,0.00379134 -0.00534252,0.00822441 -0.00464961,0.0134331z"/>
   <path id="_541807920" class="fil1" d="M3.17794 6.74089l-0.0337677 -0.223626c-0.000665354,-0.00440551 0.000346457,-0.0083937 0.00298031,-0.0118819 0.00268898,-0.00356693 0.00626378,-0.00572047 0.0108031,-0.00640551 0.00447244,-0.000677165 0.00852362,0.000326772 0.0121535,0.00300394 0.00363386,0.0026811 0.0057874,0.00625591 0.00646457,0.0107283l0.0123386 0.0817283 0.0234134 -0.0208819c0.0107008,-0.0092874 0.0206654,-0.0145551 0.029937,-0.0159567l0.0199921 -0.00301575c0.0132795,-0.00200787 0.0253031,0.00101969 0.0362598,0.00898425 0.0109606,0.00802756 0.017622,0.0187244 0.0200512,0.0321457l0.0223071 0.120575c0.000807087,0.00445276 -0.000129921,0.00849606 -0.00287402,0.0121378 -0.00274409,0.00364173 -0.00638583,0.00580709 -0.0108583,0.00648031 -0.0044685,0.000677165 -0.0085315,-0.000393701 -0.0121181,-0.0032126 -0.00358661,-0.00282283 -0.00573228,-0.00633071 -0.0065,-0.0105197l-0.0224331 -0.120965c-0.000787402,-0.0043189 -0.00300394,-0.00788189 -0.0067126,-0.0106181 -0.00370079,-0.00266929 -0.00776378,-0.00374016 -0.0122992,-0.00305512l-0.0180827 0.00273228c-0.0040748,0.000614173 -0.0083622,0.00294488 -0.012752,0.00683465l-0.0414921 0.037 0.0155394 0.102902c0.000673228,0.00447244 -0.000326772,0.00852362 -0.00300787,0.0121575 -0.0026811,0.00363386 -0.00625591,0.0057874 -0.0107283,0.00646063 -0.00453543,0.000685039 -0.00858661,-0.000314961 -0.0122205,-0.00299606 -0.00356693,-0.00268898 -0.00572047,-0.00626378 -0.0063937,-0.0107362z"/>
   <path id="_541807800" class="fil1" d="M2.8986 6.59059l-0.00887795 -0.0433189 0.161811 -0.0331693 0.00896063 0.0437087c0.00092126,0.00449606 0.000129921,0.00859449 -0.00242126,0.012374 -0.00256299,0.00372047 -0.00601969,0.00605512 -0.0103189,0.00693701 -0.00442913,0.000909449 -0.00866142,0.000145669 -0.0125079,-0.00238976 -0.00390945,-0.00252756 -0.00629921,-0.00590551 -0.00719291,-0.0102677l-0.0023937 -0.0116614 -0.032437 0.00664961 0.0420591 0.205193c0.000909449,0.00443307 5.51181e-005,0.00854331 -0.00243307,0.012311 -0.00254724,0.00377953 -0.00600787,0.00611811 -0.0103071,0.007 -0.00462598,0.000948819 -0.0087874,0.000173228 -0.012622,-0.00229921 -0.00383071,-0.00247244 -0.00616929,-0.00592913 -0.00707874,-0.0103622l-0.0420591 -0.205193 -0.0324409 0.00664961 0.00231102 0.0112677c0.00092126,0.00449606 0.000129921,0.00859449 -0.00235433,0.0123622 -0.00248819,0.00376772 -0.00595669,0.00603937 -0.0103858,0.00694882 -0.00449606,0.00092126 -0.00858268,0.00019685 -0.0123504,-0.0022874 -0.00370079,-0.0025 -0.00603937,-0.00595669 -0.00696063,-0.0104528z"/>
   <path id="_541808472" class="fil1" d="M5.64939 6.45552l0.0847323 0.00803543c0.0103937,0.000984252 0.0197756,0.00628346 0.0281496,0.0158937 0.00844094,0.00961811 0.0120709,0.0206496 0.0108937,0.0330276 -0.000444882,0.00470079 -0.0024685,0.00844882 -0.00608661,0.011378 -0.00361811,0.00292913 -0.00740945,0.00417323 -0.0114488,0.00379134 -0.00555906,-0.000527559 -0.0092126,-0.00214567 -0.0110276,-0.00485433 -0.00187795,-0.00271654 -0.00335433,-0.00759843 -0.00462598,-0.0145984 -0.00120079,-0.00705906 -0.00504724,-0.0108976 -0.0115315,-0.0115118l-0.0805 -0.00763386c-0.00383858,-0.000366142 -0.00587795,0.000712598 -0.00611024,0.00316142 -0.000145669,0.00151969 0.000476378,0.00344882 0.002,0.00566535l0.106157 0.166031c0.00511417,0.0080315 0.00726772,0.0163189 0.00645669,0.0248583 -0.00092126,0.00972835 -0.00530709,0.0179331 -0.0130197,0.0246142 -0.0077126,0.0066811 -0.0159409,0.00964173 -0.0246142,0.0088189l-0.0878465 -0.00832677c-0.0116496,-0.0011063 -0.0213583,-0.00650394 -0.029122,-0.016189 -0.00770472,-0.00961417 -0.0110866,-0.019752 -0.0100748,-0.0304134 0.00114961,-0.0121142 0.00741732,-0.0176654 0.0187362,-0.0165906 0.00443701,0.00042126 0.00799213,0.0023622 0.0108031,0.00583465 0.00281102,0.00347244 0.00404724,0.00733071 0.00364567,0.0115669 -0.000330709,0.00350787 0.000582677,0.00653543 0.00274803,0.00907874 0.00216142,0.00254331 0.00502756,0.00401575 0.00866929,0.0043622l0.0810945 0.00768898c0.00344094,0.000326772 0.0053622,-0.000893701 0.00561811,-0.00361024 0.00011811,-0.00125591 -0.00057874,-0.00305906 -0.00203937,-0.00526772l-0.106024 -0.16602c-0.00499606,-0.00788583 -0.00701575,-0.0161614 -0.00619291,-0.0248307 0.000952756,-0.010063 0.0053622,-0.0185315 0.0133504,-0.025252 0.00791732,-0.00673228 0.0170118,-0.00967717 0.0272087,-0.00870866z"/>
   <path id="_541808880" class="fil1" d="M5.82961 6.71768l0.0291969 -0.224264c0.000574803,-0.00441732 0.00264567,-0.0079685 0.00614173,-0.0105984 0.00356693,-0.00268898 0.00759843,-0.00377165 0.0121496,-0.0031811 0.00448425,0.000586614 0.00810236,0.00266535 0.0108543,0.00624409 0.00275197,0.0035748 0.00383858,0.0076063 0.00325197,0.0120906l-0.0106693 0.0819646 0.0282598 -0.013622c0.0128504,-0.00597244 0.023878,-0.00829134 0.0331772,-0.00707874l0.0200433 0.0026063c0.0133228,0.00173622 0.0240472,0.00796063 0.032378,0.0186339 0.00832677,0.0107402 0.0117795,0.0228583 0.0104134,0.0364252l-0.0117992 0.122051c-0.000452756,0.0045 -0.0024685,0.00812992 -0.00611024,0.010874 -0.00364173,0.00274409 -0.00774016,0.0038189 -0.0122244,0.00323622 -0.00448425,-0.000586614 -0.00809055,-0.00273228 -0.0107638,-0.00643307 -0.00266929,-0.00369685 -0.00376378,-0.00766535 -0.00334646,-0.0119016l0.0117874 -0.122453c0.000433071,-0.00437008 -0.000716535,-0.00840945 -0.00352756,-0.0120591 -0.0028189,-0.00358661 -0.0064252,-0.00573228 -0.0109764,-0.00632677l-0.0181339 -0.0023622c-0.00409055,-0.000531496 -0.00885433,0.000523622 -0.0141457,0.00305512l-0.0500787 0.024126 -0.013437 0.103193c-0.000582677,0.00448425 -0.00266535,0.00810236 -0.00624016,0.0108583 -0.00357874,0.00275197 -0.00761024,0.00383858 -0.0120945,0.00325197 -0.00454724,-0.000590551 -0.00816535,-0.00267323 -0.0109173,-0.00624803 -0.00268898,-0.00357087 -0.00377165,-0.00759843 -0.00318898,-0.0120827z"/>
   <path id="_541809240" class="fil1" d="M6.13417 6.65755l0.0632402 0.0104882c0.00340945,0.000566929 0.00834252,0.00212598 0.0145748,0.00477559l0.00340551 -0.0229567c0.00073622,-0.00446063 -0.000204724,-0.00852756 -0.00276772,-0.012189 -0.00262598,-0.00367323 -0.00616929,-0.00587402 -0.0106969,-0.00662598l-0.0612717 -0.0101614c-0.0043937,-0.000728346 -0.00787008,-0.0029252 -0.0105512,-0.00667323 -0.0026811,-0.00374803 -0.00362598,-0.00781102 -0.00290945,-0.0121417 0.000740157,-0.00446063 0.00295669,-0.00807087 0.00655118,-0.0106417 0.00367323,-0.00262598 0.00774016,-0.00357087 0.0122638,-0.0028189l0.0612717 0.0101614c0.013315,0.00220866 0.0239606,0.00875984 0.0317835,0.0196969 0.00790157,0.0108819 0.0109173,0.0231772 0.00899213,0.036811l-0.0159803 0.121575c-0.000740157,0.00446063 -0.00294488,0.00800394 -0.00668504,0.0106181 -0.00373622,0.00261811 -0.00779921,0.00355906 -0.0121299,0.00284252 -0.00459055,-0.000759843 -0.00826772,-0.00298819 -0.0109606,-0.00666929 -0.00268898,-0.0036811 -0.00363386,-0.00774803 -0.0028937,-0.0122087l-0.0299646 0.0116102 -0.0545827 -0.00905118c-0.0135787,-0.00225197 -0.0243425,-0.00888976 -0.0322087,-0.0199685 -0.00794488,-0.0110236 -0.0107559,-0.0233504 -0.00850394,-0.0369291l0.00312205 -0.0188307c0.00223228,-0.0134488 0.00887008,-0.0242087 0.0200236,-0.0321339 0.0111024,-0.008 0.0234291,-0.0108071 0.036878,-0.00857874zm0.0702677 0.0762283l0.00134252 -0.0137992c0.000641732,-0.00467717 -0.000366142,-0.00875591 -0.00293701,-0.0123504 -0.00250787,-0.00358268 -0.00606299,-0.00572047 -0.0105236,-0.00646063l-0.0636299 -0.0105551c-0.00446457,-0.000740157 -0.00858268,0.000125984 -0.012189,0.00276378 -0.00366929,0.00262598 -0.00587795,0.00617323 -0.00662598,0.0106969l-0.00299213 0.0180433c-0.000720472,0.00432677 0.000224409,0.0083937 0.00290551,0.0121417 0.0026811,0.00374803 0.00616142,0.00594094 0.0105551,0.00666929l0.0455276 0.00755118 0.0385669 -0.0147008z"/>
   <path id="_541808568" class="fil1" d="M6.30405 6.78888l0.0408268 -0.222098c0.00084252,-0.00457874 0.00312205,-0.00814961 0.00685039,-0.0107756 0.00372835,-0.00262992 0.00782283,-0.00356693 0.0123346,-0.00273622 0.00444882,0.000814961 0.00794094,0.00314961 0.0104921,0.00692913 0.00254724,0.00378346 0.00340945,0.00792913 0.00256693,0.0125079l-0.0241654 0.131457 0.100154 -0.0578543c0.00422441,-0.00240157 0.00855906,-0.00316142 0.012874,-0.00236614 0.00464173,0.000854331 0.0081378,0.00318504 0.0106102,0.00701969 0.00248425,0.00377165 0.00333071,0.00798425 0.00251181,0.0124291 -0.000862205,0.0047126 -0.00325984,0.00819291 -0.00711417,0.0103898l-0.0779606 0.0448937 0.0697717 0.0882835c0.00277953,0.00328346 0.00383071,0.00712598 0.00303543,0.0114449 -0.000767717,0.00418504 -0.00304724,0.00775197 -0.00673622,0.0105236 -0.00363386,0.00284646 -0.00774016,0.00385039 -0.012185,0.0030315 -0.00451181,-0.000826772 -0.00817323,-0.00298819 -0.0110984,-0.00656693l-0.0721654 -0.0903425 -0.0194173 0.0110984 -0.00894488 0.0486614c-0.000814961,0.00444882 -0.00308268,0.00795276 -0.00679921,0.0105118 -0.00371654,0.00256299 -0.00779921,0.00343701 -0.012248,0.00261811 -0.00451181,-0.000830709 -0.00801575,-0.00309449 -0.0105787,-0.00681102 -0.00255906,-0.00371654 -0.00343307,-0.00779921 -0.00261417,-0.012248z"/>
   <path id="_541808784" class="fil1" d="M6.72664 6.76491l-0.00849213 0.0385748c-0.000956693,0.00435433 -0.00333071,0.0077126 -0.0072126,0.0101929 -0.00388189,0.00248031 -0.00799606,0.00320866 -0.0122795,0.00226772l-0.113 -0.024878 -0.00205906 0.00935039c-0.00120079,0.00545669 0.000122047,0.0105827 0.00395276,0.0154409l0.0076378 0.00985433c0.00419291,0.0050748 0.00857087,0.00808268 0.0131181,0.00908268l0.0822165 0.0181024c0.00428346,0.000940945 0.00770866,0.00333071 0.0102047,0.00714961 0.00250787,0.00375197 0.00322441,0.0079252 0.00225197,0.0123425 -0.000944882,0.00428346 -0.00339764,0.00769291 -0.00734252,0.0101614 -0.00394882,0.0024685 -0.00799606,0.0032126 -0.0121496,0.00229528l-0.0842953 -0.0185551c-0.00558661,-0.00123228 -0.0111732,-0.00368504 -0.0168268,-0.00738189 -0.00565748,-0.00369685 -0.00965748,-0.00716535 -0.0119567,-0.0103268l-0.0115276 -0.0156811c-0.00369685,-0.00455906 -0.00631102,-0.0103071 -0.00789764,-0.0173307 -0.00151969,-0.00700787 -0.00174409,-0.0131142 -0.000570866,-0.0184409l0.0161299 -0.0732559c0.000929134,-0.00422047 0.00372835,-0.00952756 0.00853543,-0.0158898 0.00480709,-0.00636614 0.0101102,-0.0109843 0.0159213,-0.0138583l0.0156142 -0.00752362c0.0103268,-0.00514961 0.0208543,-0.00657874 0.0315039,-0.00423228l0.044874 0.00987795c0.0112992,0.00248819 0.0209213,0.00951181 0.0288504,0.021126l0.00951181 0.0140118c0.00692126,0.00969291 0.00867717,0.0221339 0.0052874,0.0375236zm-0.128043 -0.0307756l-0.00542913 0.0246772 0.0970236 0.0213622 0.00488583 -0.0222126c0.00131496,-0.00597244 0.000433071,-0.0109331 -0.0025,-0.0149173l-0.00755118 -0.0102402c-0.00393307,-0.00501969 -0.00779134,-0.00791339 -0.011622,-0.00875591l-0.0401339 -0.00883465c-0.00493701,-0.00108661 -0.00985433,-0.000401575 -0.0146378,0.00215354l-0.0110669 0.00573622c-0.00485827,0.00226772 -0.00783858,0.00590157 -0.0089685,0.0110315z"/>
   <path id="_541808664" class="fil1" d="M6.64903 6.26712c-0.0058189,-0.00625984 0.00287402,-0.0695157 0.00414567,-0.0825827 0.0028189,-0.0288228 0.00518898,-0.0575276 0.00814961,-0.085878 0.00299606,-0.0287205 0.00442126,-0.0583425 0.00824409,-0.086315 0.0038622,-0.0282362 0.00598425,-0.0577323 0.00864961,-0.0859055l0.277807 0.0571929c-0.00225984,0.016126 -0.0148701,0.0466417 -0.0198701,0.0632165 -0.0183819,0.0608976 -0.0406181,0.128339 -0.0602874,0.189185 -0.0279921,0.0865827 -0.0151575,0.0818898 -0.0784331,0.0689646 -0.0238819,-0.00488189 -0.047752,-0.00981496 -0.0716417,-0.0146732 -0.0170709,-0.00347244 -0.0566496,-0.00959843 -0.0702205,-0.0152953 -0.0044685,-0.00322441 -0.00441339,-0.00294094 -0.00654331,-0.00790945zm0.0366969 -0.0479921c-0.0030315,-0.00302756 -0.00266929,0.00181102 -0.000838583,-0.0135394l0.0279409 -0.224539 0.0180945 0.00397638c-0.00227559,0.0230236 -0.0257283,0.144957 -0.0316575,0.17737l-0.00907874 0.0516378c-0.00309843,0.00967323 0.00106299,0.00380315 -0.00446063,0.00509449z"/>
   <path id="_541809024" class="fil1" d="M6.94959 5.91757l-0.239421 -0.0490394c0.00675591,-0.020563 0.0365984,-0.0391811 0.0550433,-0.0471575 0.0483622,-0.0209173 0.116114,-0.00680709 0.152299,0.0312047 0.0115394,0.0121181 0.0341024,0.0416811 0.0320787,0.0649921z"/>
   <path id="_546804440" class="fil1" d="M6.98331 5.93031l-0.310531 -0.0636063c-0.00519291,-0.00106299 -0.0103071,0.00231102 -0.0113701,0.00750394l-0.00640157 0.031248c-0.00106299,0.00519291 0.00231496,0.0103071 0.00750394,0.0113701l0.310535 0.0636063c0.00518898,0.00106299 0.0103031,-0.00231102 0.0113661,-0.00750394l0.00640157 -0.031248c0.00106299,-0.00518898 -0.00231102,-0.0103071 -0.00750394,-0.0113701z"/>
   <path id="_546803720" class="fil1" d="M6.75456 5.85556l-0.0154173 -0.00315354 0.0137717 -0.0679606c-0.0301102,-0.0158819 -0.0625827,-0.031248 -0.0927638,-0.0468543 -0.00708268,-0.00366535 -0.0149449,-0.00558268 -0.0144213,-0.0127165 0.0012126,-0.0165551 0.0284094,0.00182677 0.0357165,0.00551969 0.0253543,0.0128268 0.0497362,0.0251063 0.0749173,0.037685 0.00663386,0.00331102 0.0136496,0.00530709 0.0136772,0.012122 2.3622e-005,0.00533465 -0.0142205,0.0713661 -0.0154803,0.0753583z"/>
   <path id="_546803840" class="fil1" d="M7.1931 4.9817l0 -0.136846 -0.0520984 0 0 -0.0238976 0.131327 0 0 0.0238976 -0.052437 0 0 0.136846 -0.0267913 0zm0.0972008 0l0 -0.160744 0.0394449 0 0.0405906 0.128366 0.0392441 -0.128366 0.0387047 0 0 0.160744 -0.0245 0 0 -0.134898 -0.0413976 0.134898 -0.0242323 0 -0.0432165 -0.136846 0 0.136846 -0.0246378 0z"/>
  </g>
 </g>
</svg>
